<?xml version="1.0" encoding="utf-8"?>
<!-- Generator: Adobe Illustrator 24.2.1, SVG Export Plug-In . SVG Version: 6.00 Build 0)  -->
<svg version="1.1" xmlns="http://www.w3.org/2000/svg" xmlns:xlink="http://www.w3.org/1999/xlink" x="0px" y="0px"
	 viewBox="0 0 2001.22 724.78" style="enable-background:new 0 0 2001.22 724.78;" xml:space="preserve">
<style type="text/css">
	.st0{fill:#898989;}
	.st1{fill:#008891;}
	.st2{opacity:0.15;clip-path:url(#SVGID_11_);}
	.st3{opacity:0.15;}
	.st4{clip-path:url(#SVGID_13_);}
	.st5{clip-path:url(#SVGID_15_);}
	.st6{opacity:0.5;}
	.st7{fill:#D0A885;}
	.st8{fill:#926C67;}
	.st9{opacity:0.3;fill:#5C515D;}
	.st10{opacity:0.4;fill:#F6F3E3;}
	.st11{fill:#96CDD5;}
	.st12{fill:#527278;}
	.st13{fill:#EEE5AB;}
	.st14{fill:#F9877B;}
	.st15{opacity:0.7;fill:#F6F3E3;}
	.st16{fill:#9FD1D6;}
	.st17{fill:#FFD95D;}
	.st18{fill:#F6786C;}
	.st19{opacity:0.5;fill:#FEEDD6;}
	.st20{fill:#B0BDCB;}
	.st21{fill:#67517B;}
	.st22{opacity:0.3;fill:#F6F3E3;}
	.st23{opacity:0.5;fill:#5C515D;}
	.st24{fill:#EF5A53;}
	.st25{opacity:0.3;}
	.st26{opacity:0.4;}
	.st27{fill:url(#SVGID_16_);}
	.st28{opacity:0.6;fill:url(#SVGID_17_);}
	.st29{opacity:0.4;fill:url(#SVGID_18_);}
	.st30{opacity:0.4;fill:url(#SVGID_19_);}
	.st31{opacity:0.2;fill:#FFF791;}
	.st32{fill:#F15A22;}
	.st33{fill:url(#SVGID_20_);}
	.st34{opacity:0.6;fill:url(#SVGID_21_);}
	.st35{opacity:0.4;fill:url(#SVGID_22_);}
	.st36{opacity:0.4;fill:url(#SVGID_23_);}
	.st37{fill:url(#SVGID_24_);}
	.st38{opacity:0.6;fill:url(#SVGID_25_);}
	.st39{opacity:0.4;fill:url(#SVGID_26_);}
	.st40{opacity:0.4;fill:url(#SVGID_27_);}
	.st41{fill:url(#SVGID_28_);}
	.st42{opacity:0.6;fill:url(#SVGID_29_);}
	.st43{opacity:0.4;fill:url(#SVGID_30_);}
	.st44{opacity:0.4;fill:url(#SVGID_31_);}
	.st45{fill:url(#SVGID_32_);}
	.st46{opacity:0.6;fill:url(#SVGID_33_);}
	.st47{opacity:0.4;fill:url(#SVGID_34_);}
	.st48{opacity:0.4;fill:url(#SVGID_35_);}
	.st49{fill:url(#SVGID_36_);}
	.st50{opacity:0.6;fill:url(#SVGID_37_);}
	.st51{opacity:0.4;fill:url(#SVGID_38_);}
	.st52{opacity:0.4;fill:url(#SVGID_39_);}
	.st53{fill:url(#SVGID_40_);}
	.st54{opacity:0.6;fill:url(#SVGID_41_);}
	.st55{opacity:0.4;fill:url(#SVGID_42_);}
	.st56{opacity:0.4;fill:url(#SVGID_43_);}
	.st57{fill:url(#SVGID_44_);}
	.st58{opacity:0.6;fill:url(#SVGID_45_);}
	.st59{opacity:0.4;fill:url(#SVGID_46_);}
	.st60{opacity:0.4;fill:url(#SVGID_47_);}
	.st61{fill:url(#SVGID_48_);}
	.st62{opacity:0.6;fill:url(#SVGID_49_);}
	.st63{opacity:0.4;fill:url(#SVGID_50_);}
	.st64{opacity:0.4;fill:url(#SVGID_51_);}
	.st65{fill:url(#SVGID_52_);}
	.st66{opacity:0.6;fill:url(#SVGID_53_);}
	.st67{opacity:0.4;fill:url(#SVGID_54_);}
	.st68{opacity:0.4;fill:url(#SVGID_55_);}
	.st69{fill:url(#SVGID_56_);}
	.st70{opacity:0.6;fill:url(#SVGID_57_);}
	.st71{opacity:0.4;fill:url(#SVGID_58_);}
	.st72{opacity:0.4;fill:url(#SVGID_59_);}
	.st73{fill:url(#SVGID_60_);}
	.st74{opacity:0.6;fill:url(#SVGID_61_);}
	.st75{opacity:0.4;fill:url(#SVGID_62_);}
	.st76{opacity:0.4;fill:url(#SVGID_63_);}
	.st77{fill:url(#SVGID_64_);}
	.st78{fill:#525251;}
	.st79{fill:url(#SVGID_65_);}
	.st80{opacity:0.3;fill:#1D1D1B;}
	.st81{opacity:0.4;fill:url(#SVGID_66_);}
	.st82{opacity:0.4;fill:url(#SVGID_67_);}
	.st83{fill:#FFFAC6;}
	.st84{fill:#FFF459;}
	.st85{fill:#FFFFFF;}
	.st86{opacity:0.7;fill:url(#SVGID_68_);}
	.st87{fill:url(#SVGID_69_);}
	.st88{fill:url(#SVGID_70_);}
	.st89{fill:#FEFFFE;}
	.st90{fill:#FFEBCA;}
	.st91{fill:#247236;}
	.st92{fill:url(#SVGID_71_);}
	.st93{fill:url(#SVGID_72_);}
	.st94{fill:url(#SVGID_73_);}
	.st95{fill:url(#SVGID_74_);}
	.st96{opacity:0.4;fill:#FFFFFF;}
	.st97{opacity:0.3;fill:#FFFFFF;}
	.st98{opacity:0.25;}
	.st99{fill:#EADFF8;}
	.st100{fill:#E5DAF2;}
	.st101{fill:#AAA3B5;}
	.st102{fill:#B5ADC0;}
	.st103{fill:#D6CDE4;}
	.st104{fill:#EDE3FC;}
	.st105{fill:#C6BDD2;}
	.st106{fill:#B4ACBF;}
	.st107{fill:#BCB4C8;}
	.st108{fill:#CFC6DC;}
	.st109{fill:#C2BACE;}
	.st110{fill:#BAB1C5;}
	.st111{fill:#CBC2D7;}
	.st112{fill:#A69FB0;}
	.st113{fill:#A59DAF;}
	.st114{fill:#E2D8F1;}
	.st115{fill:#DDD3EA;}
	.st116{fill:#D0C7DD;}
	.st117{fill:#CCC3D9;}
	.st118{fill:#C0B7CC;}
	.st119{opacity:0.65;}
	.st120{opacity:0.1;fill:#8E8796;}
	.st121{fill:#E1D7EF;}
	.st122{fill:#9891A1;}
	.st123{opacity:0.5;fill:#FFFFFF;}
	.st124{fill:#A39BAD;}
	.st125{fill:#C1B9CD;}
	.st126{opacity:0.75;}
	.st127{opacity:0.15;fill:#8E8796;}
	.st128{clip-path:url(#SVGID_80_);}
	.st129{fill:#A49DAE;}
	.st130{opacity:0.1;fill:#9892A2;}
	.st131{fill:#9B94A4;}
	.st132{fill:#FEFEFE;}
	.st133{clip-path:url(#SVGID_82_);}
	.st134{fill:#C1B8CD;}
	.st135{fill:#9C95A6;}
	.st136{opacity:0.2;fill:#EDE3FC;}
	.st137{opacity:0.2;fill:#8E8796;}
	.st138{fill:#AFA7BA;}
	.st139{fill:#D8CFE6;}
	.st140{fill:#C4BCD0;}
	.st141{fill:#DBD1E8;}
	.st142{fill:#F6F4F2;}
	.st143{fill:#00CFD2;}
	.st144{opacity:0.13;fill:none;stroke:#00D1BB;stroke-miterlimit:10;}
	.st145{opacity:0.13;}
	.st146{opacity:0.34;}
	.st147{fill:#00D1BB;}
	.st148{opacity:0.34;fill:#00D1BB;}
	.st149{fill:none;stroke:#1B0D4A;stroke-width:0.7955;stroke-miterlimit:10;}
	.st150{fill:none;}
	.st151{fill:#FF3451;}
	.st152{fill:#FF5F6D;}
	.st153{fill:#00D0D2;}
	.st154{fill:#FF8EDD;}
	.st155{fill:#FFB3F4;}
	.st156{fill:#00B650;}
	.st157{fill:#00CD6C;}
	.st158{fill:#FFDA4C;}
	.st159{fill:#FFC804;}
	.st160{fill:#FF7802;}
	.st161{opacity:0.1;fill:#00CFD2;}
	.st162{opacity:0.13;fill:#00D1BB;}
	.st163{fill:#4A2519;}
	.st164{clip-path:url(#SVGID_88_);}
	.st165{fill:#13889D;}
	.st166{fill:#86A436;}
	.st167{fill:#86574A;}
	.st168{fill:#1A1718;}
	.st169{fill:#62382F;}
	.st170{fill:#1D3D48;}
	.st171{fill:#FFB949;}
	.st172{fill:#CD7C58;}
	.st173{fill:#9C5397;}
	.st174{fill:#EA9E36;}
	.st175{fill:#006A7C;}
	.st176{clip-path:url(#SVGID_90_);}
	.st177{fill:none;stroke:#FFFFFF;stroke-width:1.0306;stroke-miterlimit:10;}
	.st178{fill:none;stroke:#F1D097;stroke-width:1.0306;stroke-miterlimit:10;}
	.st179{fill:none;stroke:#00AD9A;stroke-miterlimit:10;}
	.st180{fill:none;stroke:#4A2519;stroke-miterlimit:10;}
	.st181{fill:none;stroke:#4A2519;stroke-width:1.1579;stroke-miterlimit:10;}
	.st182{fill:none;stroke:#4A2519;stroke-width:1.0306;stroke-miterlimit:10;}
	.st183{fill:#CB805F;stroke:#4A2519;stroke-width:1.0306;stroke-miterlimit:10;}
	.st184{fill:none;stroke:#4A2519;stroke-width:0.7;stroke-miterlimit:10;}
	.st185{fill:none;stroke:#4A2519;stroke-width:0.7;stroke-miterlimit:10;stroke-dasharray:5.9876,6.9856;}
	.st186{fill:#003956;}
	.st187{fill:#00455C;}
	.st188{fill:none;stroke:#FF7802;stroke-width:3;stroke-miterlimit:10;}
	.st189{opacity:0.2;fill:#001D28;}
	.st190{opacity:0.6;fill:#001D28;}
	.st191{opacity:0.54;enable-background:new    ;}
	.st192{fill:url(#SVGID_97_);}
	.st193{fill:url(#SVGID_98_);}
	.st194{fill:url(#SVGID_99_);}
	.st195{fill:url(#SVGID_100_);}
	.st196{opacity:0.2;enable-background:new    ;}
	.st197{opacity:0.12;enable-background:new    ;}
	.st198{opacity:0.25;fill:#FFFFFF;enable-background:new    ;}
	.st199{fill:none;stroke:#008891;stroke-width:2;stroke-miterlimit:10;}
	.st200{fill:none;stroke:#008891;stroke-width:2;stroke-miterlimit:10;stroke-dasharray:6.0242,7.0283;}
	.st201{fill:url(#SVGID_105_);}
	.st202{fill:url(#SVGID_106_);}
	.st203{fill:url(#SVGID_107_);}
	.st204{fill:url(#SVGID_108_);}
	.st205{clip-path:url(#SVGID_114_);}
	.st206{clip-path:url(#SVGID_116_);}
	.st207{fill:none;stroke:#4A2519;stroke-width:0.7;stroke-miterlimit:10;stroke-dasharray:6.143,7.1668;}
	.st208{clip-path:url(#SVGID_118_);}
	.st209{clip-path:url(#SVGID_120_);}
	.st210{opacity:0.2;fill:#004F51;}
	.st211{opacity:0.5;fill:#004F51;}
	.st212{fill:url(#SVGID_121_);}
	.st213{fill:url(#SVGID_122_);}
	.st214{fill:url(#SVGID_123_);}
	.st215{fill:url(#SVGID_124_);}
	.st216{fill:#565656;}
	.st217{opacity:0.1;fill:#4C4C4C;}
	.st218{fill:#D9D9D9;}
	.st219{fill:#163036;}
	.st220{fill:#0F252A;}
	.st221{fill:#000202;}
	.st222{fill:#05191C;}
	.st223{fill:#C6C6C5;}
	.st224{fill:#B1B1B1;}
	.st225{fill:none;stroke:#000B22;stroke-miterlimit:10;}
	.st226{fill:none;stroke:#00CFD2;stroke-width:2;stroke-miterlimit:10;}
	.st227{clip-path:url(#SVGID_136_);}
	.st228{fill:#AEE1E5;}
	.st229{opacity:0.8;fill:#FFFFFF;}
	.st230{opacity:0.6;fill:#FFFFFF;}
	.st231{opacity:0.2;fill:#FFFFFF;}
	.st232{fill:#314F72;}
	.st233{fill:#9B9B9B;}
	.st234{fill:#70706E;}
	.st235{fill:#FF5337;}
	.st236{clip-path:url(#SVGID_138_);}
	.st237{fill:#C5C5C5;}
	.st238{clip-path:url(#SVGID_140_);}
	.st239{fill:#6D81A2;}
	.st240{fill:#FFB400;}
	.st241{fill:#1C1C1A;}
	.st242{fill:#2F781E;}
	.st243{clip-path:url(#SVGID_142_);}
	.st244{clip-path:url(#SVGID_144_);}
	.st245{clip-path:url(#SVGID_146_);fill:#FFFFFF;}
	.st246{clip-path:url(#SVGID_148_);fill:#FFFFFF;}
	.st247{clip-path:url(#SVGID_150_);fill:#FFFFFF;}
	.st248{fill:#425D7E;}
	.st249{opacity:0.1;fill:#AAA3B5;}
	.st250{opacity:0.1;}
	.st251{fill:#B1EAEA;}
	.st252{fill:#00CFD4;}
	.st253{clip-path:url(#SVGID_154_);fill:#FF7700;}
	.st254{clip-path:url(#SVGID_154_);fill:#FFFFFF;}
	.st255{clip-path:url(#SVGID_154_);fill:#0073BE;}
	.st256{clip-path:url(#SVGID_156_);fill:#FFFFFF;}
	.st257{clip-path:url(#SVGID_156_);fill:#00CB82;}
	.st258{clip-path:url(#SVGID_158_);fill:none;stroke:#57453F;stroke-miterlimit:10;}
	.st259{opacity:0.2;clip-path:url(#SVGID_158_);}
	.st260{clip-path:url(#SVGID_160_);fill:#0F1E3A;}
	.st261{clip-path:url(#SVGID_162_);fill:#D09368;}
	.st262{clip-path:url(#SVGID_162_);fill:#2D1B00;}
	.st263{opacity:0.16;clip-path:url(#SVGID_162_);}
	.st264{clip-path:url(#SVGID_164_);}
	.st265{clip-path:url(#SVGID_162_);fill:#FFD294;}
	.st266{clip-path:url(#SVGID_166_);}
	.st267{fill:#2D1B00;}
	.st268{fill:#FF7700;}
	.st269{fill:#DC927B;}
	.st270{fill:#068693;}
	.st271{fill:#F2B93B;}
	.st272{fill:#F0A000;}
	.st273{clip-path:url(#SVGID_172_);}
	.st274{clip-path:url(#SVGID_174_);}
	.st275{fill:#BF7F47;}
	.st276{fill:#3F221D;}
	.st277{fill:#002533;}
	.st278{fill:#B56E52;}
	.st279{fill:#753815;}
	.st280{clip-path:url(#SVGID_184_);}
	.st281{fill:url(#SVGID_185_);}
	.st282{fill:url(#SVGID_186_);}
	.st283{fill:url(#SVGID_187_);}
	.st284{fill:url(#SVGID_188_);}
	.st285{clip-path:url(#SVGID_192_);}
	.st286{opacity:0.61;fill:url(#SVGID_193_);}
	.st287{fill:none;stroke:#4A2519;stroke-width:0.7;stroke-miterlimit:10;stroke-dasharray:5.9794,6.976;}
	.st288{fill:none;stroke:#4A2519;stroke-width:0.7;stroke-miterlimit:10;stroke-dasharray:5.9656,6.9599;}
	.st289{fill:#FF760C;}
	.st290{fill:#1D1D1B;}
	.st291{fill:#E20613;}
	.st292{fill:none;stroke:#FFFFFF;stroke-width:8;stroke-miterlimit:10;}
	.st293{fill:none;stroke:#FF7802;stroke-miterlimit:10;}
	.st294{fill:none;stroke:#FFFFFF;stroke-miterlimit:10;}
	.st295{clip-path:url(#SVGID_201_);}
	.st296{clip-path:url(#SVGID_203_);}
	.st297{fill:url(#SVGID_204_);}
	.st298{opacity:0.6;fill:url(#SVGID_205_);}
	.st299{opacity:0.4;fill:url(#SVGID_206_);}
	.st300{opacity:0.4;fill:url(#SVGID_207_);}
	.st301{fill:url(#SVGID_208_);}
	.st302{opacity:0.6;fill:url(#SVGID_209_);}
	.st303{opacity:0.4;fill:url(#SVGID_210_);}
	.st304{opacity:0.4;fill:url(#SVGID_211_);}
	.st305{fill:url(#SVGID_212_);}
	.st306{opacity:0.6;fill:url(#SVGID_213_);}
	.st307{opacity:0.4;fill:url(#SVGID_214_);}
	.st308{opacity:0.4;fill:url(#SVGID_215_);}
	.st309{fill:url(#SVGID_216_);}
	.st310{opacity:0.6;fill:url(#SVGID_217_);}
	.st311{opacity:0.4;fill:url(#SVGID_218_);}
	.st312{opacity:0.4;fill:url(#SVGID_219_);}
	.st313{fill:url(#SVGID_220_);}
	.st314{opacity:0.6;fill:url(#SVGID_221_);}
	.st315{opacity:0.4;fill:url(#SVGID_222_);}
	.st316{opacity:0.4;fill:url(#SVGID_223_);}
	.st317{fill:url(#SVGID_224_);}
	.st318{opacity:0.6;fill:url(#SVGID_225_);}
	.st319{opacity:0.4;fill:url(#SVGID_226_);}
	.st320{opacity:0.4;fill:url(#SVGID_227_);}
	.st321{fill:url(#SVGID_228_);}
	.st322{opacity:0.6;fill:url(#SVGID_229_);}
	.st323{opacity:0.4;fill:url(#SVGID_230_);}
	.st324{opacity:0.4;fill:url(#SVGID_231_);}
	.st325{fill:url(#SVGID_232_);}
	.st326{opacity:0.6;fill:url(#SVGID_233_);}
	.st327{opacity:0.4;fill:url(#SVGID_234_);}
	.st328{opacity:0.4;fill:url(#SVGID_235_);}
	.st329{fill:url(#SVGID_236_);}
	.st330{opacity:0.6;fill:url(#SVGID_237_);}
	.st331{opacity:0.4;fill:url(#SVGID_238_);}
	.st332{opacity:0.4;fill:url(#SVGID_239_);}
	.st333{fill:url(#SVGID_240_);}
	.st334{opacity:0.6;fill:url(#SVGID_241_);}
	.st335{opacity:0.4;fill:url(#SVGID_242_);}
	.st336{opacity:0.4;fill:url(#SVGID_243_);}
	.st337{fill:url(#SVGID_244_);}
	.st338{opacity:0.6;fill:url(#SVGID_245_);}
	.st339{opacity:0.4;fill:url(#SVGID_246_);}
	.st340{opacity:0.4;fill:url(#SVGID_247_);}
	.st341{fill:url(#SVGID_248_);}
	.st342{opacity:0.6;fill:url(#SVGID_249_);}
	.st343{opacity:0.4;fill:url(#SVGID_250_);}
	.st344{opacity:0.4;fill:url(#SVGID_251_);}
	.st345{fill:url(#SVGID_252_);}
	.st346{fill:url(#SVGID_253_);}
	.st347{opacity:0.4;fill:url(#SVGID_254_);}
	.st348{opacity:0.4;fill:url(#SVGID_255_);}
	.st349{opacity:0.7;fill:url(#SVGID_256_);}
	.st350{fill:url(#SVGID_257_);}
	.st351{fill:url(#SVGID_258_);}
	.st352{fill:url(#SVGID_259_);}
	.st353{fill:url(#SVGID_260_);}
	.st354{fill:url(#SVGID_261_);}
	.st355{fill:url(#SVGID_262_);}
	.st356{fill:url(#SVGID_265_);}
	.st357{fill:url(#SVGID_266_);}
	.st358{fill:url(#SVGID_267_);}
	.st359{fill:url(#SVGID_268_);}
	.st360{clip-path:url(#SVGID_276_);}
	.st361{clip-path:url(#SVGID_280_);}
	.st362{clip-path:url(#SVGID_282_);}
	.st363{fill:url(#SVGID_283_);}
	.st364{fill:url(#SVGID_284_);}
	.st365{fill:url(#SVGID_285_);}
	.st366{fill:url(#SVGID_286_);}
	.st367{fill:none;stroke:#008891;stroke-width:2;stroke-miterlimit:10;stroke-dasharray:6.0089,7.0104;}
	.st368{clip-path:url(#SVGID_290_);fill:#FFFFFF;}
	.st369{clip-path:url(#SVGID_290_);}
	.st370{clip-path:url(#SVGID_294_);fill:#FFFFFF;}
	.st371{clip-path:url(#SVGID_294_);}
	.st372{fill:none;stroke:#008891;stroke-miterlimit:10;}
	.st373{opacity:0.08;fill:#FFFFFF;}
	.st374{fill:none;stroke:#4A2519;stroke-width:0.7;stroke-miterlimit:10;stroke-dasharray:6,7;}
	.st375{fill:none;stroke:#FF7602;stroke-miterlimit:10;}
	.st376{fill:url(#SVGID_297_);}
	.st377{fill:url(#SVGID_298_);}
	.st378{fill:url(#SVGID_299_);}
	.st379{fill:url(#SVGID_300_);}
	.st380{enable-background:new    ;}
	.st381{fill:#00D6D4;}
	.st382{fill:url(#SVGID_301_);}
	.st383{fill:#00465B;}
	.st384{fill:#008186;}
	.st385{fill:url(#SVGID_304_);}
	.st386{fill:url(#SVGID_305_);}
	.st387{fill:url(#SVGID_306_);}
	.st388{fill:url(#SVGID_307_);}
	.st389{fill:#686868;}
	.st390{fill:#939393;}
	.st391{fill:#838383;}
	.st392{fill:#A5A5A5;}
	.st393{fill:#E8E8E8;}
	.st394{fill:#FF7602;}
	.st395{fill:#3772BB;}
	.st396{clip-path:url(#SVGID_315_);}
	.st397{fill:#60CB86;}
	.st398{fill:none;stroke:#534741;stroke-miterlimit:10;}
	.st399{opacity:0.2;fill:#1B233C;enable-background:new    ;}
	.st400{clip-path:url(#SVGID_317_);}
	.st401{fill:#C1936A;}
	.st402{fill:#2D2100;}
	.st403{opacity:0.16;enable-background:new    ;}
	.st404{fill:#FFD297;}
	.st405{clip-path:url(#SVGID_319_);}
	.st406{clip-path:url(#SVGID_321_);}
	.st407{fill:url(#SVGID_322_);}
	.st408{clip-path:url(#SVGID_324_);}
	.st409{clip-path:url(#SVGID_326_);}
	.st410{fill:#676767;}
	.st411{opacity:0.2;}
	.st412{opacity:0.2;fill:#676767;}
	.st413{opacity:0.2;fill:none;stroke:#676767;stroke-width:3.0697;stroke-miterlimit:10;}
	.st414{opacity:0.2;fill:#A3A3A3;}
	.st415{fill:#707070;}
	.st416{fill:#616161;}
	.st417{fill:#7F7F7F;}
	.st418{opacity:0.2;fill:none;stroke:#A3A3A3;stroke-width:25;stroke-miterlimit:10;}
	.st419{fill-rule:evenodd;clip-rule:evenodd;fill:#797979;}
	.st420{fill-rule:evenodd;clip-rule:evenodd;fill:#FFFFFF;}
	.st421{fill-rule:evenodd;clip-rule:evenodd;fill:#6C6C6C;}
	.st422{fill-rule:evenodd;clip-rule:evenodd;fill:#9F9F9F;}
	.st423{fill-rule:evenodd;clip-rule:evenodd;fill:#4B4B4B;}
	.st424{fill-rule:evenodd;clip-rule:evenodd;fill:#848484;}
	.st425{fill-rule:evenodd;clip-rule:evenodd;fill:#EAEAEA;}
	.st426{fill-rule:evenodd;clip-rule:evenodd;fill:#CBCBCB;}
	.st427{opacity:0.2;fill:#707070;}
	.st428{fill:#D0D0D0;}
	.st429{fill:#BFBFBF;}
	.st430{opacity:0.05;}
	.st431{fill:#9D9D9D;}
	.st432{fill:#858585;}
	.st433{fill:#8D8D8D;}
</style>
<g id="BACKGROUND">
</g>
<g id="OBJECTS">
</g>
<g id="DESIGNED_BY_FREEPIK">
	<g class="st411">
		<rect x="1883.04" y="585.58" class="st410" width="21.56" height="89.89"/>
		<rect x="1766.59" y="585.58" class="st410" width="21.56" height="89.89"/>
		<rect x="1769.68" y="581" class="st410" width="15.38" height="85.53"/>
		<rect x="1850.16" y="628.73" class="st410" width="37.26" height="46.74"/>
		<rect x="1834.13" y="638.22" class="st410" width="37.26" height="37.26"/>
		<rect x="1807.67" y="593.35" class="st410" width="39.01" height="82.12"/>
		<rect x="1812.09" y="581" class="st410" width="29.87" height="75.85"/>
		<rect x="1786.37" y="600.29" class="st410" width="29.87" height="75.01"/>
		<rect x="1817.56" y="567.77" class="st410" width="16.57" height="75.85"/>
		<rect x="1721.06" y="625.25" class="st410" width="48.62" height="50.22"/>
		<rect x="1699.45" y="628.91" class="st410" width="37.24" height="46.39"/>
		<rect x="1733.39" y="609.6" class="st410" width="20.65" height="46.39"/>
		<rect x="1690.62" y="564.12" class="st410" width="20.65" height="111.18"/>
		<rect x="1897.62" y="645.24" class="st410" width="33.74" height="30.4"/>
		<rect x="1914.49" y="624.59" class="st410" width="4.6" height="25.38"/>
		<rect x="1922.41" y="618.22" class="st410" width="17.33" height="57.42"/>
		<rect x="1628.71" y="649.97" class="st410" width="73.8" height="16.56"/>
		<rect x="1637.47" y="638.65" class="st410" width="53.15" height="16.56"/>
	</g>
	<path class="st412" d="M2004.9-21.85l-157.04,128.61c0,0,154.17,161.82,158.22,150.35C2010.13,245.65,2004.9-21.85,2004.9-21.85z"
		/>
	<g class="st411">
		<g>
			<g>
				<g>
					<polygon class="st410" points="1735.59,3.88 1736.42,0.06 1774.92,8.48 1774.16,11.92 					"/>
				</g>
				<g>
					<path class="st410" d="M1734.82,7.71c0.24-1.28,0.48-2.56,0.77-3.83l38.57,8.04c-0.26,1.14-0.47,2.3-0.69,3.45L1734.82,7.71z"
						/>
					<polygon class="st410" points="1731.77,25.08 1732.39,21.23 1771.29,27.55 1770.72,31.02 					"/>
					<polygon class="st410" points="1729.52,42.58 1729.93,38.7 1769.07,43.29 1768.69,46.79 					"/>
					<path class="st410" d="M1728,60.15c0.06-1.3,0.17-2.6,0.27-3.89l39.3,2.86c-0.1,1.17-0.2,2.34-0.25,3.51L1728,60.15z"/>
					<polygon class="st410" points="1727.29,77.78 1727.39,73.88 1766.78,75 1766.69,78.52 					"/>
					<polygon class="st410" points="1727.36,95.41 1727.25,91.51 1766.65,90.9 1766.75,94.42 					"/>
					<path class="st410" d="M1728.17,113.03c-0.12-1.29-0.15-2.6-0.23-3.89l39.33-2.33c0.07,1.17,0.1,2.34,0.21,3.51L1728.17,113.03
						z"/>
					<polygon class="st410" points="1729.78,130.58 1729.37,126.7 1768.56,122.65 1768.93,126.15 					"/>
					<polygon class="st410" points="1732.15,148.05 1731.54,144.2 1770.51,138.44 1771.07,141.91 					"/>
					<path class="st410" d="M1735.25,165.41c-0.26-1.27-0.49-2.55-0.73-3.83l38.69-7.46c0.22,1.15,0.42,2.31,0.66,3.46
						L1735.25,165.41z"/>
				</g>
				<g>
					<polygon class="st410" points="1736.08,169.22 1735.25,165.41 1773.87,157.57 1774.61,161.01 					"/>
					<path class="st410" d="M1740.1,186.39c-0.34-1.25-0.63-2.52-0.94-3.79l38.23-9.52c0.28,1.14,0.54,2.28,0.85,3.42L1740.1,186.39
						z"/>
					<polygon class="st410" points="1744.92,203.35 1743.79,199.61 1781.58,188.43 1782.59,191.8 					"/>
					<polygon class="st410" points="1750.46,220.09 1749.14,216.42 1786.39,203.59 1787.59,206.9 					"/>
					<polygon class="st410" points="1756.7,236.59 1755.27,232.95 1791.93,218.5 1793.21,221.78 					"/>
					<polygon class="st410" points="1763.71,252.77 1762.1,249.22 1798.08,233.16 1799.53,236.37 					"/>
					<path class="st410" d="M1771.4,268.64c-0.59-1.16-1.22-2.3-1.78-3.47l35.24-17.62c0.51,1.06,1.07,2.08,1.61,3.13L1771.4,268.64
						z"/>
					<polygon class="st410" points="1779.78,284.17 1777.88,280.76 1812.31,261.59 1814.01,264.67 					"/>
					<polygon class="st410" points="1788.87,299.29 1786.8,295.99 1820.34,275.31 1822.21,278.29 					"/>
					<path class="st410" d="M1798.6,314.02c-0.76-1.06-1.5-2.13-2.21-3.22l32.59-22.15c0.64,0.98,1.31,1.95,1.99,2.9L1798.6,314.02z
						"/>
				</g>
				<g>
					<polygon class="st410" points="1800.85,317.2 1798.6,314.02 1830.97,291.55 1833,294.42 					"/>
					<path class="st410" d="M1811.37,331.38c-0.82-1.01-1.61-2.05-2.38-3.09l31.33-23.89c0.7,0.94,1.41,1.88,2.14,2.79
						L1811.37,331.38z"/>
					<polygon class="st410" points="1822.52,345.06 1820.01,342.07 1850.24,316.8 1852.5,319.49 					"/>
					<polygon class="st410" points="1834.28,358.22 1831.61,355.38 1860.68,328.78 1863.09,331.34 					"/>
					<polygon class="st410" points="1846.58,370.88 1843.83,368.11 1871.68,340.24 1874.16,342.74 					"/>
					<polygon class="st410" points="1859.48,382.92 1856.58,380.31 1883.16,351.23 1885.78,353.58 					"/>
					<path class="st410" d="M1872.86,394.42c-1.02-0.8-2.01-1.66-3-2.5l25.27-30.23c0.9,0.76,1.78,1.53,2.7,2.25L1872.86,394.42z"/>
					<polygon class="st410" points="1886.76,405.28 1883.65,402.93 1907.56,371.61 1910.36,373.73 					"/>
					<path class="st410" d="M1901.1,415.54c-1.08-0.72-2.17-1.44-3.22-2.21l22.51-32.34c0.95,0.69,1.93,1.34,2.9,1.99L1901.1,415.54
						z"/>
					<polygon class="st410" points="1915.88,425.14 1912.58,423.07 1933.66,389.78 1936.64,391.66 					"/>
				</g>
				<g>
					<path class="st410" d="M1919.19,427.2c-1.12-0.65-2.21-1.37-3.31-2.06l20.77-33.48c1,0.62,1.97,1.27,2.99,1.86L1919.19,427.2z"
						/>
					
						<rect x="1922.59" y="416.03" transform="matrix(0.4962 -0.8682 0.8682 0.4962 615.7689 1896.8927)" class="st410" width="39.4" height="3.71"/>
					
						<rect x="1937.15" y="424.35" transform="matrix(0.4963 -0.8682 0.8682 0.4963 615.7092 1913.5747)" class="st410" width="39.4" height="3.71"/>
					
						<rect x="1951.71" y="432.68" transform="matrix(0.4963 -0.8681 0.8681 0.4963 615.7207 1930.3197)" class="st410" width="39.4" height="3.71"/>
					
						<rect x="1966.27" y="441" transform="matrix(0.4962 -0.8682 0.8682 0.4962 616.0013 1947.3087)" class="st410" width="39.4" height="3.71"/>
					
						<rect x="1980.83" y="449.32" transform="matrix(0.4963 -0.8682 0.8682 0.4963 616.037 1964.0751)" class="st410" width="39.4" height="3.71"/>
				</g>
			</g>
		</g>
	</g>
	<path class="st413" d="M1935.21-251.54l-77.54,90.89c-154.52,181.12-106.23,458.1,100.47,576.24l122.11,69.79"/>
	<path class="st413" d="M1901-249.53l-77.54,90.89c-154.52,181.12-106.23,458.1,100.47,576.24l122.11,69.79"/>
	<path class="st414" d="M1710.33,347.74l-69.53-66.37c-21.11-20.15-46.96-22.72-69.45-6.91l-68.74,48.32l-8.06-4.75
		c-20.05-11.82-45.25-10.4-63.85,3.6l-32.39,24.36L1710.33,347.74z"/>
	<g class="st411">
		<path class="st415" d="M5.85,301.81h4.4v7.54c0,5.37,4.36,9.73,9.73,9.73c4.81,0,8.8-3.5,9.58-8.09
			c-0.01,0.19-0.03,0.38-0.03,0.57v40.07c-0.86-4.5-4.8-7.9-9.55-7.9c-5.37,0-9.73,4.36-9.73,9.73v17.01h-4.4
			c-3.33,0-6.04-2.2-6.04-4.92v-58.83C-0.19,304.01,2.52,301.81,5.85,301.81z"/>
		<path class="st416" d="M29.68,293.17c-0.02,0.36-0.06,0.72-0.12,1.07C29.58,293.88,29.62,293.52,29.68,293.17z"/>
		<path class="st415" d="M29.71,353.73h4.4c3.33,0,6.04-2.2,6.04-4.92v-58.83c0-2.01-1.48-3.74-3.6-4.5
			c0.86-0.25,1.77-0.39,2.71-0.39H158.7c5.37,0,9.73,4.36,9.73,9.73v111.43c0,5.37-4.36,9.73-9.73,9.73H39.26
			c-5.37,0-9.73-4.36-9.73-9.73v-71.35c0.11,0.59,0.18,1.2,0.18,1.83V353.73z"/>
		<path class="st415" d="M29.56,294.24c0.06-0.35,0.1-0.71,0.12-1.07c0.63-3.69,3.33-6.67,6.87-7.69c2.12,0.76,3.6,2.49,3.6,4.5
			v58.83c0,2.72-2.7,4.92-6.04,4.92h-4.4v-17.01c0-0.63-0.06-1.24-0.18-1.83v-40.07C29.53,294.62,29.55,294.43,29.56,294.24z"/>
	</g>
	<g class="st411">
		<path class="st390" d="M80.2,390.76c0,5.23,4.24,9.46,9.46,9.46h53.09c5.23,0,9.46-4.24,9.46-9.46V309c0-5.23-4.24-9.46-9.46-9.46
			H89.67c-5.23,0-9.46,4.24-9.46,9.46V390.76z"/>
		<rect x="112.63" y="299.54" class="st417" width="7.15" height="100.69"/>
	</g>
	<path class="st414" d="M291.87,375.15l65.88-39.12c20-11.88,44.5-13.39,65.81-4.07l65.13,28.48l39.02-14.3l59.8,19.68
		L291.87,375.15z"/>
	<g id="Roke5g.tif" class="st411">
		<g>
			<path class="st410" d="M291.06,167.33c-14.18-0.02-28.36-0.04-42.54-0.04c-23.44-0.01-46.89-0.04-70.33,0.01
				c-71.51,0.13-143.03,0.3-214.54,0.43c-3.82,0.01-7.64-10.09-11.47-10.1c-3.25-0.01-6.5,0.36-9.76,0.39
				c-2.25,0.02-4.51-0.42-6.76-0.4c-9.17,0.09-18.33,0.36-27.5,0.4c-4.98,0.02-9.96-0.4-14.94-0.39c-6.25,0.01-12.49,0.3-18.73,0.41
				c-3.53,0.06-7.06,0.01-10.76,0.01c0-2.06,0-3.58,0-5.2c0.94-0.74,3.56,0.95,2.81-2.23c1.15-0.06,2.06-0.11,3.09-0.17
				c0.15-0.78,0.29-1.54,0.47-2.53c3.12,0,6.23,0,9.55,0c0-3.39,0-6.56,0-9.88c3.38,0,6.53,0,9.85,0c0,4.1,0,8.1,0,11.49
				c1.17,1.13,1.97,1.89,3.14,3.01c1.64,0,3.9,0,6.46,0c0-4.87,0-9.66,0-14.54c1.72,0,3.12,0,4.87,0c0,3.12,0,6.21,0,9.31
				c0,1.34-0.06,2.69,0.04,4.02c0.03,0.45,0.49,0.86,0.75,1.29c0.33-0.45,0.87-0.86,0.95-1.35c0.15-1,0.04-2.04,0.04-3.3
				c2.35,0,4.46,0,6.72,0c0.08-1.39,0.14-2.55,0.21-3.87c5.5,0,10.94,0,16.59,0c0,2.8,0,5.52,0,8.39c3.51,0,6.81,0,10.29,0
				c0-4.33,0-8.55,0-13.06c2.75,0,5.34,0,8.16,0c0-5.45,0-10.62,0-16.01c4.06,0,7.88,0,11.94,0c0-6.21,0-12.2,0-18.33
				c1.2-0.09,2.17-0.16,3.37-0.26c0-1.81,0-3.63,0-5.67c1.45-0.09,2.69-0.17,4.17-0.27c0-2.33,0-4.6,0-7.19c1.82,0,3.4,0,5.2,0
				c0-6.39,0-12.47,0-18.54c0.2-0.01,0.4-0.01,0.6-0.02c0,6.05,0,12.1,0,18.39c1.89,0,3.42,0,5.27,0c0,2.55,0,4.88,0,7.42
				c1.49,0,2.67,0,4.1,0c0,2.03,0,3.85,0,5.83c1.2,0.09,2.16,0.17,3.4,0.26c0,2.7,0,5.41,0,8.31c5.62,0,10.98,0,16.56,0
				c0-8.98,0-17.88,0-26.87c0.97-0.12,1.73-0.22,2.72-0.35c0-1.58,0-3.19,0-4.95c1-0.17,1.81-0.3,2.7-0.45
				c0.1-0.74,0.2-1.46,0.31-2.26c3.86-0.34,1.05-3.71,2.39-5.46c1,0,2.17,0,3.25,0c1.23,1.68-1.21,4.74,2.26,5.52
				c0.07,0.6,0.14,1.31,0.24,2.19c0.8,0.12,1.62,0.24,2.73,0.41c0,1.63,0,3.29,0,5c0.98,0.11,1.67,0.19,2.66,0.3
				c0,14.54,0,29.07,0,43.73c6.03,0,11.76,0,17.76,0c0-1.71,0-3.31,0-5.11c7.93,0,15.59,0,23.51,0c0-3.59,0-6.97,0-10.58
				c2.79,0,5.32,0,8.1,0c0-12.49,0-24.73,0-37.19c4.07,0,7.88,0,11.94,0c0-14.39,0-28.57,0-42.9c1.2-0.1,2.16-0.18,3.38-0.28
				c0-4.61,0-9.18,0-13.9c6.57,0,12.87,0,19.42,0c0,4.55,0,9.13,0,13.88c1.2,0.1,2.17,0.17,3.38,0.27c0,4.98,0,9.93,0,15.12
				c6.54,0,12.84,0,19.35,0c0,16.6,0,32.94,0,49.55c8.14,0,16.08,0,24.29,0c0,8.76,0,17.28,0,26c7.23,0,14.18,0,21.39,0
				c0,9.25,0,18.3,0,27.5c0.85,0.05,1.45,0.08,2.3,0.13c0-25.14,0-50.12,0-75.24c1.33-0.1,2.44-0.18,3.78-0.28c0-1.81,0-3.55,0-5.38
				c0.99-0.12,1.75-0.21,2.64-0.32c0.1-0.73,0.2-1.44,0.32-2.27c0.55-0.16,1.14-0.34,1.91-0.57c0-1.59,0-3.2,0-4.93
				c1.37,0,2.55,0,3.63,0c1.49,1.54-1.23,4.72,2.22,5.5c0.08,0.62,0.18,1.33,0.29,2.19c0.82,0.12,1.63,0.25,2.68,0.41
				c0,1.73,0,3.47,0,5.35c1.33,0.1,2.43,0.18,3.79,0.27c0,25.05,0,50.03,0,75.14c1.72,0,3.17,0,4.81,0c0-5.68,0-11.24,0-16.99
				c1.62,0,3.06,0,4.82,0c0,3.51,0,7.05,0,10.6c0,1.71-0.07,3.43,0.05,5.14c0.03,0.47,0.61,0.9,0.94,1.36
				c0.26-0.43,0.73-0.85,0.75-1.29c0.09-1.84,0.04-3.69,0.04-5.81c2.3,0,4.4,0,6.7,0c0-12.52,0-24.78,0-37.17
				c5.67,0,11.12,0,16.91,0c0,12.3,0,24.61,0,37.03c3.5,0,6.67,0,10.1,0c0-2.79,0-5.51,0-8.48c2.84,0,5.44,0,8.34,0
				c0-5.41,0-10.57,0-15.96c2.63,0,4.96,0,7.29,0c4.74,0,4.74,0,4.74-5.07c0-4.39,0-8.77,0-13.3c1.04-0.1,1.94-0.19,3.17-0.31
				c0-1.85,0-3.73,0-5.7c6.58,0,12.83,0,19.33,0c0,1.84,0,3.67,0,5.66c1.19,0.11,2.16,0.2,3.5,0.32c0,0.83,0,1.69,0,2.54
				c0,15.12,0.02,30.24-0.03,45.36c0,1.49,0.19,2.48,1.88,2.3C291.06,154.35,291.06,165.69,291.06,167.33z"/>
		</g>
	</g>
	<path class="st418" d="M1593.3,593.35c0,0-380.28,148.62-745.88-175.7c-150.73-133.71-277.46-235.2-506.76-220.89"/>
	<circle class="st414" cx="331.59" cy="196.77" r="26.34"/>
	<circle class="st414" cx="1610.13" cy="586.59" r="26.34"/>
	<g class="st411">
		<g>
			<path class="st419" d="M470.15,154.43c-3.41-0.94-5.54-4.05-4.75-6.92c0.79-2.87,4.22-4.45,7.62-3.51
				c3.41,0.94,5.54,4.05,4.75,6.92C476.99,153.8,473.56,155.37,470.15,154.43z"/>
			<path class="st420" d="M605.83,206.79l-135.56-37.33c-3.3-0.91-5.25-4.35-4.34-7.65l14.11-51.23c0.91-3.3,4.35-5.25,7.65-4.34
				l135.56,37.33c3.3,0.91,5.25,4.35,4.34,7.65l-14.11,51.23C612.57,205.75,609.13,207.7,605.83,206.79z"/>
			<path class="st421" d="M605.46,206.69l-134.81-37.12c-3.5-0.96-5.58-4.62-4.62-8.13l0.96-3.48l147.55,40.63l-0.96,3.48
				C612.62,205.58,608.96,207.66,605.46,206.69z"/>
			<path class="st421" d="M598.13,204.67l-42-11.57c-0.46-0.13-0.9-0.3-1.31-0.52c3.36-11.88,15.68-18.85,27.61-15.56
				C594.39,180.32,601.43,192.7,598.13,204.67z"/>
			<path class="st422" d="M620.03,178.68l-18.5-5.09c-1.49-0.41-2.43-1.77-2.08-3.03l5.37-19.5c0.35-1.26,1.85-1.95,3.34-1.54
				l18.5,5.09L620.03,178.68z"/>
			<path class="st422" d="M591.56,170.84l-42.6-11.73c-1.49-0.41-2.43-1.77-2.08-3.03l5.37-19.5c0.35-1.26,1.85-1.95,3.34-1.54
				l42.6,11.73c1.49,0.41,2.43,1.77,2.08,3.03l-5.37,19.5C594.55,170.55,593.05,171.25,591.56,170.84z"/>
			<path class="st422" d="M538.99,156.36l-42.6-11.73c-1.49-0.41-2.43-1.77-2.08-3.03l5.37-19.5c0.35-1.26,1.85-1.95,3.34-1.54
				l42.6,11.73c1.49,0.41,2.43,1.77,2.08,3.03l-5.37,19.5C541.98,156.08,540.48,156.77,538.99,156.36z"/>
			<path class="st422" d="M486.42,141.88l-13.94-3.84l6.63-24.06l13.94,3.84c1.49,0.41,2.42,1.77,2.08,3.03l-5.37,19.5
				C489.41,141.6,487.91,142.29,486.42,141.88z"/>
			<path class="st421" d="M515.47,181.91l-42-11.57c-0.46-0.13-0.9-0.3-1.31-0.52c3.36-11.88,15.68-18.85,27.61-15.56
				C511.73,157.56,518.77,169.94,515.47,181.91z"/>
			<path class="st423" d="M498.01,160.64c-8.45-2.33-17.19,2.64-19.52,11.09c-2.33,8.45,2.64,17.19,11.09,19.52
				c8.45,2.33,17.19-2.64,19.52-11.09C511.43,171.7,506.46,162.96,498.01,160.64z"/>
			<path class="st424" d="M495.56,169.52c-3.54-0.98-7.21,1.11-8.19,4.65c-0.98,3.54,1.11,7.21,4.65,8.19
				c3.54,0.98,7.21-1.11,8.19-4.65C501.19,174.16,499.1,170.5,495.56,169.52z"/>
			<path class="st423" d="M580.67,183.4c-8.45-2.33-17.19,2.64-19.52,11.09c-2.33,8.45,2.64,17.19,11.09,19.52
				s17.19-2.64,19.52-11.09C594.09,194.47,589.12,185.73,580.67,183.4z"/>
			<path class="st424" d="M578.22,192.29c-3.54-0.98-7.21,1.11-8.19,4.65c-0.98,3.54,1.11,7.21,4.65,8.19
				c3.54,0.98,7.21-1.11,8.19-4.65C583.85,196.93,581.76,193.26,578.22,192.29z"/>
			<path class="st420" d="M474.76,156.6l-10.83-2.98c-1.77-0.49-3.61,0.56-4.1,2.33l0,0c-0.49,1.77,0.56,3.61,2.33,4.1l10.83,2.98
				c1.77,0.49,3.61-0.56,4.1-2.33l0,0C477.58,158.94,476.53,157.09,474.76,156.6z"/>
			<path class="st425" d="M619.3,181.3l-2.52-0.69c-1-0.28-2.01,0.19-2.25,1.03l-2.22,8.06c-0.23,0.85,0.4,1.76,1.4,2.04l2.52,0.69
				L619.3,181.3z"/>
			<g>
				<polygon class="st426" points="614.99,151.4 622.77,168.71 624.46,162.59 620.05,152.8 				"/>
				<polygon class="st426" points="621.78,153.27 625.03,160.51 626.07,156.73 624.9,154.13 				"/>
				<polygon class="st426" points="610.14,150.07 621.16,174.57 622.2,170.79 613.26,150.93 				"/>
			</g>
			<g>
				<polygon class="st426" points="564.39,137.47 577.69,167.02 582.75,168.41 569.46,138.86 				"/>
				<polygon class="st426" points="571.18,139.34 584.47,168.89 587.6,169.75 574.31,140.2 				"/>
				<polygon class="st426" points="559.54,136.13 572.83,165.68 575.96,166.54 562.67,137 				"/>
			</g>
			<g>
				<polygon class="st426" points="511.87,123.01 525.16,152.55 530.22,153.95 516.93,124.4 				"/>
				<polygon class="st426" points="518.66,124.87 531.95,154.42 535.08,155.28 521.78,125.74 				"/>
				<polygon class="st426" points="507.02,121.67 520.31,151.22 523.43,152.08 510.14,122.53 				"/>
			</g>
			<g>
				<polygon class="st426" points="473.01,136.12 474.08,138.49 479.14,139.88 474.7,130 				"/>
				<polygon class="st426" points="475.27,127.92 480.86,140.35 483.99,141.22 476.31,124.14 				"/>
			</g>
			<path class="st425" d="M613.88,179.03c1.39,0.38,2.81-0.37,3.17-1.68l1.96-7.13c0.36-1.3-0.48-2.68-1.87-3.07L613.88,179.03z"/>
			
				<rect x="608.73" y="172.27" transform="matrix(0.2655 -0.9641 0.9641 0.2655 284.9175 719.8325)" class="st420" width="12.31" height="1.31"/>
			<path class="st420" d="M617.51,194.36l-11.4-3.14c-1.86-0.51-3.8,0.59-4.32,2.45l0,0c-0.51,1.86,0.59,3.8,2.45,4.32l11.4,3.14
				c1.86,0.51,3.8-0.59,4.31-2.45l0,0C620.47,196.81,619.37,194.87,617.51,194.36z"/>
		</g>
	</g>
	<path class="st427" d="M325.2,724.83l0.01-66.88c0-63.42-51.43-114.63-114.85-114.63H0.53v50.3h209.83
		c17.28,0,33.5,6.69,45.69,18.85c12.16,12.13,18.86,28.28,18.86,45.47l-0.01,66.89"/>
	<path class="st231" d="M297.68,722.25c0,0.52,0.42,0.95,0.95,0.95c0.52,0,0.95-0.42,0.95-0.95l0-7.59c0-0.52-0.42-0.95-0.95-0.95
		c-0.52,0-0.95,0.42-0.95,0.95L297.68,722.25L297.68,722.25z M297.68,698.52c0,0.52,0.42,0.95,0.95,0.95c0.52,0,0.95-0.42,0.95-0.95
		l0-0.51c0-1.7,0-7.08,0-7.08c0-0.52-0.42-0.95-0.95-0.95c-0.52,0-0.95,0.42-0.95,0.95L297.68,698.52L297.68,698.52z M297.69,674.79
		c0,0.52,0.42,0.95,0.95,0.95c0.52,0,0.95-0.42,0.95-0.95l0-1.87c0-2.25,0-5.73,0-5.73c0-0.52-0.42-0.95-0.95-0.95
		c-0.52,0-0.95,0.42-0.95,0.95L297.69,674.79L297.69,674.79z M296.13,643.72c0,0.05,0,0.11,0.01,0.16c0.41,2.42,0.74,4.91,0.98,7.4
		c0.05,0.52,0.52,0.9,1.04,0.85c0.49-0.05,0.86-0.46,0.86-0.94c0-0.03,0-0.06,0-0.09c-0.25-2.55-0.58-5.06-1-7.53
		c-0.09-0.52-0.58-0.86-1.09-0.78C296.46,642.86,296.13,643.26,296.13,643.72L296.13,643.72z M289.58,621.21
		c0,0.13,0.02,0.25,0.08,0.38c0.97,2.25,1.86,4.59,2.66,6.95c0.17,0.5,0.71,0.76,1.2,0.6c0.4-0.13,0.65-0.5,0.65-0.9
		c0-0.1-0.02-0.2-0.05-0.3c-0.01-0.03-0.02-0.06-0.03-0.09c0-0.01-0.01-0.02-0.01-0.03c0-0.01-0.01-0.02-0.01-0.03
		c0-0.01-0.01-0.02-0.01-0.04c0-0.01-0.01-0.02-0.01-0.03c-0.01-0.02-0.01-0.03-0.02-0.05c0-0.01,0-0.01-0.01-0.02
		c-0.01-0.02-0.01-0.04-0.02-0.07c0,0,0,0,0,0c-0.01-0.02-0.01-0.04-0.02-0.06c0,0,0-0.01,0-0.01c-0.01-0.02-0.01-0.04-0.02-0.06
		c0,0,0-0.01,0-0.01c-0.75-2.18-1.57-4.32-2.47-6.41c0,0,0,0,0,0c-0.01-0.02-0.02-0.04-0.03-0.06c0,0,0,0,0,0
		c-0.02-0.04-0.04-0.09-0.06-0.13c-0.21-0.48-0.77-0.7-1.25-0.49C289.8,620.49,289.58,620.84,289.58,621.21L289.58,621.21z
		 M277.52,601.17c0,0.21,0.07,0.42,0.21,0.6c1.55,1.91,3.03,3.92,4.4,5.97c0.29,0.44,0.88,0.55,1.32,0.26
		c0.27-0.18,0.42-0.48,0.42-0.79c0-0.18-0.05-0.36-0.16-0.52c-1.42-2.11-2.92-4.15-4.51-6.12c-0.33-0.41-0.93-0.47-1.33-0.14
		C277.64,600.62,277.52,600.89,277.52,601.17L277.52,601.17z M260.38,585.26c0,0.3,0.14,0.6,0.41,0.78c2.03,1.42,4.02,2.93,5.9,4.51
		c0.4,0.34,1,0.28,1.34-0.12c0.15-0.18,0.22-0.39,0.22-0.61c0-0.27-0.12-0.54-0.34-0.73c-1.93-1.61-3.94-3.15-6.03-4.61
		c-0.43-0.3-1.02-0.19-1.32,0.24C260.44,584.88,260.38,585.07,260.38,585.26L260.38,585.26z M239.58,574.5
		c0,0.39,0.24,0.75,0.62,0.89c2.34,0.86,4.66,1.82,6.88,2.84c0.48,0.22,1.04,0.01,1.26-0.47c0.06-0.13,0.09-0.26,0.09-0.4
		c0-0.36-0.2-0.7-0.55-0.86c-0.06-0.03-0.12-0.06-0.18-0.08c0,0,0,0-0.01,0c-0.02-0.01-0.04-0.02-0.06-0.03c0,0-0.01,0-0.01,0
		c-0.04-0.02-0.09-0.04-0.13-0.06c0,0-0.01,0-0.01-0.01c-0.02-0.01-0.03-0.01-0.05-0.02c-0.01,0-0.01-0.01-0.02-0.01
		c-0.02-0.01-0.03-0.01-0.05-0.02c-0.01,0-0.01-0.01-0.02-0.01c-0.02-0.01-0.04-0.02-0.06-0.03c-0.01,0-0.02-0.01-0.02-0.01
		c-0.01-0.01-0.02-0.01-0.04-0.02c-0.01,0-0.02-0.01-0.03-0.01c-0.01,0-0.02-0.01-0.03-0.01c-0.01,0-0.02-0.01-0.03-0.01
		c-0.01,0-0.02-0.01-0.03-0.01c-0.02-0.01-0.04-0.02-0.06-0.03c-0.01,0-0.02-0.01-0.02-0.01c-0.01-0.01-0.03-0.01-0.04-0.02
		c-0.01,0-0.01-0.01-0.02-0.01c-0.01-0.01-0.03-0.01-0.04-0.02c0,0-0.01,0-0.01-0.01c-0.03-0.01-0.06-0.03-0.09-0.04l0,0
		c-0.02-0.01-0.03-0.01-0.05-0.02c0,0-0.01,0-0.01-0.01c-0.02-0.01-0.03-0.01-0.05-0.02c0,0,0,0-0.01,0
		c-0.05-0.02-0.1-0.05-0.16-0.07l0,0c-0.02-0.01-0.04-0.02-0.05-0.02l0,0c-1-0.44-2.02-0.87-3.05-1.28c0,0,0,0,0,0
		c-0.07-0.03-0.14-0.06-0.21-0.09c-0.01,0-0.01,0-0.01,0c-0.02-0.01-0.03-0.01-0.05-0.02l0,0c-0.05-0.02-0.1-0.04-0.15-0.06
		c-0.01,0-0.01,0-0.02-0.01c-0.01-0.01-0.03-0.01-0.04-0.02c-0.01,0-0.01-0.01-0.02-0.01c-0.04-0.02-0.09-0.03-0.13-0.05
		c-0.01,0-0.02-0.01-0.03-0.01c-0.01,0-0.02-0.01-0.04-0.01c-0.01,0-0.02-0.01-0.03-0.01c-0.01,0-0.02-0.01-0.03-0.01
		c-0.01-0.01-0.03-0.01-0.05-0.02c-0.01,0-0.02-0.01-0.04-0.01c-0.02-0.01-0.02-0.01-0.04-0.02c-0.01,0-0.02-0.01-0.03-0.01
		c-0.01,0-0.02-0.01-0.04-0.01c-0.01,0-0.02-0.01-0.03-0.01c-0.02-0.01-0.03-0.01-0.05-0.02c0,0-0.01,0-0.01-0.01
		c-0.02-0.01-0.04-0.02-0.06-0.02c-0.01,0-0.01-0.01-0.02-0.01c-0.02-0.01-0.03-0.01-0.05-0.02c-0.01,0-0.01,0-0.02-0.01
		c-0.02-0.01-0.04-0.01-0.06-0.02c0,0-0.01,0-0.01,0c-0.02-0.01-0.04-0.02-0.07-0.03c0,0-0.01,0-0.01,0
		c-0.02-0.01-0.04-0.02-0.06-0.02c0,0-0.01,0-0.01-0.01c-0.02-0.01-0.04-0.02-0.06-0.02c0,0,0,0-0.01,0
		c-0.05-0.02-0.09-0.04-0.14-0.05c0,0,0,0,0,0c-0.31-0.12-0.62-0.23-0.94-0.35c-0.49-0.18-1.03,0.07-1.21,0.56
		C239.6,574.28,239.58,574.39,239.58,574.5L239.58,574.5z M216.79,568.84c0,0.46,0.34,0.87,0.82,0.94c2.49,0.35,4.96,0.78,7.36,1.28
		c0.51,0.11,1.02-0.22,1.12-0.74c0.01-0.06,0.02-0.13,0.02-0.19c0-0.44-0.31-0.83-0.75-0.93c-0.01,0-0.02,0-0.04-0.01c0,0,0,0,0,0
		c-0.05-0.01-0.1-0.02-0.16-0.03c0,0,0,0-0.01,0c-0.05-0.01-0.1-0.02-0.16-0.03c0,0,0,0,0,0c-0.08-0.02-0.16-0.03-0.24-0.05
		c0,0,0,0,0,0c-2.25-0.45-4.53-0.84-6.87-1.18c-0.52-0.07-1,0.29-1.07,0.81C216.8,568.75,216.79,568.8,216.79,568.84L216.79,568.84z
		 M193.26,567.52c0,0.52,0.42,0.95,0.95,0.95h4.21c1.12,0,2.24,0.01,3.35,0.04c0.52,0.01,0.96-0.4,0.97-0.93c0-0.01,0-0.01,0-0.02
		c0-0.51-0.41-0.94-0.93-0.95c-0.7-0.02-1.4-0.03-2.11-0.03c-0.01,0-0.01,0-0.02,0c-0.03,0-0.05,0-0.08,0c-0.01,0-0.02,0-0.03,0
		c-0.02,0-0.04,0-0.07,0c-0.01,0-0.03,0-0.04,0c-0.01,0-0.03,0-0.04,0c-0.02,0-0.04,0-0.06,0c-0.01,0-0.02,0-0.04,0
		c-0.02,0-0.04,0-0.06,0c-0.01,0-0.02,0-0.03,0c-0.02,0-0.04,0-0.05,0c-0.01,0-0.02,0-0.03,0c-0.02,0-0.04,0-0.07,0
		c-0.01,0-0.02,0-0.02,0c-0.02,0-0.05,0-0.07,0c-0.01,0-0.02,0-0.02,0c-0.03,0-0.05,0-0.08,0c-0.01,0-0.01,0-0.02,0
		c-0.02,0-0.05,0-0.08,0c0,0-0.01,0-0.01,0c-0.03,0-0.06,0-0.08,0c0,0-0.01,0-0.01,0c-0.03,0-0.05,0-0.08,0c-0.01,0-0.01,0-0.02,0
		c-0.03,0-0.06,0-0.08,0c0,0-0.01,0-0.01,0c-0.03,0-0.06,0-0.09,0l0,0h-4.21C193.69,566.57,193.26,567,193.26,567.52L193.26,567.52z
		 M169.53,567.52c0,0.52,0.42,0.95,0.95,0.95h7.59c0.52,0,0.95-0.42,0.95-0.95c0-0.52-0.42-0.95-0.95-0.95h-7.59
		C169.96,566.57,169.53,567,169.53,567.52L169.53,567.52z M145.81,567.52c0,0.52,0.43,0.95,0.95,0.95h7.59
		c0.52,0,0.95-0.42,0.95-0.95c0-0.52-0.42-0.95-0.95-0.95h-7.59C146.23,566.57,145.81,567,145.81,567.52L145.81,567.52z
		 M122.08,567.52c0,0.52,0.43,0.95,0.95,0.95h7.59c0.52,0,0.95-0.42,0.95-0.95c0-0.52-0.42-0.95-0.95-0.95h-7.59
		C122.51,566.57,122.08,567,122.08,567.52L122.08,567.52z M98.36,567.52c0,0.52,0.43,0.95,0.95,0.95h7.59
		c0.52,0,0.95-0.42,0.95-0.95c0-0.52-0.42-0.95-0.95-0.95H99.3C98.78,566.57,98.36,567,98.36,567.52L98.36,567.52z M74.63,567.52
		c0,0.52,0.42,0.95,0.95,0.95h7.59c0.52,0,0.95-0.42,0.95-0.95c0-0.52-0.42-0.95-0.95-0.95h-7.59
		C75.05,566.57,74.63,567,74.63,567.52L74.63,567.52z M50.9,567.52c0,0.52,0.42,0.95,0.95,0.95h7.59c0.52,0,0.95-0.42,0.95-0.95
		c0-0.52-0.42-0.95-0.95-0.95h-7.59C51.33,566.57,50.9,567,50.9,567.52L50.9,567.52z M27.18,567.52c0,0.52,0.42,0.95,0.95,0.95h7.59
		c0.52,0,0.95-0.42,0.95-0.95c0-0.52-0.42-0.95-0.95-0.95h-7.59C27.6,566.57,27.18,567,27.18,567.52L27.18,567.52z M3.45,567.52
		c0,0.52,0.42,0.95,0.95,0.95h7.59c0.52,0,0.95-0.42,0.95-0.95c0-0.52-0.43-0.95-0.95-0.95H4.4C3.88,566.57,3.45,567,3.45,567.52
		L3.45,567.52z"/>
	<g class="st411">
		<path class="st428" d="M184.85,691.08c5.66,0,10.25-4.59,10.25-10.25v-57.5c0-5.66-4.59-10.25-10.25-10.25H49.05
			c-5.66,0-10.25,4.59-10.25,10.25v57.5c0,5.66,4.59,10.25,10.25,10.25H184.85z"/>
		<rect x="38.8" y="648.2" class="st429" width="156.31" height="7.75"/>
	</g>
	<path class="st414" d="M704.97,616.36l49.22-29.23c14.94-8.87,33.24-10.01,49.16-3.04l48.66,21.28l29.15-10.69l44.67,14.71
		L704.97,616.36z"/>
	<path class="st414" d="M795.44,647.57l49.22-29.23c14.94-8.87,33.24-10.01,49.16-3.04l48.66,21.28l29.15-10.69l44.67,14.71
		L795.44,647.57z"/>
	<path class="st414" d="M1227.51,468.85l49.22-29.23c14.94-8.87,33.24-10.01,49.16-3.04l48.66,21.28l29.15-10.69l44.67,14.71
		L1227.51,468.85z"/>
	<path class="st414" d="M1317.97,500.07l49.22-29.23c14.94-8.87,33.24-10.01,49.16-3.04l48.66,21.28l29.15-10.69l44.67,14.71
		L1317.97,500.07z"/>
	<g class="st430">
		<path class="st85" d="M1429.57,142.13c0,2.02-1.63,3.65-3.65,3.65h-26.71c-2.02,0-3.65-1.63-3.65-3.65l0,0
			c0-2.02,1.63-3.65,3.65-3.65h26.71C1427.94,138.48,1429.57,140.12,1429.57,142.13L1429.57,142.13z"/>
		<path class="st85" d="M1416.32,140.59c0,1.27-1.03,2.31-2.31,2.31h-2.88c-1.27,0-2.31-1.03-2.31-2.31v-19.21
			c0-1.27,1.03-2.31,2.31-2.31h2.88c1.27,0,2.31,1.03,2.31,2.31V140.59z"/>
		<circle class="st85" cx="1412.76" cy="108.65" r="18.83"/>
	</g>
	<g class="st430">
		<path class="st85" d="M1370.74,202.9c0,2.02-1.63,3.65-3.65,3.65h-26.71c-2.02,0-3.65-1.63-3.65-3.65l0,0
			c0-2.02,1.63-3.65,3.65-3.65h26.71C1369.11,199.25,1370.74,200.89,1370.74,202.9L1370.74,202.9z"/>
		<path class="st85" d="M1357.49,201.37c0,1.27-1.03,2.31-2.31,2.31h-2.88c-1.27,0-2.31-1.03-2.31-2.31v-19.21
			c0-1.27,1.03-2.31,2.31-2.31h2.88c1.27,0,2.31,1.03,2.31,2.31V201.37z"/>
		<ellipse class="st85" cx="1353.74" cy="165.29" rx="13.61" ry="22.96"/>
	</g>
	<g class="st430">
		<path class="st85" d="M1459.9,211.7c0,1.45-1.18,2.63-2.63,2.63h-19.25c-1.45,0-2.63-1.18-2.63-2.63l0,0
			c0-1.45,1.18-2.63,2.63-2.63h19.25C1458.72,209.07,1459.9,210.25,1459.9,211.7L1459.9,211.7z"/>
		<path class="st85" d="M1450.35,210.59c0,0.92-0.74,1.66-1.66,1.66h-2.08c-0.92,0-1.66-0.74-1.66-1.66v-13.85
			c0-0.92,0.74-1.66,1.66-1.66h2.08c0.92,0,1.66,0.74,1.66,1.66V210.59z"/>
		<ellipse class="st85" cx="1447.65" cy="184.6" rx="9.81" ry="16.55"/>
	</g>
	<g class="st411">
		<path class="st431" d="M435.28,490.12c0,2.02-1.63,3.65-3.65,3.65h-26.71c-2.02,0-3.65-1.63-3.65-3.65l0,0
			c0-2.02,1.63-3.65,3.65-3.65h26.71C433.65,486.47,435.28,488.11,435.28,490.12L435.28,490.12z"/>
		<path class="st432" d="M422.02,488.59c0,1.27-1.03,2.31-2.31,2.31h-2.88c-1.27,0-2.31-1.03-2.31-2.31v-19.21
			c0-1.27,1.03-2.31,2.31-2.31h2.88c1.27,0,2.31,1.03,2.31,2.31V488.59z"/>
		<circle class="st433" cx="418.47" cy="456.64" r="18.83"/>
	</g>
	<g class="st411">
		<path class="st431" d="M376.45,550.9c0,2.02-1.63,3.65-3.65,3.65h-26.71c-2.02,0-3.65-1.63-3.65-3.65l0,0
			c0-2.02,1.63-3.65,3.65-3.65h26.71C374.82,547.25,376.45,548.88,376.45,550.9L376.45,550.9z"/>
		<path class="st432" d="M363.19,549.36c0,1.27-1.03,2.31-2.31,2.31h-2.88c-1.27,0-2.31-1.03-2.31-2.31v-19.21
			c0-1.27,1.03-2.31,2.31-2.31h2.88c1.27,0,2.31,1.03,2.31,2.31V549.36z"/>
		<ellipse class="st433" cx="359.45" cy="513.29" rx="13.61" ry="22.96"/>
	</g>
	<g class="st411">
		<path class="st431" d="M465.61,559.7c0,1.45-1.18,2.63-2.63,2.63h-19.25c-1.45,0-2.63-1.18-2.63-2.63l0,0
			c0-1.45,1.18-2.63,2.63-2.63h19.25C464.43,557.06,465.61,558.24,465.61,559.7L465.61,559.7z"/>
		<path class="st432" d="M456.05,558.59c0,0.92-0.74,1.66-1.66,1.66h-2.08c-0.92,0-1.66-0.74-1.66-1.66v-13.85
			c0-0.92,0.74-1.66,1.66-1.66h2.08c0.92,0,1.66,0.74,1.66,1.66V558.59z"/>
		<ellipse class="st433" cx="453.35" cy="532.59" rx="9.81" ry="16.55"/>
	</g>
	<path class="st414" d="M823.81,123.48l65.88-39.12c20-11.88,44.5-13.39,65.81-4.07l65.13,28.48l39.02-14.3l59.8,19.68
		L823.81,123.48z"/>
	<g class="st411">
		<path class="st431" d="M967.22,238.45c0,2.02-1.63,3.65-3.65,3.65h-26.71c-2.02,0-3.65-1.63-3.65-3.65l0,0
			c0-2.02,1.63-3.65,3.65-3.65h26.71C965.58,234.8,967.22,236.43,967.22,238.45L967.22,238.45z"/>
		<path class="st432" d="M953.96,236.91c0,1.27-1.03,2.31-2.31,2.31h-2.88c-1.27,0-2.31-1.03-2.31-2.31V217.7
			c0-1.27,1.03-2.31,2.31-2.31h2.88c1.27,0,2.31,1.03,2.31,2.31V236.91z"/>
		<circle class="st433" cx="950.4" cy="204.97" r="18.83"/>
	</g>
	<g class="st411">
		<path class="st431" d="M908.39,299.22c0,2.02-1.63,3.65-3.65,3.65h-26.71c-2.02,0-3.65-1.63-3.65-3.65l0,0
			c0-2.02,1.63-3.65,3.65-3.65h26.71C906.75,295.57,908.39,297.21,908.39,299.22L908.39,299.22z"/>
		<path class="st432" d="M895.13,297.68c0,1.27-1.03,2.31-2.31,2.31h-2.88c-1.27,0-2.31-1.03-2.31-2.31v-19.21
			c0-1.27,1.03-2.31,2.31-2.31h2.88c1.27,0,2.31,1.03,2.31,2.31V297.68z"/>
		<ellipse class="st433" cx="891.38" cy="261.61" rx="13.61" ry="22.96"/>
	</g>
	<g class="st411">
		<path class="st431" d="M997.54,308.02c0,1.45-1.18,2.63-2.63,2.63h-19.25c-1.45,0-2.63-1.18-2.63-2.63l0,0
			c0-1.45,1.18-2.63,2.63-2.63h19.25C996.37,305.39,997.54,306.57,997.54,308.02L997.54,308.02z"/>
		<path class="st432" d="M987.99,306.91c0,0.92-0.74,1.66-1.66,1.66h-2.08c-0.92,0-1.66-0.74-1.66-1.66v-13.85
			c0-0.92,0.74-1.66,1.66-1.66h2.08c0.92,0,1.66,0.74,1.66,1.66V306.91z"/>
		<ellipse class="st433" cx="985.29" cy="280.92" rx="9.81" ry="16.55"/>
	</g>
</g>
</svg>
