<?xml version="1.0" encoding="utf-8"?>
<!-- Generator: Adobe Illustrator 24.2.1, SVG Export Plug-In . SVG Version: 6.00 Build 0)  -->
<svg version="1.1" xmlns="http://www.w3.org/2000/svg" xmlns:xlink="http://www.w3.org/1999/xlink" x="0px" y="0px"
	 viewBox="0 0 108.39 108.4" style="enable-background:new 0 0 108.39 108.4;" xml:space="preserve">
<style type="text/css">
	.st0{fill:#008186;}
	.st1{fill:#00D6D4;}
	.st2{opacity:0.2;clip-path:url(#SVGID_14_);fill:none;stroke:#A3A3A3;stroke-width:25;stroke-miterlimit:10;}
	.st3{opacity:0.2;clip-path:url(#SVGID_14_);fill:#A3A3A3;}
	.st4{opacity:0.2;clip-path:url(#SVGID_14_);}
	.st5{fill-rule:evenodd;clip-rule:evenodd;fill:#797979;}
	.st6{fill-rule:evenodd;clip-rule:evenodd;fill:#FFFFFF;}
	.st7{fill-rule:evenodd;clip-rule:evenodd;fill:#6C6C6C;}
	.st8{fill-rule:evenodd;clip-rule:evenodd;fill:#9F9F9F;}
	.st9{fill-rule:evenodd;clip-rule:evenodd;fill:#4B4B4B;}
	.st10{fill-rule:evenodd;clip-rule:evenodd;fill:#848484;}
	.st11{fill-rule:evenodd;clip-rule:evenodd;fill:#EAEAEA;}
	.st12{fill-rule:evenodd;clip-rule:evenodd;fill:#CBCBCB;}
	.st13{fill:#676767;}
	.st14{opacity:0.05;clip-path:url(#SVGID_14_);}
	.st15{fill:#FFFFFF;}
	.st16{clip-path:url(#SVGID_16_);}
	.st17{clip-path:url(#SVGID_18_);}
	.st18{fill:#898989;}
	.st19{fill:#F7F7F7;}
	.st20{fill:none;stroke:#00CFD2;stroke-width:2;stroke-miterlimit:10;}
	.st21{fill:#003956;}
	.st22{fill:#F6F4F2;}
	.st23{opacity:0.13;fill:none;stroke:#00D1BB;stroke-miterlimit:10;}
	.st24{fill:#BF7F47;}
	.st25{fill:#9C5397;}
	.st26{fill:#1D3D48;}
	.st27{fill:#FFB949;}
	.st28{fill:#CD7C58;}
	.st29{fill:#13889D;}
	.st30{fill:#EA9E36;}
	.st31{fill:#62382F;}
	.st32{fill:#008891;}
	.st33{fill:#3F221D;}
	.st34{fill:#002533;}
	.st35{fill:#B56E52;}
	.st36{fill:#86A436;}
	.st37{fill:#FF5F6D;}
	.st38{fill:#1A1718;}
	.st39{fill:#753815;}
	.st40{clip-path:url(#SVGID_20_);}
	.st41{fill:#00CD6C;}
	.st42{fill:none;stroke:#FFFFFF;stroke-width:1.0306;stroke-miterlimit:10;}
	.st43{fill:none;stroke:#F1D097;stroke-width:1.0306;stroke-miterlimit:10;}
	.st44{fill:none;stroke:#00AD9A;stroke-miterlimit:10;}
	.st45{fill:none;stroke:#4A2519;stroke-miterlimit:10;}
	.st46{fill:none;stroke:#4A2519;stroke-width:1.1579;stroke-miterlimit:10;}
	.st47{fill:#FF7802;}
	.st48{fill:none;stroke:#4A2519;stroke-width:1.0306;stroke-miterlimit:10;}
	.st49{fill:#CB805F;stroke:#4A2519;stroke-width:1.0306;stroke-miterlimit:10;}
	.st50{fill:none;stroke:#FF7802;stroke-width:3;stroke-miterlimit:10;}
	.st51{fill:none;}
	.st52{fill:none;stroke:#FFFFFF;stroke-miterlimit:10;}
	.st53{fill:none;stroke:#FF7802;stroke-width:2;stroke-miterlimit:10;}
	.st54{fill:none;stroke:#FF7802;stroke-width:2;stroke-miterlimit:10;stroke-dasharray:6.0089,7.0104;}
	.st55{fill:none;stroke:#FF7802;stroke-miterlimit:10;}
	.st56{fill:#FF760C;}
	.st57{fill:#1D1D1B;}
	.st58{fill:#E20613;}
	.st59{fill:none;stroke:#F6F4F2;stroke-width:2;stroke-miterlimit:10;}
	.st60{fill:none;stroke:#4A2519;stroke-width:0.7;stroke-miterlimit:10;stroke-dasharray:6,7;}
	.st61{fill:#FF7700;}
	.st62{fill:#00465B;}
	.st63{opacity:0.3;}
	.st64{fill:#686868;}
	.st65{fill:#939393;}
	.st66{fill:#838383;}
	.st67{fill:#A5A5A5;}
	.st68{fill:#E8E8E8;}
	.st69{fill:#FF7602;}
	.st70{fill:#3772BB;}
	.st71{clip-path:url(#SVGID_26_);}
	.st72{fill:#60CB86;}
	.st73{fill:none;stroke:#534741;stroke-miterlimit:10;}
	.st74{opacity:0.2;fill:#1B233C;enable-background:new    ;}
	.st75{clip-path:url(#SVGID_28_);}
	.st76{fill:#C1936A;}
	.st77{fill:#2D2100;}
	.st78{opacity:0.16;enable-background:new    ;}
	.st79{fill:#FFD297;}
	.st80{clip-path:url(#SVGID_30_);}
	.st81{clip-path:url(#SVGID_32_);}
	.st82{fill:url(#SVGID_33_);}
	.st83{clip-path:url(#SVGID_35_);}
	.st84{clip-path:url(#SVGID_37_);}
	.st85{fill:none;stroke:#FF7602;stroke-miterlimit:10;}
	.st86{opacity:0.2;}
	.st87{opacity:0.2;fill:#676767;}
	.st88{opacity:0.2;fill:none;stroke:#676767;stroke-width:3.0697;stroke-miterlimit:10;}
	.st89{opacity:0.2;fill:#A3A3A3;}
	.st90{fill:#707070;}
	.st91{fill:#616161;}
	.st92{fill:#7F7F7F;}
	.st93{opacity:0.2;fill:none;stroke:#A3A3A3;stroke-width:25;stroke-miterlimit:10;}
	.st94{opacity:0.2;fill:#707070;}
	.st95{opacity:0.2;fill:#FFFFFF;}
	.st96{fill:#D0D0D0;}
	.st97{fill:#BFBFBF;}
	.st98{opacity:0.05;}
	.st99{fill:#9D9D9D;}
	.st100{fill:#858585;}
	.st101{fill:#8D8D8D;}
	.st102{opacity:0.2;clip-path:url(#SVGID_43_);fill:none;stroke:#A3A3A3;stroke-width:25;stroke-miterlimit:10;}
	.st103{opacity:0.2;clip-path:url(#SVGID_43_);fill:#A3A3A3;}
	.st104{opacity:0.2;clip-path:url(#SVGID_43_);}
	.st105{opacity:0.05;clip-path:url(#SVGID_43_);}
	.st106{clip-path:url(#SVGID_45_);}
	.st107{clip-path:url(#SVGID_47_);}
	.st108{fill:#FEFEFE;}
	.st109{fill:none;stroke:#00D6D4;stroke-miterlimit:10;}
	.st110{fill:#FF7802;stroke:#F6F4F2;stroke-width:5;stroke-miterlimit:10;}
	.st111{clip-path:url(#SVGID_49_);fill:#FF7802;}
	.st112{clip-path:url(#SVGID_49_);fill:#FF7802;stroke:#F6F4F2;stroke-width:5;stroke-miterlimit:10;}
</style>
<g id="BACKGROUND">
</g>
<g id="OBJECTS">
</g>
<g id="DESIGNED_BY_FREEPIK">
	<path class="st85" d="M54.2,0.5C24.54,0.5,0.5,24.54,0.5,54.2c0,29.66,24.04,53.7,53.7,53.7s53.7-24.04,53.7-53.7
		C107.89,24.54,83.85,0.5,54.2,0.5z"/>
	<g>
		<path class="st47" d="M70.04,49.25c-2.7-1.28-4.38-3.46-5.05-6.33c-0.52-2.24-0.83-4.53-1.17-6.81c-0.22-1.49-0.76-2.75-2.04-3.62
			c-3.55-2.42-8.96-0.58-10.24,3.52c-1.82,5.81-3.55,11.66-5.46,17.44c-0.65,1.98-0.42,3.67,0.51,5.44
			c3.8,7.27,7.57,14.56,11.34,21.85c1.67,3.21,3.32,6.43,5,9.63c0.91,1.74,2.78,2.7,4.6,2.41c1.99-0.31,3.47-1.78,3.81-3.79
			c0.18-1.08-0.12-2.06-0.61-3.01c-4.57-8.79-9.12-17.59-13.69-26.37c-0.26-0.51-0.33-0.92-0.13-1.49c1.07-3.02,2.09-6.06,3.12-9.09
			c0.08-0.24,0.18-0.47,0.31-0.81c1.57,3.25,4.14,5.31,7.16,6.79c2.26,1.11,4.64,1.98,6.98,2.91c1.06,0.42,3.86,0.53,4.24,0.32
			c1.94-1.11,2.16-3.68,0.44-5.1C78.79,52.81,71.99,50.17,70.04,49.25z M42.87,29.07c-2.4,0.16-3.96,1.31-4.88,3.46
			c-2.28,5.34-4.51,10.69-6.9,15.97c-1.23,2.71,0.47,5.26,2.69,5.95c1.48,0.46,2.96,0.95,4.45,1.38c2.37,0.7,4.67-0.51,5.46-2.85
			c0.39-1.15,0.73-2.31,1.1-3.47c1.45-4.66,2.9-9.31,4.35-13.97c0.73-2.36-0.23-4.67-2.41-5.49C45.5,29.58,44.16,29.39,42.87,29.07z
			 M44.21,59.61c-1.62,5.25-3.18,10.36-4.77,15.45c-0.13,0.42-0.39,0.84-0.7,1.14c-3.04,2.94-6.1,5.86-9.17,8.77
			c-0.86,0.82-1.41,1.79-1.49,2.99c-0.14,1.91,0.84,3.6,2.51,4.41c1.7,0.82,3.63,0.53,5.06-0.83c3.56-3.38,7.13-6.76,10.63-10.2
			c0.59-0.58,1.03-1.43,1.29-2.23c0.82-2.54,1.55-5.11,2.26-7.68c0.1-0.37,0.07-0.88-0.1-1.22c-1.68-3.31-3.4-6.6-5.11-9.9
			C44.51,60.13,44.4,59.95,44.21,59.61z M62.77,14.03c-4.39,0.01-7.98,3.59-7.98,7.97c-0.01,4.42,3.61,8.04,8.02,8.02
			c4.39-0.02,7.98-3.6,7.99-7.98C70.8,17.63,67.19,14.02,62.77,14.03z"/>
		<path class="st47" d="M42.87,29.07c1.29,0.32,2.63,0.51,3.86,0.98c2.17,0.82,3.13,3.13,2.41,5.49c-1.44,4.66-2.89,9.32-4.35,13.97
			c-0.36,1.16-0.71,2.32-1.1,3.47c-0.79,2.34-3.09,3.55-5.46,2.85c-1.49-0.44-2.96-0.93-4.45-1.38c-2.22-0.68-3.91-3.24-2.69-5.95
			c2.39-5.28,4.62-10.64,6.9-15.97C38.91,30.38,40.47,29.23,42.87,29.07z"/>
		<path class="st47" d="M44.21,59.61c0.19,0.34,0.3,0.52,0.4,0.71c1.71,3.3,3.43,6.59,5.11,9.9c0.17,0.34,0.21,0.85,0.1,1.22
			c-0.72,2.57-1.44,5.14-2.26,7.68c-0.26,0.8-0.69,1.65-1.29,2.23c-3.5,3.44-7.07,6.82-10.63,10.2c-1.43,1.36-3.36,1.64-5.06,0.83
			c-1.66-0.8-2.64-2.5-2.51-4.41c0.09-1.19,0.63-2.17,1.49-2.99c3.06-2.92,6.13-5.83,9.17-8.77c0.31-0.3,0.57-0.72,0.7-1.14
			C41.03,69.97,42.6,64.86,44.21,59.61z"/>
		<path class="st47" d="M62.77,14.03c4.42-0.01,8.03,3.6,8.02,8.01c-0.01,4.38-3.6,7.96-7.99,7.98c-4.41,0.02-8.02-3.6-8.02-8.02
			C54.79,17.62,58.38,14.04,62.77,14.03z"/>
	</g>
</g>
</svg>
