<?xml version="1.0" encoding="utf-8"?>
<!-- Generator: Adobe Illustrator 24.2.1, SVG Export Plug-In . SVG Version: 6.00 Build 0)  -->
<svg version="1.1" xmlns="http://www.w3.org/2000/svg" xmlns:xlink="http://www.w3.org/1999/xlink" x="0px" y="0px"
	 viewBox="0 0 108.59 108.59" style="enable-background:new 0 0 108.59 108.59;" xml:space="preserve">
<style type="text/css">
	.st0{fill:#008186;}
	.st1{fill:#00D6D4;}
	.st2{opacity:0.2;clip-path:url(#SVGID_14_);fill:none;stroke:#A3A3A3;stroke-width:25;stroke-miterlimit:10;}
	.st3{opacity:0.2;clip-path:url(#SVGID_14_);fill:#A3A3A3;}
	.st4{opacity:0.2;clip-path:url(#SVGID_14_);}
	.st5{fill-rule:evenodd;clip-rule:evenodd;fill:#797979;}
	.st6{fill-rule:evenodd;clip-rule:evenodd;fill:#FFFFFF;}
	.st7{fill-rule:evenodd;clip-rule:evenodd;fill:#6C6C6C;}
	.st8{fill-rule:evenodd;clip-rule:evenodd;fill:#9F9F9F;}
	.st9{fill-rule:evenodd;clip-rule:evenodd;fill:#4B4B4B;}
	.st10{fill-rule:evenodd;clip-rule:evenodd;fill:#848484;}
	.st11{fill-rule:evenodd;clip-rule:evenodd;fill:#EAEAEA;}
	.st12{fill-rule:evenodd;clip-rule:evenodd;fill:#CBCBCB;}
	.st13{fill:#676767;}
	.st14{opacity:0.05;clip-path:url(#SVGID_14_);}
	.st15{fill:#FFFFFF;}
	.st16{clip-path:url(#SVGID_16_);}
	.st17{clip-path:url(#SVGID_18_);}
	.st18{fill:#898989;}
	.st19{fill:#F7F7F7;}
	.st20{fill:none;stroke:#00CFD2;stroke-width:2;stroke-miterlimit:10;}
	.st21{fill:#003956;}
	.st22{fill:#F6F4F2;}
	.st23{opacity:0.13;fill:none;stroke:#00D1BB;stroke-miterlimit:10;}
	.st24{fill:#BF7F47;}
	.st25{fill:#9C5397;}
	.st26{fill:#1D3D48;}
	.st27{fill:#FFB949;}
	.st28{fill:#CD7C58;}
	.st29{fill:#13889D;}
	.st30{fill:#EA9E36;}
	.st31{fill:#62382F;}
	.st32{fill:#008891;}
	.st33{fill:#3F221D;}
	.st34{fill:#002533;}
	.st35{fill:#B56E52;}
	.st36{fill:#86A436;}
	.st37{fill:#FF5F6D;}
	.st38{fill:#1A1718;}
	.st39{fill:#753815;}
	.st40{clip-path:url(#SVGID_20_);}
	.st41{fill:#00CD6C;}
	.st42{fill:none;stroke:#FFFFFF;stroke-width:1.0306;stroke-miterlimit:10;}
	.st43{fill:none;stroke:#F1D097;stroke-width:1.0306;stroke-miterlimit:10;}
	.st44{fill:none;stroke:#00AD9A;stroke-miterlimit:10;}
	.st45{fill:none;stroke:#4A2519;stroke-miterlimit:10;}
	.st46{fill:none;stroke:#4A2519;stroke-width:1.1579;stroke-miterlimit:10;}
	.st47{fill:#FF7802;}
	.st48{fill:none;stroke:#4A2519;stroke-width:1.0306;stroke-miterlimit:10;}
	.st49{fill:#CB805F;stroke:#4A2519;stroke-width:1.0306;stroke-miterlimit:10;}
	.st50{fill:none;stroke:#FF7802;stroke-width:3;stroke-miterlimit:10;}
	.st51{fill:none;}
	.st52{fill:none;stroke:#FFFFFF;stroke-miterlimit:10;}
	.st53{fill:none;stroke:#FF7802;stroke-width:2;stroke-miterlimit:10;}
	.st54{fill:none;stroke:#FF7802;stroke-width:2;stroke-miterlimit:10;stroke-dasharray:6.0089,7.0104;}
	.st55{fill:none;stroke:#FF7802;stroke-miterlimit:10;}
	.st56{fill:#FF760C;}
	.st57{fill:#1D1D1B;}
	.st58{fill:#E20613;}
	.st59{fill:none;stroke:#F6F4F2;stroke-width:2;stroke-miterlimit:10;}
	.st60{fill:none;stroke:#4A2519;stroke-width:0.7;stroke-miterlimit:10;stroke-dasharray:6,7;}
	.st61{fill:#FF7700;}
	.st62{fill:#00465B;}
	.st63{opacity:0.3;}
	.st64{fill:#686868;}
	.st65{fill:#939393;}
	.st66{fill:#838383;}
	.st67{fill:#A5A5A5;}
	.st68{fill:#E8E8E8;}
	.st69{fill:#FF7602;}
	.st70{fill:#3772BB;}
	.st71{clip-path:url(#SVGID_26_);}
	.st72{fill:#60CB86;}
	.st73{fill:none;stroke:#534741;stroke-miterlimit:10;}
	.st74{opacity:0.2;fill:#1B233C;enable-background:new    ;}
	.st75{clip-path:url(#SVGID_28_);}
	.st76{fill:#C1936A;}
	.st77{fill:#2D2100;}
	.st78{opacity:0.16;enable-background:new    ;}
	.st79{fill:#FFD297;}
	.st80{clip-path:url(#SVGID_30_);}
	.st81{clip-path:url(#SVGID_32_);}
	.st82{fill:url(#SVGID_33_);}
	.st83{clip-path:url(#SVGID_35_);}
	.st84{clip-path:url(#SVGID_37_);}
	.st85{fill:none;stroke:#FF7602;stroke-miterlimit:10;}
	.st86{opacity:0.2;}
	.st87{opacity:0.2;fill:#676767;}
	.st88{opacity:0.2;fill:none;stroke:#676767;stroke-width:3.0697;stroke-miterlimit:10;}
	.st89{opacity:0.2;fill:#A3A3A3;}
	.st90{fill:#707070;}
	.st91{fill:#616161;}
	.st92{fill:#7F7F7F;}
	.st93{opacity:0.2;fill:none;stroke:#A3A3A3;stroke-width:25;stroke-miterlimit:10;}
	.st94{opacity:0.2;fill:#707070;}
	.st95{opacity:0.2;fill:#FFFFFF;}
	.st96{fill:#D0D0D0;}
	.st97{fill:#BFBFBF;}
	.st98{opacity:0.05;}
	.st99{fill:#9D9D9D;}
	.st100{fill:#858585;}
	.st101{fill:#8D8D8D;}
	.st102{opacity:0.2;clip-path:url(#SVGID_43_);fill:none;stroke:#A3A3A3;stroke-width:25;stroke-miterlimit:10;}
	.st103{opacity:0.2;clip-path:url(#SVGID_43_);fill:#A3A3A3;}
	.st104{opacity:0.2;clip-path:url(#SVGID_43_);}
	.st105{opacity:0.05;clip-path:url(#SVGID_43_);}
	.st106{clip-path:url(#SVGID_45_);}
	.st107{clip-path:url(#SVGID_47_);}
	.st108{fill:#FEFEFE;}
	.st109{fill:none;stroke:#00D6D4;stroke-miterlimit:10;}
	.st110{fill:#FF7802;stroke:#F6F4F2;stroke-width:5;stroke-miterlimit:10;}
	.st111{clip-path:url(#SVGID_49_);fill:#FF7802;}
	.st112{clip-path:url(#SVGID_49_);fill:#FF7802;stroke:#F6F4F2;stroke-width:5;stroke-miterlimit:10;}
</style>
<g id="BACKGROUND">
</g>
<g id="OBJECTS">
</g>
<g id="DESIGNED_BY_FREEPIK">
	<path class="st85" d="M54.3,0.5C24.59,0.5,0.5,24.59,0.5,54.3c0,29.71,24.09,53.8,53.8,53.8s53.8-24.09,53.8-53.8
		C108.09,24.59,84.01,0.5,54.3,0.5z"/>
	<g>
		<path class="st47" d="M47.7,53.26c-0.09,0-0.18,0-0.27,0c-1.41,0.01-1.76-0.38-1.69-1.78c0.07-1.54,0.77-2.71,1.91-3.7
			c0.74-0.64,1.44-1.32,2.11-2.03c0.45-0.48,0.55-1.08,0.38-1.73c-0.16-0.58-0.51-1.02-1.09-1.08c-0.71-0.08-1.45-0.09-2.15,0.03
			c-0.88,0.16-1.31,0.8-1.39,1.72c-0.07,0.85-0.44,1.19-1.29,1.2c-0.51,0.01-1.02,0.01-1.52,0.01c-0.75-0.01-1.16-0.44-1.18-1.2
			c-0.06-2.75,2.11-5.23,4.96-5.69c1.2-0.19,2.39-0.18,3.56,0.13c3.36,0.88,5.11,4.67,3.63,7.84c-0.54,1.14-1.36,2.05-2.29,2.88
			c-0.34,0.3-0.68,0.61-1.03,0.89c-0.44,0.35-0.68,0.74-0.64,1.35c0.04,0.71-0.43,1.14-1.14,1.17
			C48.28,53.27,47.99,53.26,47.7,53.26z"/>
		<path class="st47" d="M47.67,55.1c0.33,0,0.65-0.01,0.98,0c0.72,0.01,1.19,0.46,1.22,1.18c0.02,0.6,0.02,1.2,0.01,1.79
			c-0.01,0.64-0.38,1.08-1.02,1.12c-0.78,0.05-1.56,0.05-2.34,0.02c-0.64-0.02-1.04-0.44-1.07-1.08c-0.03-0.63-0.04-1.27-0.01-1.9
			c0.03-0.7,0.45-1.09,1.15-1.11C46.95,55.1,47.31,55.11,47.67,55.1z"/>
		<g>
			<path class="st47" d="M60.07,84.59c-0.19-0.28-0.31-0.45-0.42-0.63c-2.15-3.13-4.31-6.25-6.45-9.39
				c-0.27-0.4-0.55-0.52-1.01-0.52c-6.38,0.01-12.76,0.01-19.14,0.01c-0.23,0-0.46,0-0.75,0c0-0.28,0-0.49,0-0.71
				c0-14.79,0-29.57,0-44.36c0-1.96,1.02-2.99,2.97-2.99c8.54,0,17.09,0,25.63,0c1.91,0,2.95,1.04,2.95,2.96c0,4.74,0,9.49,0,14.23
				c0,0.23,0,0.45,0,0.73c1.6,0,3.11-0.02,4.62,0.01c0.51,0.01,0.67-0.12,0.66-0.65c-0.02-4.8,0-9.61-0.02-14.41
				c-0.01-4.7-3.44-8.13-8.13-8.14c-8.62-0.01-17.25-0.01-25.87,0c-4.66,0.01-8.1,3.45-8.1,8.1c-0.01,15.89-0.01,31.78,0.02,47.66
				c0,0.98,0.19,2.01,0.52,2.94c1.12,3.16,4.06,5.13,7.54,5.14c8.15,0.01,16.3,0,24.45,0C59.67,84.59,59.79,84.59,60.07,84.59z
				 M63.38,68.85c-0.13-0.06-0.18-0.08-0.22-0.12c-1.81-1.55-3.63-3.08-5.42-4.66c-1.37-1.2-3.46-0.6-3.88,1.16
				c-0.18,0.74,0.04,1.39,0.45,2.01c3.24,4.86,6.49,9.72,9.69,14.61c1.09,1.67,2.54,2.5,4.52,2.49c3.98-0.01,7.95,0,11.93-0.01
				c3.07-0.01,5.1-2.05,5.11-5.12c0.01-3.37-0.01-6.73,0.01-10.1c0-0.48-0.17-0.68-0.58-0.87c-5-2.25-9.99-4.52-15-6.77
				c-0.39-0.17-0.51-0.38-0.51-0.79c0.02-2.76,0.02-5.51,0-8.27c0-0.41-0.04-0.83-0.15-1.22c-0.42-1.44-1.85-2.33-3.34-2.12
				c-1.48,0.21-2.61,1.49-2.61,3.04c-0.01,5.34,0,10.67,0,16.01C63.38,68.34,63.38,68.55,63.38,68.85z"/>
			<path class="st47" d="M60.07,84.59c-0.28,0-0.4,0-0.52,0c-8.15,0-16.3,0.01-24.45,0c-3.48-0.01-6.41-1.98-7.54-5.14
				c-0.33-0.93-0.52-1.96-0.52-2.94c-0.03-15.89-0.03-31.78-0.02-47.66c0-4.66,3.44-8.1,8.1-8.1c8.62-0.01,17.25-0.01,25.87,0
				c4.69,0.01,8.12,3.44,8.13,8.14c0.01,4.8-0.01,9.61,0.02,14.41c0,0.53-0.15,0.66-0.66,0.65c-1.51-0.03-3.03-0.01-4.62-0.01
				c0-0.28,0-0.5,0-0.73c0-4.74,0-9.49,0-14.23c0-1.92-1.03-2.96-2.95-2.96c-8.54,0-17.09,0-25.63,0c-1.96,0-2.97,1.02-2.97,2.99
				c0,14.79,0,29.57,0,44.36c0,0.21,0,0.42,0,0.71c0.29,0,0.52,0,0.75,0c6.38,0,12.76,0,19.14-0.01c0.46,0,0.74,0.12,1.01,0.52
				c2.13,3.14,4.29,6.26,6.45,9.39C59.76,84.14,59.88,84.31,60.07,84.59z"/>
		</g>
	</g>
</g>
</svg>
