<?xml version="1.0" encoding="utf-8"?>
<!-- Generator: Adobe Illustrator 24.2.1, SVG Export Plug-In . SVG Version: 6.00 Build 0)  -->
<svg version="1.1" xmlns="http://www.w3.org/2000/svg" xmlns:xlink="http://www.w3.org/1999/xlink" x="0px" y="0px"
	 viewBox="0 0 108.59 108.59" style="enable-background:new 0 0 108.59 108.59;" xml:space="preserve">
<style type="text/css">
	.st0{fill:#008186;}
	.st1{fill:#00D6D4;}
	.st2{opacity:0.2;clip-path:url(#SVGID_14_);fill:none;stroke:#A3A3A3;stroke-width:25;stroke-miterlimit:10;}
	.st3{opacity:0.2;clip-path:url(#SVGID_14_);fill:#A3A3A3;}
	.st4{opacity:0.2;clip-path:url(#SVGID_14_);}
	.st5{fill-rule:evenodd;clip-rule:evenodd;fill:#797979;}
	.st6{fill-rule:evenodd;clip-rule:evenodd;fill:#FFFFFF;}
	.st7{fill-rule:evenodd;clip-rule:evenodd;fill:#6C6C6C;}
	.st8{fill-rule:evenodd;clip-rule:evenodd;fill:#9F9F9F;}
	.st9{fill-rule:evenodd;clip-rule:evenodd;fill:#4B4B4B;}
	.st10{fill-rule:evenodd;clip-rule:evenodd;fill:#848484;}
	.st11{fill-rule:evenodd;clip-rule:evenodd;fill:#EAEAEA;}
	.st12{fill-rule:evenodd;clip-rule:evenodd;fill:#CBCBCB;}
	.st13{fill:#676767;}
	.st14{opacity:0.05;clip-path:url(#SVGID_14_);}
	.st15{fill:#FFFFFF;}
	.st16{clip-path:url(#SVGID_16_);}
	.st17{clip-path:url(#SVGID_18_);}
	.st18{fill:#898989;}
	.st19{fill:#F7F7F7;}
	.st20{fill:none;stroke:#00CFD2;stroke-width:2;stroke-miterlimit:10;}
	.st21{fill:#003956;}
	.st22{fill:#F6F4F2;}
	.st23{opacity:0.13;fill:none;stroke:#00D1BB;stroke-miterlimit:10;}
	.st24{fill:#BF7F47;}
	.st25{fill:#9C5397;}
	.st26{fill:#1D3D48;}
	.st27{fill:#FFB949;}
	.st28{fill:#CD7C58;}
	.st29{fill:#13889D;}
	.st30{fill:#EA9E36;}
	.st31{fill:#62382F;}
	.st32{fill:#008891;}
	.st33{fill:#3F221D;}
	.st34{fill:#002533;}
	.st35{fill:#B56E52;}
	.st36{fill:#86A436;}
	.st37{fill:#FF5F6D;}
	.st38{fill:#1A1718;}
	.st39{fill:#753815;}
	.st40{clip-path:url(#SVGID_20_);}
	.st41{fill:#00CD6C;}
	.st42{fill:none;stroke:#FFFFFF;stroke-width:1.0306;stroke-miterlimit:10;}
	.st43{fill:none;stroke:#F1D097;stroke-width:1.0306;stroke-miterlimit:10;}
	.st44{fill:none;stroke:#00AD9A;stroke-miterlimit:10;}
	.st45{fill:none;stroke:#4A2519;stroke-miterlimit:10;}
	.st46{fill:none;stroke:#4A2519;stroke-width:1.1579;stroke-miterlimit:10;}
	.st47{fill:#FF7802;}
	.st48{fill:none;stroke:#4A2519;stroke-width:1.0306;stroke-miterlimit:10;}
	.st49{fill:#CB805F;stroke:#4A2519;stroke-width:1.0306;stroke-miterlimit:10;}
	.st50{fill:none;stroke:#FF7802;stroke-width:3;stroke-miterlimit:10;}
	.st51{fill:none;}
	.st52{fill:none;stroke:#FFFFFF;stroke-miterlimit:10;}
	.st53{fill:none;stroke:#FF7802;stroke-width:2;stroke-miterlimit:10;}
	.st54{fill:none;stroke:#FF7802;stroke-width:2;stroke-miterlimit:10;stroke-dasharray:6.0089,7.0104;}
	.st55{fill:none;stroke:#FF7802;stroke-miterlimit:10;}
	.st56{fill:#FF760C;}
	.st57{fill:#1D1D1B;}
	.st58{fill:#E20613;}
	.st59{fill:none;stroke:#F6F4F2;stroke-width:2;stroke-miterlimit:10;}
	.st60{fill:none;stroke:#4A2519;stroke-width:0.7;stroke-miterlimit:10;stroke-dasharray:6,7;}
	.st61{fill:#FF7700;}
	.st62{fill:#00465B;}
	.st63{opacity:0.3;}
	.st64{fill:#686868;}
	.st65{fill:#939393;}
	.st66{fill:#838383;}
	.st67{fill:#A5A5A5;}
	.st68{fill:#E8E8E8;}
	.st69{fill:#FF7602;}
	.st70{fill:#3772BB;}
	.st71{clip-path:url(#SVGID_26_);}
	.st72{fill:#60CB86;}
	.st73{fill:none;stroke:#534741;stroke-miterlimit:10;}
	.st74{opacity:0.2;fill:#1B233C;enable-background:new    ;}
	.st75{clip-path:url(#SVGID_28_);}
	.st76{fill:#C1936A;}
	.st77{fill:#2D2100;}
	.st78{opacity:0.16;enable-background:new    ;}
	.st79{fill:#FFD297;}
	.st80{clip-path:url(#SVGID_30_);}
	.st81{clip-path:url(#SVGID_32_);}
	.st82{fill:url(#SVGID_33_);}
	.st83{clip-path:url(#SVGID_35_);}
	.st84{clip-path:url(#SVGID_37_);}
	.st85{fill:none;stroke:#FF7602;stroke-miterlimit:10;}
	.st86{opacity:0.2;}
	.st87{opacity:0.2;fill:#676767;}
	.st88{opacity:0.2;fill:none;stroke:#676767;stroke-width:3.0697;stroke-miterlimit:10;}
	.st89{opacity:0.2;fill:#A3A3A3;}
	.st90{fill:#707070;}
	.st91{fill:#616161;}
	.st92{fill:#7F7F7F;}
	.st93{opacity:0.2;fill:none;stroke:#A3A3A3;stroke-width:25;stroke-miterlimit:10;}
	.st94{opacity:0.2;fill:#707070;}
	.st95{opacity:0.2;fill:#FFFFFF;}
	.st96{fill:#D0D0D0;}
	.st97{fill:#BFBFBF;}
	.st98{opacity:0.05;}
	.st99{fill:#9D9D9D;}
	.st100{fill:#858585;}
	.st101{fill:#8D8D8D;}
	.st102{opacity:0.2;clip-path:url(#SVGID_43_);fill:none;stroke:#A3A3A3;stroke-width:25;stroke-miterlimit:10;}
	.st103{opacity:0.2;clip-path:url(#SVGID_43_);fill:#A3A3A3;}
	.st104{opacity:0.2;clip-path:url(#SVGID_43_);}
	.st105{opacity:0.05;clip-path:url(#SVGID_43_);}
	.st106{clip-path:url(#SVGID_45_);}
	.st107{clip-path:url(#SVGID_47_);}
	.st108{fill:#FEFEFE;}
	.st109{fill:none;stroke:#00D6D4;stroke-miterlimit:10;}
	.st110{fill:#FF7802;stroke:#F6F4F2;stroke-width:5;stroke-miterlimit:10;}
	.st111{clip-path:url(#SVGID_49_);fill:#FF7802;}
	.st112{clip-path:url(#SVGID_49_);fill:#FF7802;stroke:#F6F4F2;stroke-width:5;stroke-miterlimit:10;}
</style>
<g id="BACKGROUND">
</g>
<g id="OBJECTS">
</g>
<g id="DESIGNED_BY_FREEPIK">
	<path class="st85" d="M54.3,0.5C24.59,0.5,0.5,24.59,0.5,54.3c0,29.71,24.09,53.8,53.8,53.8s53.8-24.09,53.8-53.8
		C108.09,24.59,84.01,0.5,54.3,0.5z"/>
	<path class="st15" d="M52.33,51.93c0,0,2.75,0.91,3.35,1.29c0.6,0.38,0.58-7.39,0.58-7.39l-3.45-0.46L52.33,51.93z"/>
	<g>
		<path class="st47" d="M62.51,73.68c-5.46,0-10.89,0-16.37,0c-0.41-3.27-2.24-5.85-4.09-8.42c-1.67-2.32-3.3-4.68-4.21-7.43
			c-1.56-4.74-1.83-9.49,0.48-14.06c2.75-5.45,7.32-8.55,13.29-9.55c7.29-1.22,14.83,2.44,18.38,8.81c1.86,3.34,2.3,6.92,1.82,10.67
			c-0.44,3.53-1.82,6.67-3.81,9.57c-0.76,1.11-1.55,2.21-2.32,3.31C64.15,68.73,62.85,70.98,62.51,73.68z M40.57,49.24
			c-0.03,0.91,0.51,1.54,1.28,1.65c0.76,0.1,1.45-0.4,1.63-1.25c0.85-4,3.15-6.77,6.93-8.33c0.84-0.35,1.19-1.17,0.87-1.95
			c-0.33-0.79-1.13-1.09-1.98-0.76c-2.83,1.1-5.07,2.93-6.72,5.47C41.53,45.68,40.85,47.44,40.57,49.24z"/>
		<path class="st47" d="M46.19,83c5.43,0,10.76,0,16.08,0c0.58,2.73-0.89,4.52-3.22,4.41c-0.59-0.03-1.17,0-1.82,0
			c0,0.54,0.01,1.02,0,1.51c-0.04,1.63-1.33,2.91-2.94,2.91c-1.61,0-2.9-1.28-2.94-2.91c-0.01-0.47,0-0.94,0-1.5
			c-0.66,0-1.31,0-1.95,0c-1.99,0-3.2-1.21-3.2-3.21C46.19,83.8,46.19,83.4,46.19,83z"/>
		<path class="st47" d="M62.35,77.14c0,0.98,0,1.91,0,2.87c-5.37,0-10.71,0-16.11,0c0-0.94,0-1.88,0-2.87
			C51.59,77.14,56.94,77.14,62.35,77.14z"/>
		<path class="st47" d="M55.77,22.32c0,0.94,0.01,1.88,0,2.82c-0.01,0.95-0.62,1.61-1.47,1.61c-0.86,0-1.46-0.66-1.47-1.61
			c-0.01-1.88-0.01-3.76,0-5.63c0-0.92,0.61-1.56,1.44-1.58c0.86-0.02,1.49,0.64,1.5,1.58C55.78,20.44,55.77,21.38,55.77,22.32z"/>
		<path class="st47" d="M27.78,50.29c-0.94,0-1.88,0.01-2.82,0c-0.91-0.01-1.56-0.62-1.56-1.46c-0.01-0.84,0.64-1.47,1.54-1.48
			c1.92-0.01,3.84-0.01,5.76,0c0.9,0.01,1.54,0.65,1.53,1.48c-0.01,0.83-0.66,1.44-1.57,1.45C29.7,50.29,28.74,50.29,27.78,50.29z"
			/>
		<path class="st47" d="M80.8,50.29c-0.96,0-1.92,0.01-2.88,0c-0.91-0.01-1.55-0.63-1.55-1.46c0-0.84,0.64-1.47,1.54-1.47
			c1.92-0.01,3.84-0.01,5.76,0c0.9,0.01,1.54,0.66,1.52,1.49c-0.01,0.81-0.65,1.43-1.51,1.44C82.72,50.3,81.76,50.29,80.8,50.29z"/>
		<path class="st47" d="M39.12,32.01c-0.03,0.77-0.3,1.21-0.81,1.46c-0.54,0.27-1.11,0.25-1.55-0.17c-1.49-1.45-2.97-2.92-4.41-4.42
			c-0.52-0.55-0.4-1.42,0.15-1.94c0.54-0.51,1.36-0.59,1.89-0.07c1.5,1.45,2.96,2.93,4.41,4.42C39,31.51,39.06,31.87,39.12,32.01z"
			/>
		<path class="st47" d="M70.98,33.74c-0.65-0.14-1.09-0.4-1.34-0.93c-0.26-0.54-0.25-1.11,0.17-1.55c1.44-1.48,2.89-2.94,4.37-4.38
			c0.57-0.55,1.45-0.46,1.98,0.11c0.53,0.56,0.55,1.41,0,2c-0.7,0.74-1.44,1.45-2.16,2.17c-0.65,0.65-1.28,1.32-1.96,1.94
			C71.74,33.38,71.34,33.54,70.98,33.74z"/>
	</g>
</g>
</svg>
