<?xml version="1.0" encoding="utf-8"?>
<!-- Generator: Adobe Illustrator 25.0.0, SVG Export Plug-In . SVG Version: 6.00 Build 0)  -->
<svg version="1.1" id="Capa_1" xmlns="http://www.w3.org/2000/svg" xmlns:xlink="http://www.w3.org/1999/xlink" x="0px" y="0px"
	 viewBox="0 0 1376.39 874.91" style="enable-background:new 0 0 1376.39 874.91;" xml:space="preserve">
<style type="text/css">
	.st0{opacity:0.3;}
	.st1{fill:#686868;}
	.st2{fill:#939393;}
	.st3{fill:#838383;}
	.st4{fill:#A5A5A5;}
	.st5{fill:#E8E8E8;}
	.st6{fill:none;}
	.st7{fill:#D9C273;}
	.st8{fill:#793578;}
	.st9{fill:#062C4D;}
	.st10{fill:#CC7C57;}
	.st11{fill:#150E0D;}
	.st12{fill:#CA7C58;}
	.st13{fill:#B03B8F;}
	.st14{fill:#303030;}
	.st15{fill:#5F2B0D;}
	.st16{fill:#2F86A0;}
	.st17{fill:#065A73;}
	.st18{fill:#E35D6F;}
	.st19{opacity:0.4;fill:#65352E;}
	.st20{fill:#010001;}
	.st21{fill:#1A3238;}
	.st22{fill:#1F3D48;}
	.st23{fill:#D6D6D6;}
	.st24{fill:none;stroke:#003D6F;stroke-miterlimit:10;}
	.st25{fill:#B75F3D;}
	.st26{fill:#1C6F9C;}
	.st27{fill:#003D6F;}
	.st28{fill:#C4BFBF;}
	.st29{fill:#ABDAEE;}
	.st30{fill:#7C2C14;}
	.st31{fill:#37A7C1;}
	.st32{fill:#014D6F;}
	.st33{fill:#7D2D14;}
	.st34{fill:#84584C;}
	.st35{fill:none;stroke:#7C2C14;stroke-miterlimit:10;}
	.st36{fill:#975594;}
	.st37{fill:#4176A9;}
	.st38{fill:#C4855C;}
	.st39{fill:#9A5596;}
	.st40{opacity:0.57;}
	.st41{fill:#0187A7;}
	.st42{fill:#994899;}
	.st43{opacity:0.53;}
	.st44{fill:#744230;}
	.st45{fill:#5F3629;}
	.st46{fill:#754E45;}
	.st47{fill:#003956;}
	.st48{fill:#808080;}
</style>
<g id="BACKGROUND">
</g>
<g id="OBJECTS">
</g>
<g class="st0">
	<g>
		<polygon class="st1" points="583.6,555.57 656.14,555.57 656.14,519.23 583.6,501.07 		"/>
		<polygon class="st1" points="655.39,519.49 702.75,519.49 697.11,555.57 655.39,555.57 		"/>
		<polygon class="st1" points="704.76,519.55 654.51,519.55 581.15,500.88 658.07,504.43 		"/>
		<polygon class="st1" points="622.87,507.08 653.89,513.85 653.89,495.31 622.95,489.76 		"/>
		<polygon class="st1" points="653.89,495.05 686.21,495.05 682.36,513.85 653.89,513.85 		"/>
		<polygon class="st1" points="691.42,496.43 655.81,496.43 618.94,489.76 659.85,488.43 		"/>
		<path class="st1" d="M695.42,527.55h-35.13c0,0,0.89,8.89,1.33,9.78s31.12,0,31.12,0l2.67-8.89"/>
		<path class="st1" d="M623.65,555.57c0.18,0,2.41-23.12,2.41-23.12l-13.34-2.22v25.34L623.65,555.57L623.65,555.57z"/>
		<polygon class="st1" points="643.4,499.54 644.29,505.32 629.09,503.27 629.17,497.32 		"/>
	</g>
	<g>
		<polygon class="st1" points="864.72,430.1 937.26,430.1 937.26,393.77 864.72,375.6 		"/>
		<polygon class="st1" points="936.51,394.02 983.87,394.02 978.23,430.1 936.51,430.1 		"/>
		<polygon class="st1" points="985.88,394.09 935.63,394.09 862.27,375.41 939.19,378.97 		"/>
		<polygon class="st1" points="903.99,381.62 935,388.38 935,369.84 904.06,364.3 		"/>
		<polygon class="st1" points="935,369.59 967.33,369.59 963.48,388.38 935,388.38 		"/>
		<polygon class="st1" points="972.54,370.97 936.93,370.97 900.06,364.3 940.97,362.96 		"/>
		<path class="st1" d="M976.54,402.09h-35.13c0,0,0.89,8.89,1.33,9.78s31.12,0,31.12,0l2.67-8.89"/>
		<path class="st1" d="M904.77,430.1c0.18,0,2.41-23.12,2.41-23.12l-13.34-2.22v25.34L904.77,430.1L904.77,430.1z"/>
		<polygon class="st1" points="924.52,374.08 925.4,379.86 910.2,377.8 910.29,371.85 		"/>
	</g>
	<g>
		<polygon class="st1" points="681.71,494.25 754.25,494.25 754.25,457.92 681.71,439.75 		"/>
		<polygon class="st1" points="753.5,458.17 800.86,458.17 795.22,494.25 753.5,494.25 		"/>
		<polygon class="st1" points="802.87,458.23 752.62,458.23 679.26,439.56 756.18,443.12 		"/>
		<polygon class="st1" points="720.98,445.76 752,452.53 752,433.99 721.05,428.44 		"/>
		<polygon class="st1" points="752,433.74 784.32,433.74 780.47,452.53 752,452.53 		"/>
		<polygon class="st1" points="789.53,435.11 753.92,435.11 717.05,428.44 757.96,427.11 		"/>
		<path class="st1" d="M793.53,466.24H758.4c0,0,0.89,8.89,1.33,9.78s31.12,0,31.12,0l2.67-8.89"/>
		<path class="st1" d="M721.76,494.25c0.18,0,2.41-23.12,2.41-23.12l-13.34-2.22v25.34L721.76,494.25L721.76,494.25z"/>
		<polygon class="st1" points="741.51,438.23 742.4,444.01 727.19,441.95 727.28,436 		"/>
	</g>
	<g>
		<polygon class="st1" points="774.56,448.42 839.09,448.42 839.09,419.47 774.56,407.96 		"/>
		<polygon class="st1" points="839.09,419.47 883.04,419.47 877.8,448.42 839.09,448.42 		"/>
		<rect x="846.41" y="428.53" class="st1" width="27.56" height="6.63"/>
		<polygon class="st1" points="892.45,420.16 845.37,424.35 765.49,407.96 822.69,406.91 		"/>
		<polygon class="st1" points="802.81,422.6 802.58,448.42 810.05,448.42 812.61,422.6 		"/>
		<polygon class="st1" points="831.41,428.19 820.95,426.79 819.9,435.51 831.41,435.16 		"/>
		<polygon class="st1" points="794.44,424.35 793.39,434.12 778.4,434.12 778.4,426.09 		"/>
	</g>
	<path class="st2" d="M1376.39,370.12c0,0-381.94-291.28-819.77,191.5C369.09,768.4,292.06,806.14,292.06,806.14
		s71.61-51.9-81.66,48.82c0,0,3.03,23.74,44.53,19.96s1146.52,0,1146.52,0L1376.39,370.12z"/>
	<path class="st2" d="M368.9,748.4C154.37,915.02-176.29,874.91-147.29,874.91c128.7,0,568.08,0,568.08,0
		c-197.24-29.67-168.86-22.75-18.87-68.97S400.91,723.54,368.9,748.4z"/>
	<g>
		<g>
			<g>
				<polygon class="st3" points="1193.63,375.78 1179.48,375.78 1179.48,82.16 1183.72,82.16 				"/>
				<polygon class="st3" points="1154.01,84.28 1183.72,87.11 1183.72,82.16 1154.01,82.16 				"/>
				<path class="st3" d="M1148.42,90.65h-2.98c-4.65,0-8.41-3.77-8.41-8.41v-0.08h19.81v0.08
					C1156.84,86.89,1153.07,90.65,1148.42,90.65z"/>
			</g>
			<g>
				<polygon class="st4" points="885.15,438.04 855.44,441.81 855.44,457.85 840.82,457.85 840.82,471.06 814.4,471.06 
					814.4,479.55 789.87,479.55 789.87,488.98 754.03,488.98 754.03,502.19 735.16,502.19 734.78,521.01 929.48,520.55 
					1066.28,434.27 935.15,434.27 				"/>
				<polygon class="st1" points="1017.22,441.81 986.56,441.81 986.56,457.85 971.94,457.85 971.94,471.06 945.53,471.06 
					945.53,479.55 921,479.55 921,488.98 885.15,488.98 885.15,502.19 866.29,502.19 866.29,521.01 1054.96,519.64 1066.28,434.27 
									"/>
			</g>
			<polygon class="st3" points="917.23,436.15 1018.16,436.15 1037.03,199.37 898.36,160.7 			"/>
			<polygon class="st1" points="1037.01,204.09 1093.63,204.09 1067.08,436.15 1017.2,436.15 			"/>
			<polygon class="st4" points="1128.54,199.71 1031.27,213.52 866.29,159.43 984.44,155.98 			"/>
			<g>
				<g>
					<polygon class="st4" points="1228.1,468.23 1261.42,485.21 1261.24,505.35 1274.28,505.46 1274.28,519.17 1290.65,519.17 
						1290.65,527.66 1305.85,527.66 1305.85,537.09 1328.06,537.09 1328.06,550.3 1339.75,550.3 1339.92,567.75 1259.66,569.16 
						1224.01,565.6 1039.86,482.38 1063.24,468.23 					"/>
					<polygon class="st1" points="1164.96,486.15 1183.96,489.92 1183.96,505.96 1193.02,505.39 1193.02,519.17 1209.39,519.17 
						1209.39,527.66 1224.59,527.66 1224.59,537.09 1246.8,537.09 1246.8,550.3 1258.5,550.3 1258.7,569.16 1136.9,556.9 
						1134.56,482.38 					"/>
				</g>
				<polygon class="st1" points="1136.9,556.9 1039.86,549.35 1039.86,482.38 1134.56,482.38 				"/>
				<rect x="1193.02" y="505.4" class="st2" width="81.26" height="13.3"/>
				<rect x="1224.59" y="527.66" class="st2" width="81.26" height="9.43"/>
				<rect x="1258.49" y="550.29" class="st2" width="81.43" height="18.87"/>
			</g>
			<polygon class="st3" points="1051.82,476.72 1161.95,476.72 1161.95,363.2 1051.82,351.25 			"/>
			<polygon class="st1" points="1160.3,365.4 1248.49,365.4 1237.99,476.72 1160.3,476.72 			"/>
			<polygon class="st4" points="1259.66,365.4 1160.3,378.61 1036.09,351.25 1156.98,338.04 			"/>
			<path class="st1" d="M1109.97,476.72c-1.01-3.77-2.67-63.2-2.67-63.2h-10.76l-9.94,63.2H1109.97z"/>
			<polygon class="st5" points="1084.2,408.3 1065.52,404.08 1063.65,430.49 1084.2,429.44 			"/>
			<polygon class="st5" points="1142.69,406.42 1124.01,402.19 1122.14,428.61 1142.69,427.55 			"/>
			<polyline class="st1" points="997.41,220.13 997.9,220.25 1022.88,226.73 1017.22,257.86 995.52,257.86 			"/>
			<polyline class="st5" points="989.86,272.95 990.35,273.08 1015.33,279.56 1009.67,310.69 987.98,310.69 			"/>
			<polyline class="st5" points="985.15,329.55 985.63,329.68 1010.62,336.16 1004.96,367.29 983.26,367.29 			"/>
			<polyline class="st5" points="957.79,209.75 958.28,209.88 983.26,216.35 977.6,247.48 955.9,247.48 			"/>
			<polyline class="st1" points="955.9,267.29 956.39,267.42 981.37,273.9 975.71,305.03 954.02,305.03 			"/>
			<polyline class="st1" points="954.02,324.84 954.5,324.96 975.71,324.84 973.83,362.57 952.13,362.57 			"/>
			<polyline class="st1" points="951.19,398.42 951.67,398.54 972.88,398.42 971,436.15 949.3,436.15 			"/>
			<polyline class="st1" points="920.06,201.26 920.54,201.39 945.53,207.86 939.87,238.99 918.17,238.99 			"/>
			<polyline class="st5" points="920.06,264.46 920.54,264.59 945.53,271.07 939.87,302.2 918.17,302.2 			"/>
			<polyline class="st1" points="922.89,321.06 923.37,321.19 945.53,324.84 942.7,358.8 921,358.8 			"/>
		</g>
		<g>
			<polygon class="st3" points="724.33,592.75 878.23,592.75 878.23,515.66 724.33,477.12 			"/>
			<polygon class="st1" points="876.64,516.2 977.11,516.2 965.15,592.75 876.64,592.75 			"/>
			<polygon class="st4" points="981.37,516.34 874.78,516.34 719.12,476.72 882.32,484.26 			"/>
			<polygon class="st3" points="807.64,489.88 873.45,504.23 873.45,464.9 807.8,453.13 			"/>
			<polygon class="st1" points="873.45,464.36 942.02,464.36 933.86,504.23 873.45,504.23 			"/>
			<polygon class="st4" points="953.07,467.28 877.53,467.28 799.31,453.13 886.1,450.3 			"/>
			<path class="st4" d="M961.56,533.32h-74.52c0,0,1.89,18.87,2.83,20.75c0.94,1.89,66.03,0,66.03,0l5.66-18.87"/>
			<path class="st1" d="M809.29,592.75c0.39,0,5.11-49.05,5.11-49.05l-28.3-4.72v53.77L809.29,592.75L809.29,592.75z"/>
			<polygon class="st1" points="851.19,473.89 853.08,486.15 820.83,481.79 821.01,469.17 			"/>
		</g>
		<polyline class="st5" points="741.76,520.11 742.25,520.19 763.46,520.11 761.57,544.64 739.88,544.64 		"/>
		<polyline class="st5" points="836.1,532.37 836.58,532.46 857.8,532.37 855.91,556.9 834.21,556.9 		"/>
	</g>
	<g>
		<g>
			<g>
				<polygon class="st4" points="864.97,579.81 827.71,589.51 824.44,598.68 813.33,599.76 813.33,608.92 795.02,608.92 
					795.02,613.77 778.02,613.77 778.02,619.16 753.18,619.16 753.18,626.71 740.1,626.71 736.83,641.26 870.86,633.18 
					1075.49,587.9 1049.34,579.81 				"/>
				<polygon class="st1" points="935.58,590.05 914.34,592.21 914.34,601.37 904.2,601.37 904.2,608.92 885.9,608.92 885.9,613.77 
					868.9,613.77 868.9,619.16 844.05,619.16 844.05,626.71 830.98,626.71 829.67,637.49 966.96,630.48 969.58,587.9 				"/>
			</g>
			<polygon class="st1" points="966.96,630.48 1072.88,626.17 1072.88,587.9 969.58,587.9 			"/>
			<polygon class="st2" points="914.66,592.21 827.71,589.51 824.44,598.68 914.66,601.37 			"/>
			<polygon class="st2" points="751.22,618.08 844.05,619.16 844.05,626.71 751.22,625.09 			"/>
			<polygon class="st2" points="736.83,633.18 829.67,634.25 829.67,641.8 736.83,640.18 			"/>
			<polygon class="st2" points="813.33,599.76 887.2,608.92 885.24,613.77 813.33,608.92 			"/>
		</g>
		<polygon class="st1" points="1003.5,516.92 1079.72,516.92 1070.65,589.92 1003.5,589.92 		"/>
		<polygon class="st3" points="870.79,582.37 1003.52,589.92 1003.52,514.81 871.12,506.9 		"/>
		<polygon class="st4" points="1089.64,516.34 1004.74,522 860.41,506.9 981.16,498.41 		"/>
		<path class="st1" d="M945.86,586.14c0.39,0,5.11-49.05,5.11-49.05l-28.3-4.72v53.77L945.86,586.14L945.86,586.14z"/>
		<polyline class="st1" points="965.12,538.03 965.61,538.12 986.82,538.03 984.93,562.56 963.24,562.56 		"/>
		<polyline class="st1" points="886.82,531.43 887.31,531.51 908.52,531.43 906.63,555.96 884.94,555.96 		"/>
		<g>
			<polygon class="st3" points="1073.11,625.76 1169.99,625.76 1169.99,577.24 1073.11,552.98 			"/>
			<polygon class="st1" points="1168.99,577.58 1232.23,577.58 1224.71,625.76 1168.99,625.76 			"/>
			<polygon class="st4" points="1234.92,577.66 1167.82,577.66 1069.83,552.72 1172.57,557.47 			"/>
			<polygon class="st3" points="1125.55,561.01 1166.98,570.05 1166.98,545.28 1125.65,537.88 			"/>
			<polygon class="st1" points="1166.98,544.95 1210.15,544.95 1205.01,570.05 1166.98,570.05 			"/>
			<polygon class="st4" points="1217.1,546.79 1169.55,546.79 1120.31,537.88 1174.94,536.1 			"/>
			<path class="st4" d="M1222.45,588.35h-46.91c0,0,1.19,11.88,1.78,13.06c0.59,1.19,41.57,0,41.57,0l3.56-11.88"/>
			<path class="st1" d="M1126.59,625.76c0.25,0,3.22-30.88,3.22-30.88l-17.81-2.96v33.85L1126.59,625.76L1126.59,625.76z"/>
			<polygon class="st1" points="1152.97,550.94 1154.16,558.66 1133.85,555.91 1133.97,547.97 			"/>
		</g>
	</g>
	<g>
		<g>
			<polygon class="st3" points="652.1,632.56 637.95,632.56 637.95,338.94 642.19,338.94 			"/>
			<polygon class="st3" points="612.48,341.07 642.19,343.9 642.19,338.94 612.48,338.94 			"/>
			<path class="st3" d="M606.89,347.43h-2.98c-4.65,0-8.41-3.77-8.41-8.41v-0.08h19.81v0.08
				C615.31,343.67,611.54,347.43,606.89,347.43z"/>
		</g>
		<g>
			<g>
				<polygon class="st4" points="530.4,699.54 476.63,716.52 471.92,732.55 455.88,734.44 455.88,750.48 429.47,750.48 
					429.47,758.97 404.94,758.97 404.94,768.4 369.09,768.4 369.09,781.61 350.23,781.61 350.7,801.89 479.46,800.48 834.16,713.69 
					796.43,699.54 				"/>
				<polygon class="st1" points="632.29,717.46 601.63,721.23 601.63,737.27 587,737.27 587,750.48 560.59,750.48 560.59,758.97 
					536.06,758.97 536.06,768.4 500.22,768.4 500.22,781.61 481.35,781.61 479.46,800.48 677.57,788.21 681.34,713.69 				"/>
			</g>
			<polygon class="st1" points="677.57,788.21 830.39,780.67 830.39,713.69 681.34,713.69 			"/>
			<polygon class="st2" points="602.1,721.23 476.63,716.52 471.92,732.55 602.1,737.27 			"/>
			<polygon class="st2" points="369.09,768.4 500.22,768.4 500.22,781.61 369.09,781.59 			"/>
			<polygon class="st2" points="455.88,734.44 562.48,750.48 559.65,758.97 455.88,750.48 			"/>
		</g>
		<g>
			<g>
				<polygon class="st4" points="1253.34,685.39 1303.99,702.37 1308.44,718.4 1323.55,720.29 1323.55,736.33 1348.43,736.33 
					1348.43,744.82 1371.54,744.82 1371.54,754.25 1405.31,754.25 1405.31,767.46 1423.08,767.46 1427.53,792.93 1245.34,778.78 
					967.17,699.54 1002.72,685.39 				"/>
				<polygon class="st1" points="1157.36,703.31 1186.24,707.08 1186.24,723.12 1200.02,723.12 1200.02,736.33 1224.9,736.33 
					1224.9,744.82 1248.01,744.82 1248.01,754.25 1281.78,754.25 1281.78,767.46 1299.55,767.46 1301.33,786.33 1114.7,774.06 
					1111.14,699.54 				"/>
			</g>
			<polygon class="st1" points="1114.7,774.06 970.73,766.52 970.73,699.54 1111.14,699.54 			"/>
			<polygon class="st2" points="1185.8,707.08 1303.99,702.37 1308.44,718.4 1185.8,723.12 			"/>
			<polygon class="st2" points="1407.97,752.37 1281.78,754.25 1281.78,767.46 1407.97,764.63 			"/>
			<polygon class="st2" points="1427.53,778.78 1301.33,780.67 1301.33,793.87 1427.53,791.04 			"/>
			<polygon class="st2" points="1323.55,720.29 1223.12,736.33 1225.79,744.82 1323.55,736.33 			"/>
		</g>
		<g>
			<polygon class="st3" points="521.91,704.25 696.43,704.25 696.43,625.96 521.91,594.83 			"/>
			<polygon class="st1" points="696.43,625.96 815.29,625.96 801.14,704.25 696.43,704.25 			"/>
			<rect x="716.24" y="650.48" class="st5" width="74.52" height="17.92"/>
			<polygon class="st4" points="840.76,627.84 713.41,639.16 497.39,594.83 652.1,592 			"/>
			<polygon class="st1" points="598.32,634.45 597.71,704.25 617.89,704.25 624.82,634.45 			"/>
			<polygon class="st5" points="675.68,649.54 647.38,645.77 644.55,669.35 675.68,668.41 			"/>
			<polygon class="st5" points="575.68,639.16 572.85,665.58 532.29,665.58 532.29,643.88 			"/>
		</g>
		<g>
			<polygon class="st3" points="824.89,699.54 927.55,699.54 927.55,642.95 824.89,620.46 			"/>
			<polygon class="st1" points="927.55,642.95 997.47,642.95 989.15,699.54 927.55,699.54 			"/>
			<rect x="939.21" y="660.68" class="st5" width="43.84" height="12.95"/>
			<polygon class="st4" points="1012.45,644.32 937.54,652.5 810.47,620.46 901.47,618.41 			"/>
			<polygon class="st1" points="869.84,649.09 869.48,699.54 881.35,699.54 885.43,649.09 			"/>
			<polygon class="st5" points="915.34,660 898.7,657.27 897.03,674.31 915.34,673.63 			"/>
			<polygon class="st5" points="856.52,652.5 854.86,671.59 831,671.59 831,655.91 			"/>
		</g>
		<polygon class="st3" points="1001.13,693.88 1183.2,693.88 1183.2,635.39 1001.13,621.24 		"/>
		<polygon class="st1" points="1183.2,634.45 1283.67,634.45 1271.71,693.88 1183.2,693.88 		"/>
		<polygon class="st4" points="1306.78,633.5 1179.43,644.82 982.27,623.13 1120,602.37 		"/>
		<polygon class="st1" points="1096.67,693.88 1096.41,668.41 1082.26,665.58 1079.43,693.88 		"/>
		<g>
			<polygon class="st3" points="812.95,806.14 966.86,806.14 966.86,729.05 812.95,690.51 			"/>
			<polygon class="st1" points="965.26,729.58 1065.73,729.58 1053.77,806.14 965.26,806.14 			"/>
			<polygon class="st4" points="1070,729.72 963.4,729.72 807.75,690.1 970.95,697.65 			"/>
			<polygon class="st3" points="896.26,703.27 962.07,717.62 962.07,678.28 896.42,666.52 			"/>
			<polygon class="st1" points="962.07,677.75 1030.65,677.75 1022.48,717.62 962.07,717.62 			"/>
			<polygon class="st4" points="1041.7,680.67 966.16,680.67 887.93,666.52 974.72,663.69 			"/>
			<path class="st5" d="M1050.19,746.71h-74.52c0,0,1.89,18.87,2.83,20.75c0.94,1.89,66.03,0,66.03,0l5.66-18.87"/>
			<path class="st1" d="M897.92,806.14c0.39,0,5.11-49.05,5.11-49.05l-28.3-4.72v53.77L897.92,806.14L897.92,806.14z"/>
			<polygon class="st1" points="939.82,687.27 941.7,699.54 909.45,695.17 909.63,682.56 			"/>
		</g>
		<polygon class="st5" points="1149.24,652.37 1120.94,648.6 1118.11,672.18 1149.24,671.24 		"/>
		<polygon class="st5" points="944.53,744.82 916.23,741.04 913.4,764.63 944.53,763.69 		"/>
		<polygon class="st5" points="863.41,732.55 835.1,728.78 832.27,752.37 863.41,751.42 		"/>
		<polygon class="st5" points="1050.19,643.88 1021.89,640.11 1019.06,663.69 1050.19,662.75 		"/>
	</g>
</g>
<rect x="-546.8" y="-108.58" class="st6" width="1924.62" height="983.49"/>
<g>
	<path class="st7" d="M769.67,514.9h-98.14c-5.92,0-10.71-4.8-10.71-10.71v-21.9c0-5.92,4.8-10.71,10.71-10.71h98.14
		c5.92,0,10.71,4.8,10.71,10.71v21.9C780.38,510.1,775.59,514.9,769.67,514.9z"/>
	<path class="st8" d="M775.33,534.83v110c0,6.16-4.99,11.15-11.15,11.15h-87.16c-6.16,0-11.15-4.99-11.15-11.15v-110
		c0-13.27,10.76-24.03,24.03-24.03h61.41C764.58,510.8,775.33,521.56,775.33,534.83z"/>
	<path class="st7" d="M1112.05,396.09h-97.52c-16.51,0-29.89-13.38-29.89-29.89v0c0-16.51,13.38-29.89,29.89-29.89h97.52
		c16.51,0,29.89,13.38,29.89,29.89v0C1141.93,382.71,1128.55,396.09,1112.05,396.09z"/>
	<path class="st9" d="M1125.54,564.33l-136.85-3.27c-14.56-0.35-25.32-13.7-22.57-28l28.5-148.25c2.08-10.83,11.39-18.76,22.41-19.1
		l88.08-2.72c12.1-0.37,22.51,8.48,24.09,20.48l20.26,154.24C1151.34,552.04,1139.99,564.67,1125.54,564.33z"/>
	<path class="st10" d="M673.72,666.21c0,0,4.35,4.82,7.33,9.82c2.71,4.56,3.74,4.3,3.84,5.12c0,0-3.9,2.3-6.5-2.25l1.36,9.08
		c2.13,4.23,4.31,7.63,3.22,8.07c0,0-3.33-0.22-6.77-9.26c1.31,3.85,2.33,8.83,1.81,9.09c-0.57,1.09-6.55-1.1-7.18-2.29
		c0,0-8.88-11.51-3.87-26.28C671.95,652.55,673.72,666.21,673.72,666.21z"/>
	<polygon class="st11" points="759.46,510.5 752.05,510.76 750.99,506.52 750.07,510.83 704.67,512.43 703.68,510.9 703.21,512.48 
		702.77,512.49 701.05,508.8 700.2,512.58 689.14,512.97 687.49,463.44 759.41,463.44 	"/>
	<ellipse class="st12" cx="723.95" cy="469.13" rx="35.51" ry="38.71"/>
	<ellipse class="st12" cx="695.32" cy="476.89" rx="10.67" ry="7.79"/>
	<ellipse class="st12" cx="752.12" cy="475.47" rx="10.67" ry="7.79"/>
	<path class="st11" d="M687.09,466.64c0,0,2.55-39.56,36.85-39.02c34.3,0.54,37.79,36.59,37.79,36.59l-28.33-14.53l-30.22,5.73
		L687.09,466.64z"/>
	
		<rect x="696.37" y="444.01" transform="matrix(0.9214 0.3885 -0.3885 0.9214 228.3634 -238.0273)" class="st13" width="12.8" height="3.33"/>
	<path class="st14" d="M706.8,464.03c0.38-0.99,1.12-1.7,1.93-2.23c0.81-0.55,1.75-0.87,2.72-1.04c1.92-0.27,4.01,0.16,5.42,1.67
		c-1,0.35-1.84,0.48-2.66,0.65l-2.35,0.4C710.3,463.69,708.83,463.93,706.8,464.03z"/>
	<path class="st14" d="M728.96,461.75c0.65-0.83,1.56-1.3,2.5-1.57c0.94-0.29,1.93-0.32,2.9-0.2c1.92,0.31,3.78,1.33,4.7,3.18
		c-1.06,0.04-1.9-0.08-2.73-0.16l-2.36-0.31C732.41,462.45,730.93,462.24,728.96,461.75z"/>
	<circle class="st15" cx="734.7" cy="470.58" r="1.79"/>
	<circle class="st15" cx="712.34" cy="471.02" r="1.79"/>
	<path class="st15" d="M722.53,474.51c-0.15,2.52-0.46,5.04-0.75,7.55c-0.09,0.63-0.33,1.24-0.44,1.87
		c-0.01,0.13-0.09,0.38-0.03,0.43c0.01,0.07,0.06,0.04,0.2,0.05c0.27,0.01,0.68-0.06,1.06-0.15c1.55-0.37,3.16-0.56,5.12,0
		c-0.69,0.61-1.51,0.92-2.37,1.12c-0.86,0.2-1.79,0.22-2.75,0.05c-0.48-0.08-0.96-0.19-1.48-0.43c-0.23-0.09-0.58-0.41-0.48-0.66
		c0.05-0.27,0.13-0.32,0.17-0.5c0.18-0.61,0.15-1.25,0.27-1.87L722.53,474.51z"/>
	<path class="st15" d="M716.82,494.69c0,0,5.39,4.97,14.43,0.51"/>
	<path class="st10" d="M707.08,564.89l-30.12,48.82l-3.24,52.51l-6.78,1.1c0,0-1.41-45.16-0.11-55.98
		c1.04-8.71,19.94-55.2,27.73-73.39c1.97-4.6,5.48-8.36,9.94-10.65l6.44-2.56L707.08,564.89z"/>
	<path class="st10" d="M764.43,665.28c0,0-4.47,4.72-7.56,9.64c-2.82,4.49-3.84,4.21-3.96,5.02c0,0,3.84,2.39,6.56-2.09l-1.58,9.05
		c-2.23,4.18-4.5,7.52-3.41,7.99c0,0,3.34-0.14,6.99-9.09c-1.41,3.82-2.54,8.77-2.03,9.04c0.54,1.1,6.57-0.94,7.24-2.11
		c0,0,9.15-11.3,4.5-26.18C766.53,651.66,764.43,665.28,764.43,665.28z"/>
	<path class="st10" d="M733.52,563.18l29.17,48.15l1.73,53.95l6.75,1.26c0,0,2.35-46.93,1.32-57.78
		c-0.83-8.73-18.46-53.85-25.81-72.22c-1.86-4.65-5.28-8.49-9.68-10.89l-6.38-2.71L733.52,563.18z"/>
	<path class="st16" d="M686.44,651.69c-3.06,25.92-1.3,56.64,2.4,89.29l8.42,69.45h10.22c1.35-28.05,3.7-59.2,0-71.55
		c2.5-15.3,5.59-41.22,8.48-58.93L686.44,651.69z"/>
	<path class="st16" d="M752.51,651.69c3.06,25.92,1.3,56.64-2.41,89.29l-8.42,69.45h-10.22c-1.35-28.05-3.7-59.2,0-71.55
		c-2.5-15.3-4.85-41.22-7.75-58.93L752.51,651.69z"/>
	<ellipse class="st16" cx="720.23" cy="663.64" rx="33.07" ry="18.64"/>
	<path class="st17" d="M685.63,658.27c-1.23,5,38.25,22.74,68.44,9.08l-1.47-9.08H685.63z"/>
	<path class="st18" d="M733.68,524.24l-22.74,0.49c-16.33,35.32-19.03,40.15-14.84,64.81c4.13,11.86-13.88,44.8-13.88,67.27
		c24.61,12.04,51.92,15.79,76.53,2.4c-1.87-25.86-17.19-51.72-14.23-68.85C752.65,565.08,752.65,565.08,733.68,524.24z"/>
	<path class="st11" d="M676.19,817.89c0,0,0.9-6.36,22.03-7.48l1.07-3.81l7.34,1.07l0.9,10.21H676.19z"/>
	<path class="st11" d="M762.68,817.89c0,0-0.9-6.36-22.03-7.48l-1.07-3.81l-7.34,1.07l-0.9,10.21H762.68z"/>
	<path class="st18" d="M710.95,524.48c-2.14,2.4,10.49,98.86,10.49,98.86l12.24-98.25C726.76,518.95,719.09,519.64,710.95,524.48z"
		/>
	<path class="st10" d="M719.19,500.71h8.06c0.41,10.2,0.2,19.1,5.36,25.53c-6.96,12.92-13.91,12.92-20.87,0
		C717.1,522.16,719.3,513.21,719.19,500.71z"/>
	<path class="st19" d="M719.05,507.8l-0.89,6.08c4.18,0.15,5.91,0.58,9.53-1.15l-0.19-4.93H719.05z"/>
	<circle class="st20" cx="1054.81" cy="321.27" r="1.08"/>
	<path class="st21" d="M1027.46,820.64h-59.34l0,0c5.96-10.41,15.59-15.93,25.4-14.55l14.97,2.11l5.5-24h11.09L1027.46,820.64z"/>
	<path class="st21" d="M1082.18,820.64h58.23l0,0c-5.85-10.41-15.31-15.93-24.93-14.55l-14.69,2.11l-5.4-24h-10.88L1082.18,820.64z"
		/>
	<path class="st22" d="M1007.68,802.32c-12.44-50.59-7.58-62.52-9.88-100.72c-7.51-63.28-9.6-112.62-5.52-134.62l65.58,44.77
		l-24.73,87.07c-0.35,27.58-0.78,58.67-4,103.74L1007.68,802.32z"/>
	<path class="st22" d="M1101.31,806.6c12.44-50.59,7.58-62.52,9.88-100.72c7.51-63.28,9.6-112.62,5.52-134.62l-65.58,44.77
		l24.73,87.07c0.35,27.58,0.77,58.67,4,103.74L1101.31,806.6z"/>
	<path class="st22" d="M1047.45,641.04c0,0,8.47-27.02,18.89,0c4.94,12.81,33.84,0.86,45.84-23.2c13.32-26.7,6.59-66.57,6.59-66.57
		s-70.15,41.77-126.49,0l-0.04,42.79l37.86,18.74L1047.45,641.04z"/>
	<path class="st23" d="M1123.93,583.87c-57.37,17.26-86.66,13.51-138.32-2.61l13.45-86.37l-16.6-64.63
		c-2.5-28.7,20.12-53.37,48.93-53.37h48.19c30.57,0,53.71,27.62,48.36,57.72l-15.01,62.54L1123.93,583.87z"/>
	<line class="st24" x1="1057.85" y1="595.56" x2="1055.78" y2="372.92"/>
	<path class="st10" d="M1049.4,350.77l16.13-1.36c1.74,10.87,2.12,20.43,13.04,26.46c-12.76,15.02-26.69,16.19-41.78,3.52
		C1047.16,374.1,1050.76,364.14,1049.4,350.77z"/>
	<path class="st25" d="M1049.77,358.39l-1.22,6.67c8.38-0.54,11.89-0.38,18.98-2.85l-0.82-5.25L1049.77,358.39z"/>
	<path class="st10" d="M1084.53,315.49c2.47,29.23-0.71,40.49-26.38,42.65c-23.25,1.96-31.32-6.22-32.82-37.66
		c-0.98-20.45,10.14-38.06,26.49-39.43C1068.17,279.67,1082.81,295.09,1084.53,315.49z"/>
	<circle class="st20" cx="1054.21" cy="317.34" r="1.15"/>
	<circle class="st20" cx="1033.09" cy="320.84" r="1.15"/>
	<path class="st14" d="M1049.21,310.59c-0.2-0.08-0.06-0.4,0.05-0.5c0.12-0.14,0.25-0.24,0.39-0.33c0.27-0.19,0.56-0.33,0.85-0.46
		c0.58-0.23,1.19-0.39,1.79-0.47c1.22-0.18,2.45-0.05,3.63,0.24c2.33,0.64,4.59,2.21,5.41,4.6c-2.36-0.77-4.15-1.41-6.14-1.92
		c-0.97-0.29-1.97-0.51-2.98-0.77l-1.56-0.35c-0.27-0.07-0.53-0.11-0.8-0.15C1049.62,310.49,1049.24,310.33,1049.21,310.59z"/>
	<path class="st20" d="M1053.01,316.1c-1.4-0.06-2.85,0.67-4.41,1.83c-0.19-0.77,0.09-1.59,0.86-2.28c0.74-0.7,2.1-1.23,3.59-1.2
		c1.48,0.03,2.81,0.55,3.53,1.24c0.76,0.68,1.07,1.47,0.98,2.25c-0.89-0.53-1.62-1-2.38-1.34"/>
	<path class="st20" d="M1031.54,319.6c-1.31-0.06-2.68,0.67-4.15,1.83c-0.18-0.77,0.09-1.59,0.81-2.28c0.69-0.7,1.98-1.23,3.38-1.2
		c1.39,0.03,2.64,0.55,3.33,1.24c0.71,0.68,1,1.47,0.92,2.25c-0.84-0.53-1.52-1-2.24-1.34"/>
	<path class="st11" d="M1090.72,307.97c-3.47-40.76-36.89-39.33-36.89-39.33c-38.72,4-34.49,51.04-34.49,51.04s6.77-7.61,14.68-7.53
		l-2.38,3.68c0,0,11.43-3.2,20.28-9.9c0,0-0.9,0.82-5.34,6.56c4.76-1.91,8.78-4.41,11.6-7.84c0,0-1.44,2.38-2.26,4.75
		c8.46-1.02,13.68-7.65,16.32-14.29c0,0,4.61,18.64,12.31,20.39l0.68,12.41l4.6-12.89C1090.61,312.76,1090.92,310.35,1090.72,307.97
		z"/>
	<path class="st26" d="M1051.32,448.08l68-3.08c0,0,7.19,20.92-22.99,25.59C1054.01,477.14,1049.2,479.61,1051.32,448.08z"/>
	<path class="st27" d="M1111.53,546.61c-1.56,1.06-0.8,2.7-0.54,4.12c0.63,3.47-2.36,6.91-1.76,10.38c0.41,2.35,2.55,4.58,5.72,5.92
		c0.4,0.17,0.85,0.34,1.34,0.34c1.05,0.01,1.74-0.65,2.18-1.23c1.67-2.22,2.82-4.58,3.41-7c0.15-0.63,0.27-1.27,0.14-1.9
		c-0.16-0.79-0.68-1.54-1.03-2.31c-1.06-2.38,0.12-5.58-1.97-7.75C1117.67,545.78,1113.45,545.3,1111.53,546.61z"/>
	<polygon class="st26" points="1105.96,549.66 1122.1,546.37 1123.31,499.04 1094.42,497.14 	"/>
	<path class="st27" d="M1062.91,542.18c1.15,1.96,1.33,4.25,0.49,6.3c-0.54,1.31-1.47,2.52-1.84,3.87c-0.71,2.59-1.61,5.2-0.18,7.6
		c0.47,0.79,0.96,1.6,1.78,2.19c0.82,0.59,2.06,0.91,3.07,0.54c1.35-0.49,4.02-1.85,4.26-2.99c0.55-2.67,1.67-5.27,3.28-7.66
		c0.92-1.36,2.02-2.7,2.26-4.22c0.5-3.11-2.72-5.84-6.14-7.49C1067.68,541.09,1065.26,541.73,1062.91,542.18z"/>
	<path class="st26" d="M1076.57,541.57l-16.55,3.48l-9.01-27.35c-2.85-8.64-3.03-17.93-0.53-26.68l2.46-8.61l20.11,6.43
		L1076.57,541.57z"/>
	<path class="st10" d="M1072.29,475.52c-6.29-0.1-12.5-2.97-16.64-7.72c-1.88-2.15-3.32-4.63-5.04-6.92
		c-0.31-0.42-0.75-0.87-1.26-0.78c-0.48,0.09-0.74,0.61-0.89,1.08c-1.46,4.45-0.12,9.7,3.31,12.89c-5.92-1.13-10.68-4.87-15.64-8.3
		c-1.81-1.25-4.43-2.37-5.99-0.83c-0.72,0.72-0.93,1.8-0.99,2.81c-0.39,6.06,2.97,11.91,7.64,15.78c4.68,3.87,10.53,6.01,16.4,7.57
		c3.04,0.81,6.13,1.48,9.27,1.58c0.77,0.03,1.56,0.01,2.27-0.3c1.93-0.84,2.33-3.34,2.47-5.44c2.57-2.14,5.07-3.5,7.92-5.25
		c-0.66-0.97-0.65-2.22-0.76-3.38S1073.46,475.54,1072.29,475.52z"/>
	<path class="st28" d="M1100.42,381.15c27.13,10.25,46.32,32.11,59.04,93.62c1.04,5.03-1.01,17.31-4.55,21.03
		c-3.98,4.19-10.28,4.98-16.05,5.36c-25.33,1.66-50.87,0.08-75.8-4.71c-0.21-8.37,0.02-16.09-0.19-24.46
		c9.44-0.77,18.48-1.98,27.61-4.46c13.87-3.77,31.8-9.93,33.74-13.19C1107.3,428.02,1101.31,394.44,1100.42,381.15z"/>
	<path class="st29" d="M1125.25,446.37l-1.46-42.25c0,0,17.21,17.38,19.58,18.83c4.97,3.05,11.88-7.23,5.79-19.96
		c-6.09-12.73-28.64-39.12-40.99-44.66c0,0,2.4-2.32-2.58-10.17c-3.85-6.07-11.96,5.62-16.22,5.36c-5.44-0.33-12.18-2.8-16.6-3.35
		c-4.43-0.55-11.28-5.44-7.31,7.25l-33.7,15.39c0,0-6.44-1.02-14.19,0.09c-1.63,0.23-3.12,0.78-4.45,1.48
		c-5.08,2.71-4.89,6.47-0.92,10.65c7.12,7.49,13.49,13.14,20.31,13.56c10.03,0.61,15.85-3.62,15.85-3.62l-1.08,54.3L1125.25,446.37z
		"/>
	<path class="st30" d="M1039.34,315.48c-0.65,2.37-1.26,4.76-1.81,7.15c-0.53,2.39-0.98,4.81-1.15,7.22
		c-0.05,1.16-0.36,2.47,0.17,3.43c0.54,0.95,1.81,0.92,2.84,0.69c1.07-0.25,2.13-0.48,3.26-0.58c0.56-0.05,1.14-0.09,1.73-0.12
		c0.56-0.07,1.27,0.12,1.71-0.23c0.31,0.38-0.08,0.86-0.25,1.13c-0.22,0.32-0.49,0.55-0.76,0.79c-0.55,0.44-1.15,0.76-1.78,1.01
		c-1.26,0.48-2.67,0.59-4.05,0.19c-1.34-0.38-2.83-1.18-3.39-2.56c-0.44-1.33-0.53-2.58-0.43-3.85c0.29-2.5,0.92-4.89,1.58-7.27
		C1037.67,320.12,1038.45,317.78,1039.34,315.48z"/>
	<path class="st31" d="M1031.76,372.81c0,0-5.65,0.26-6.76,5.01"/>
	<path class="st31" d="M1031.76,373.28c0,0-2.18,1.51-2.2,4.54"/>
	<polygon class="st31" points="1127.04,407.38 1120.83,381.15 1123.79,404.12 	"/>
	<polygon class="st32" points="1050.91,449.14 1120.07,452.79 1119.64,446.58 	"/>
	<circle class="st24" cx="1049.22" cy="568.68" r="2.39"/>
	<circle class="st24" cx="1049.22" cy="531.55" r="2.39"/>
	<path class="st33" d="M1038.76,345.64c0,0,6.26,1.75,14.89-2.66"/>
	<circle class="st34" cx="1084.29" cy="327.49" r="26.03"/>
	<path class="st14" d="M1063.76,318.78c-0.15-0.05-0.04-0.29,0.04-0.36c0.09-0.1,0.18-0.17,0.28-0.24c0.19-0.14,0.4-0.24,0.61-0.33
		c0.42-0.17,0.85-0.28,1.29-0.34c0.88-0.13,1.76-0.03,2.62,0.18c1.68,0.46,3.31,1.59,3.9,3.32c-1.7-0.56-2.99-1.01-4.42-1.38
		c-0.7-0.21-1.42-0.36-2.15-0.55l-1.12-0.25c-0.19-0.05-0.38-0.08-0.58-0.11C1064.06,318.71,1063.78,318.59,1063.76,318.78z"/>
	<path class="st34" d="M1059.32,327.22l-1.06,0.27c-2.73,0.7-3.33,2.59-1.29,4.07l2.55,1.85"/>
	<path class="st20" d="M1068.14,324.43c0,0.94-0.76-0.31-1.7-0.31c-0.94,0-1.7,1.25-1.7,0.31s0.76-1.7,1.7-1.7
		C1067.38,322.74,1068.14,323.5,1068.14,324.43z"/>
	<path class="st35" d="M1061.7,337.67c0,0,0.56,2.14,3.19,0"/>
	<path class="st11" d="M1110.42,305.92c0,0-22.41-19.67-46.61,2.77l3.01,1.49c2.62,1.29,5.52,1.82,8.4,1.52l2.97-0.31
		c1.39-0.14,2.41,1.34,1.83,2.67l-0.42,0.97c-0.67,1.53,0.17,3.32,1.73,3.71l0,0l0.31,2.3c0.4,2.99,3.38,4.96,6.03,3.78
		c5.38-2.39,10.29,11.1-4.25,12.73l0.71,1.24c3.13,5.45,8.76,8.78,14.83,8.78h4.48c4.5,0,8.38-3.29,9.35-7.9
		C1114.92,329.48,1117.23,312.3,1110.42,305.92z"/>
	<path class="st10" d="M1073.91,367.55c3.66-4.69,4.02-11.69,0.86-16.74c-1.19-1.91-2.89-3.72-2.91-5.97
		c2.9-0.28,5.91,0.7,8.08,2.65c2.18,1.94,3.49,4.81,3.55,7.73c6.64-3.06,13.13-8.5,14.71-15.64c0.44-2.01,0.99-4.62,3.03-4.89
		c1.75-0.23,3.09,1.69,3.27,3.45c0.39,3.8-2.39,7.37-2.09,11.18c0.13,1.71,0.84,3.57-0.07,5.02c-0.37,0.59-0.97,1.01-1.36,1.58
		c-0.97,1.44-0.41,3.35-0.47,5.08c-0.08,2.35-1.39,4.53-3.12,6.12c-1.74,1.59-3.88,2.65-6.04,3.59c-3.13,1.36-6.35,2.51-9.64,3.44
		C1079.34,371.72,1076.28,369.99,1073.91,367.55z"/>
	<path class="st11" d="M689.38,461.47l-0.5,5.17c0,0,8.29-5.69,13.47-5.51l-2.15,2.75c0,0,19.13-6.5,22-10.2c0,0,0.59,5.4,3.18,6.23
		l8.02-10.23c0,0,6.33,14.27,12.54,13.34l-3.56-5.33c0,0,10.5,8.38,12.68,8.38l-2.18-5.32l6.54,4.23l-0.68-4.43l-26.93-15.67
		l-28.62,8.3L689.38,461.47z"/>
	<path class="st28" d="M1072.21,367.04l12.74,8.24c0,0-60.78,109.85-73.36,109.85c-11.74,0-33.58-27.35-36.63-45.64
		c-3.05-18.29,1.96-44,32.87-56.59c0,0-3.16,27.45,4.38,49.77C1020.29,413.74,1072.21,367.04,1072.21,367.04z"/>
	<path class="st36" d="M693.59,596.02l3.06-3.7l4.96-64.71l-4.1,2.37C692.71,548.21,689.44,574,693.59,596.02z"/>
	<path class="st36" d="M747.74,594.37l-3.06-3.7l-4.96-64.71l4.1,2.37C748.62,546.56,751.9,572.34,747.74,594.37z"/>
	<path class="st37" d="M982.27,508.54h6.63c18-38.7,38.12-84.36,23.57-130.56l-7.74-0.42
		C1016.26,421.13,997.45,467.38,982.27,508.54z"/>
	<path class="st28" d="M986,463.77c0,0,10.4,15.93,17.99,18.65l8.2-49.74c0,0-8.67-26.68-5.94-45.48
		C1006.26,387.2,976.53,456.32,986,463.77z"/>
	<path class="st28" d="M1020.19,420.29c0,0-3.34,5.77-7.99,12.39c-4.66,6.62-8.88,33.02-8.88,33.02l13.58-4.32l15.72-42.24"/>
	<g>
		<path class="st38" d="M902.13,566.57L902.13,566.57c43.66-1.69,75.28-42.27,66.25-85.02l-13.57-64.26
			c-1.86-8.82-9.69-15.09-18.7-14.99l-77.72,0.89c-9.24,0.11-17.05,6.88-18.46,16.01l-10.21,66.17
			C822.97,529.18,857.84,568.29,902.13,566.57z"/>
		<path class="st14" d="M884.96,410.41h16.36c20.06,0,36.54-26.47,32.89-48.8l-3.08-18.83c-3.13-19.1-17.85-32.96-35.01-32.96h-5.56
			c-17.25,0-32.03,14-35.06,33.23l-3.06,19.41C848.98,384.39,865.27,410.41,884.96,410.41z"/>
		<path class="st39" d="M952.53,547.48c0,0-22.2-30.47-16.4-65.01s-83.64-4.59-83.64-4.59s12.84,32.82-14.78,65.42
			C810.09,575.89,952.53,547.48,952.53,547.48z"/>
		<g class="st40">
			<polygon class="st30" points="832.26,456.21 846.15,485.61 852.2,481.15 			"/>
		</g>
		<g class="st40">
			<polygon class="st30" points="955.77,452.81 941.89,482.21 935.84,477.76 			"/>
		</g>
		<path class="st22" d="M921.32,820.54h45.5l0,0c-4.57-6.02-11.96-9.22-19.48-8.42l-11.48,1.22l-4.22-13.89h-8.5L921.32,820.54z"/>
		<path class="st39" d="M885.46,406.68c10.84,1.12-56.68,132.29-36.21,193.4c17.17,51.26,104.48,15.24,104.48,15.24"/>
		<path class="st39" d="M899.53,406.68c-8.88-0.21,55.72,130.59,57.31,202.79c0.23,10.41-12.23-8.96-21-6.31
			c-63.55,19.16-87.58,38.23-86.59,24.78"/>
		<path class="st34" d="M882.68,385.05h15.69c-2.3,10.79,9.79,23.89,18.85,31.24c0,0-16.49,22.58-24.11,22.58
			c-7.42,0-25.95-22.29-25.95-22.29C888.69,397.55,879.61,396.47,882.68,385.05z"/>
		<path class="st41" d="M936.73,805.8c3.91-42.27,7.34-78.36,4.19-99.31c18.52-41.44,22.53-112.66,18.48-134.46l-64.4,36.5
			l21.93,97.83c-7.81,38.71-0.22,54.76,2.97,99.44H936.73z"/>
		<path class="st22" d="M869.98,820.54h-45.5l0,0c4.57-6.02,11.96-9.22,19.48-8.42l11.48,1.22l4.22-13.89h8.5L869.98,820.54z"/>
		<path class="st41" d="M854.57,805.8c-3.91-42.27-7.34-78.36-4.19-99.31c-18.52-41.44-22.53-112.66-18.48-134.46l64.4,36.5
			l-21.93,97.83c7.81,38.71,0.22,54.76-2.97,99.44H854.57z"/>
		<path class="st41" d="M904.7,640.23c0,0-8.39-26.79-18.72,0c-4.9,12.7-33.55,0.86-45.45-23c-13.2-26.47-8.27-59.89-8.27-59.89
			s67.65,35.31,123.51-6.1l3.67,42.42l-37.53,18.58L904.7,640.23z"/>
		<path class="st39" d="M912.39,410.1l-1.8,2.6c-19.31,14.2-22.76,16.31-38.25,0.33l-0.96-1.97l-27.59,18.51
			c0,0,36.84,32.62,40.97,31.93s45.9-40.8,45.9-40.8L912.39,410.1z"/>
		<path class="st39" d="M931.63,519.77c0,0,37.22,38.17,32.52,66.39c0,0-27.87,9.72-67.86,10.21c-39.99,0.48,0-105.49,0-105.49
			L931.63,519.77z"/>
		<path class="st39" d="M852.2,524.4c0,0-31.95,33.54-27.25,61.76c0,0,27.87,9.72,67.86,10.21s0-105.49,0-105.49L852.2,524.4z"/>
		<g>
			<path class="st39" d="M926.22,447.23c0,0,35.39,62.51-25.19,37.69"/>
			<path class="st42" d="M922.91,447.23c1.66,2.99,3.3,5.98,4.78,9.07c1.53,3.05,2.98,6.15,4.22,9.34c1.22,3.2,2.37,6.43,3.04,9.76
				c0.71,3.28,0.9,6.79-0.27,9.52c-1.15,2.75-3.94,4.07-6.78,4.51c-2.88,0.49-5.91,0.27-8.92-0.14c-1.51-0.19-3.01-0.43-4.51-0.79
				c-1.5-0.3-3-0.65-4.48-1.08c-3.01-0.67-5.95-1.69-8.96-2.49c5.69,2.72,11.56,5,17.7,6.3c3.06,0.7,6.23,0.98,9.45,0.59
				c0.81-0.11,1.61-0.21,2.41-0.53c0.8-0.25,1.6-0.53,2.35-1.05c1.56-0.81,2.87-2.39,3.71-4.16c1.52-3.74,1.13-7.76,0.33-11.25
				c-0.84-3.54-2.07-6.88-3.54-10.04C930.5,458.45,926.96,452.58,922.91,447.23z"/>
		</g>
		<g>
			<path class="st39" d="M865.32,445.63c0,0-37.63,62.89,19.44,37.69"/>
			<path class="st42" d="M865.32,445.63c-3.6,5.35-6.75,11.23-9.34,17.55c-1.31,3.16-2.4,6.5-3.15,10.04
				c-0.71,3.49-1.06,7.51,0.3,11.25c0.74,1.77,1.9,3.35,3.29,4.16c0.67,0.52,1.37,0.8,2.09,1.05c0.71,0.33,1.42,0.43,2.14,0.53
				c2.86,0.39,5.67,0.11,8.39-0.59c5.45-1.3,10.67-3.58,15.72-6.3c-2.67,0.8-5.28,1.82-7.96,2.49c-1.32,0.43-2.65,0.78-3.98,1.08
				c-1.33,0.36-2.66,0.6-4,0.79c-2.66,0.41-5.36,0.63-7.92,0.14c-2.53-0.44-5-1.76-6.02-4.51c-1.04-2.73-0.87-6.24-0.24-9.52
				c0.59-3.33,1.62-6.56,2.7-9.76c1.11-3.19,2.39-6.3,3.75-9.34C862.39,451.61,863.85,448.63,865.32,445.63z"/>
		</g>
		<path class="st17" d="M830.56,587.6c68.88,20.59,129.6-2.34,129.52,0c0.11-1.83-75.27,26.83-130.16,4.9L830.56,587.6z"/>
		<g class="st43">
			<path class="st30" d="M911.76,411.01l-2.29-1.87c0,0-17.55,19.64-29.08,10.68C880.39,419.82,888.87,435.02,911.76,411.01z"/>
		</g>
		<path class="st44" d="M878.86,391.61c0,0,12.77,13.81,24.18,0.88c11.41-12.93-21.98-4.94-21.98-4.94L878.86,391.61z"/>
		<path class="st34" d="M864.19,360.41c0,18.8,15.14,36.49,27.16,36.28c12.42-0.22,27.16-17.48,27.16-36.28
			s-12.16-34.04-27.16-34.04S864.19,341.61,864.19,360.41z"/>
		<path class="st34" d="M917.4,368.84h1.22c3.08,0,5.58-2.5,5.58-5.58v-3.45c0-3.08-2.5-5.58-5.58-5.58h-1.22
			c-3.08,0-5.58,2.5-5.58,5.58v3.45C911.82,366.34,914.32,368.84,917.4,368.84z"/>
		<path class="st45" d="M893.92,385.88c-1.07,0.4-1.84,0.41-2.68,0.41c-0.84-0.03-1.55-0.05-2.54-0.65
			c-0.05,0.6,0.32,1.18,0.81,1.55c0.49,0.4,1.11,0.55,1.71,0.58C892.37,387.8,893.73,387.11,893.92,385.88z"/>
		<path class="st45" d="M894.91,353.82c0.22,4.83,0.64,9.65,1.05,14.47c0.13,1.21,0.46,2.38,0.62,3.59
			c0.01,0.26,0.13,0.74,0.04,0.83c-0.02,0.14-0.08,0.07-0.28,0.1c-0.38,0.02-0.95-0.12-1.48-0.29c-2.16-0.71-4.41-1.08-7.15,0.01
			c0.96,1.18,2.11,1.75,3.31,2.15c1.2,0.38,2.5,0.43,3.83,0.1c0.66-0.16,1.34-0.36,2.07-0.82c0.32-0.18,0.81-0.78,0.66-1.27
			c-0.06-0.51-0.17-0.61-0.24-0.95c-0.24-1.17-0.2-2.39-0.38-3.58L894.91,353.82z"/>
		<path class="st45" d="M881.87,349.71c1.49,0.05,2.97,0.94,4.54,2.31c0.26-0.8-0.27-1.15-1.03-1.94c-0.73-0.8-1.83-2.02-3.41-2.12
			c-1.58-0.09-3.03,0.36-3.86,1.03c-0.86,0.66-1.25,1.48-1.22,2.31c0.99-0.49,1.8-0.93,2.63-1.23"/>
		<path class="st14" d="M930.63,355.23c-1.99,5.15-11.2,0.84-18.81-3.21c-10.77-5.73-18.62-5.56-29.3-22.55
			c-16.39-26.07,36.95-7.04,36.95-7.04s12.55,28.08,11.03,32.18C930.49,354.64,930.64,355.19,930.63,355.23z"/>
		<path class="st14" d="M886.93,342.55c0.23-0.05,0.12-0.41,0.02-0.54c-0.11-0.16-0.23-0.29-0.35-0.42
			c-0.25-0.25-0.54-0.44-0.82-0.62c-0.58-0.34-1.19-0.61-1.81-0.78c-1.25-0.38-2.57-0.44-3.87-0.33c-2.56,0.3-5.2,1.58-6.45,3.97
			c2.61-0.43,4.6-0.81,6.78-1.03c1.07-0.15,2.15-0.22,3.27-0.33l1.7-0.11c0.29-0.03,0.58-0.03,0.87-0.03
			C886.51,342.38,886.94,342.27,886.93,342.55z"/>
		<path class="st45" d="M900.29,382.39c0,0-7.39,3.78-17.77-0.24"/>
		<circle class="st45" cx="881.56" cy="351.27" r="1.66"/>
		<circle class="st45" cx="905.49" cy="352.93" r="1.66"/>
		<path class="st45" d="M905.46,351.4c1.49,0.05,2.97,0.94,4.54,2.31c0.26-0.8-0.27-1.15-1.03-1.94c-0.73-0.8-1.83-2.02-3.41-2.12
			c-1.58-0.09-3.03,0.36-3.86,1.03c-0.86,0.66-1.25,1.48-1.22,2.31c0.99-0.49,1.8-0.93,2.63-1.23"/>
		<path class="st34" d="M866.48,368.84h1.22c3.08,0,5.58-2.5,5.58-5.58v-3.45c0-3.08-2.5-5.58-5.58-5.58h-1.22
			c-3.08,0-5.58,2.5-5.58,5.58v3.45C860.89,366.34,863.39,368.84,866.48,368.84z"/>
		<g>
			<path class="st34" d="M856.6,435.82c0,0-16.36,0.36-19.87,3.87c-3.51,3.51-8.86,14.95-11.25,37.78s-2.19,28.55-2.19,28.55
				l20.51,5.22l5.44-41.2L856.6,435.82z"/>
		</g>
		<g>
			<path class="st34" d="M943.46,438.5c2.99,0.8,12.68,3.22,15.28,7.37s7.97,36.96,7.19,52.28c-0.78,15.32-3.62,23.87-12.19,36.31
				c-8.57,12.45-39.74-16.65-44.54-19.84c-4.8-3.19-18.95-13.88-18.95-13.88l1.17-6.38c0,0,36.99,11.17,47.38,13.41l-1.81-32.95
				L943.46,438.5z"/>
		</g>
		<g>
			<path class="st46" d="M793.36,497.18c0,0-2.83-16.05-3.78-18.26c-0.94-2.2-5.19,14.95-5.19,14.95L793.36,497.18z"/>
		</g>
		<g>
			<path class="st34" d="M828.93,506.47l-31.5-4.74c0,0-1.68-7.72-4.87-9c-3.19-1.28-15.24-2.49-15.24-2.49l11.81,15.32l32.45,21.51
				L828.93,506.47z"/>
		</g>
		<g>
			<g>
				<path class="st47" d="M801.77,487.72c0,0-15.53-38.59-16.19-39.9c-0.65-1.31-1.47-2.94-3.92-2.94s-16.35-1.31-18.15-0.65
					c-1.8,0.65-0.98,2.94,1.31,8.01c2.29,5.07,14.55,36.14,15.53,38.1c0.98,1.96,2.45,2.78,4.25,3.11
					c1.8,0.33,15.21-1.31,16.19-1.64C801.77,491.48,803.08,491.65,801.77,487.72z"/>
			</g>
		</g>
		<g>
			<path class="st34" d="M785.41,493.44c-1.06-0.53-0.88-2.11-0.35-2.81s7.03-8.27,7.21-9.85c0.18-1.58,1.23-6.15,0.53-8.27
				c-0.7-2.11-14.24,5.28-16.35,5.8c0,0,2.29-20.4,1.06-20.75c-1.23-0.35-4.92,19.7-5.28,21.45c-0.35,1.76,5.28,11.96,7.56,14.6
				C782.07,496.25,785.41,493.44,785.41,493.44z"/>
		</g>
		<g>
			<path class="st46" d="M780.46,484.67l10.51-9.25c0.73-0.64,1.49-1.31,2.06-2.14l-0.48-0.33c-0.53,0.78-1.26,1.42-1.96,2.04
				l-10.51,9.25L780.46,484.67z"/>
		</g>
		<g>
			<path class="st46" d="M783.33,488.23c3.48-3.2,6.73-6.7,9.67-10.4l-0.46-0.36c-2.92,3.68-6.15,7.15-9.61,10.33L783.33,488.23z"/>
		</g>
		<g>
			<g>
				<path class="st48" d="M788.89,465.89c-2.4-5.74-4.8-11.48-7.21-17.22c-0.44-1.05,1.27-1.5,1.7-0.47
					c2.4,5.74,4.8,11.48,7.21,17.22C791.03,466.47,789.32,466.92,788.89,465.89z"/>
			</g>
		</g>
		<g>
			<g>
				<path class="st48" d="M791.54,469.73c-1.13,0-1.14-1.76,0-1.76C792.68,467.97,792.68,469.73,791.54,469.73L791.54,469.73z"/>
			</g>
		</g>
		<path class="st39" d="M931.63,482.21l30.59-31.87c0,0-24.71-32.81-49.84-40.25c0.72,6.96-7.89,22.25-12.51,25.42
			C901.22,459.08,931.63,482.21,931.63,482.21z"/>
		<path class="st7" d="M943.47,508.43l-7.64-1.36c-0.99-37.84-1.71-65.19-6.86-94.31h6.11
			C940.59,444.08,942.82,472.19,943.47,508.43z"/>
		<polygon class="st34" points="943.74,470.03 938.9,512.39 945.8,514.14 		"/>
		<polygon class="st34" points="943.74,470.03 946.26,469.61 945.8,478.4 942.76,481.56 		"/>
		<path class="st39" d="M852.54,484.92l-24.12-34.58c0,0,15.52-26.51,42.96-39.29c-8.11,9.02,10.44,15.16,12.62,21.87
			C890.52,452.95,852.54,484.92,852.54,484.92z"/>
		<path class="st7" d="M846.59,504.66l6.1,1.81c0.99-37.84,2.49-64.59,7.64-93.71l-8.2,3.72
			C846.61,447.8,847.24,468.42,846.59,504.66z"/>
		<path class="st34" d="M843.79,511.23c0,0-2.95,28.07-24.14,14.56c-21.19-13.52,11.72-21.02,11.72-21.02L843.79,511.23z"/>
		<g>
			<path class="st34" d="M892.11,494.54c0,0-2.72-11.82-3.92-14.6c-1.19-2.78-4.76-5.16-8.34-6.75c-3.57-1.59-5.16-2.38-5.16-2.38
				s-1.19-2.58-2.98-3.18c-1.79-0.6-18.27-2.38-18.27-2.38s0.79,1.79,2.18,2.78c1.39,0.99,9.13,1.99,13.3,3.97
				c4.17,1.99,3.77,15.88,7.74,20.65c3.97,4.76,13.99,8.28,13.99,8.28L892.11,494.54z"/>
		</g>
		<g>
			<path class="st46" d="M880.58,490.75c0.34,0,0.67-0.17,0.84-0.32l0.12-0.1l-0.01-0.15c-0.18-2.27-0.09-4.83,0.36-5.19
				c0.42-0.33,2.39-1.38,5.42-2.88l-0.26-0.53c-2.2,1.09-4.94,2.48-5.53,2.95c-0.86,0.69-0.67,4.41-0.59,5.53
				c-0.14,0.08-0.38,0.18-0.56,0.03c-1.55-1.32-4.11-5.85-5.12-8.62c-1.31-3.61-1.31-10.11-0.69-11.19l-0.51-0.29
				c-0.76,1.34-0.69,7.99,0.65,11.68c1.04,2.86,3.63,7.45,5.29,8.87C880.17,490.69,880.38,490.75,880.58,490.75z"/>
		</g>
		<g>
			<path class="st34" d="M877.66,493.67c0,0-6.05-7.9-7.4-9.58c-1.34-1.68-5.21-6.89-5.88-8.57c-0.67-1.68,2.02-0.17,3.19,0.67
				c1.18,0.84,6.05,5.04,6.05,5.04L877.66,493.67z"/>
		</g>
		<g>
			<path class="st34" d="M888.42,481.23c0,0-5.88,2.86-6.72,3.53s-0.47,5.44-0.47,5.44s-0.6,0.49-1.05,0.11
				c-1.61-1.37-4.19-5.96-5.21-8.74c-1.34-3.7-1.34-10.25-0.67-11.43c0.67-1.18,8.91,3.36,10.25,4.71
				C885.9,476.19,887.92,477.53,888.42,481.23z"/>
		</g>
		<g>
			<path class="st46" d="M879.14,489.78l0.55-0.2l-1.27-3.5c-0.31-0.86-0.55-1.63-0.32-2.33c0.15-0.47,0.52-0.88,0.85-1.25
				l5.77-6.46l-0.44-0.39l-5.77,6.46c-0.36,0.41-0.78,0.87-0.97,1.46c-0.31,0.95,0.06,1.97,0.33,2.71L879.14,489.78z"/>
		</g>
		<g>
			<path class="st46" d="M876.16,484.85l0.58-0.09c-0.05-0.34-0.12-0.67-0.18-1.01c-0.16-0.83-0.33-1.69-0.31-2.53
				c0.03-1.39,0.57-2.87,1.55-4.3c0.89-1.3,2.05-2.43,3.18-3.53l-0.41-0.42c-1.14,1.12-2.32,2.27-3.25,3.61
				c-1.05,1.52-1.62,3.12-1.65,4.62c-0.02,0.9,0.15,1.79,0.32,2.65C876.05,484.19,876.11,484.51,876.16,484.85z"/>
		</g>
	</g>
</g>
</svg>
