<?xml version="1.0" encoding="utf-8"?>
<!-- Generator: Adobe Illustrator 25.0.0, SVG Export Plug-In . SVG Version: 6.00 Build 0)  -->
<svg version="1.1" id="Capa_1" xmlns="http://www.w3.org/2000/svg" xmlns:xlink="http://www.w3.org/1999/xlink" x="0px" y="0px"
	 viewBox="0 0 1182.88 935.61" style="enable-background:new 0 0 1182.88 935.61;" xml:space="preserve">
<style type="text/css">
	.st0{opacity:0.3;}
	.st1{fill:#686868;}
	.st2{fill:#939393;}
	.st3{fill:#838383;}
	.st4{fill:#A5A5A5;}
	.st5{fill:#E8E8E8;}
	.st6{fill:#D9C273;}
	.st7{fill:#793578;}
	.st8{fill:#062C4D;}
	.st9{fill:#CC7C57;}
	.st10{fill:#150E0D;}
	.st11{fill:#CA7C58;}
	.st12{fill:#B03B8F;}
	.st13{fill:#303030;}
	.st14{fill:#5F2B0D;}
	.st15{fill:#2F86A0;}
	.st16{fill:#065A73;}
	.st17{fill:#E35D6F;}
	.st18{opacity:0.4;fill:#65352E;}
	.st19{fill:#010001;}
	.st20{fill:#1A3238;}
	.st21{fill:#1F3D48;}
	.st22{fill:#D6D6D6;}
	.st23{fill:none;stroke:#003D6F;stroke-miterlimit:10;}
	.st24{fill:#B75F3D;}
	.st25{fill:#1C6F9C;}
	.st26{fill:#003D6F;}
	.st27{fill:#C4BFBF;}
	.st28{fill:#ABDAEE;}
	.st29{fill:#7C2C14;}
	.st30{fill:#37A7C1;}
	.st31{fill:#014D6F;}
	.st32{fill:#7D2D14;}
	.st33{fill:#84584C;}
	.st34{fill:none;stroke:#7C2C14;stroke-miterlimit:10;}
	.st35{fill:#975594;}
	.st36{fill:#4176A9;}
	.st37{fill:#C4855C;}
	.st38{fill:#9A5596;}
	.st39{opacity:0.57;}
	.st40{fill:#0187A7;}
	.st41{fill:#994899;}
	.st42{opacity:0.53;}
	.st43{fill:#744230;}
	.st44{fill:#5F3629;}
	.st45{fill:#754E45;}
	.st46{fill:#003956;}
	.st47{fill:#808080;}
</style>
<g id="BACKGROUND">
</g>
<g id="OBJECTS">
</g>
<g class="st0">
	<g>
		<polygon class="st1" points="376.53,584.36 456.34,584.36 456.34,544.38 376.53,524.39 		"/>
		<polygon class="st1" points="455.51,544.66 507.62,544.66 501.41,584.36 455.51,584.36 		"/>
		<polygon class="st1" points="509.83,544.73 454.55,544.73 373.83,524.18 458.46,528.1 		"/>
		<polygon class="st1" points="419.73,531.01 453.86,538.45 453.86,518.05 419.81,511.95 		"/>
		<polygon class="st1" points="453.86,517.78 489.42,517.78 485.19,538.45 453.86,538.45 		"/>
		<polygon class="st1" points="495.15,519.29 455.98,519.29 415.41,511.95 460.42,510.48 		"/>
		<path class="st1" d="M499.56,553.54h-38.65c0,0,0.98,9.78,1.47,10.76s34.25,0,34.25,0l2.94-9.78"/>
		<path class="st1" d="M420.59,584.36c0.2,0,2.65-25.44,2.65-25.44l-14.68-2.45v27.89H420.59z"/>
		<polygon class="st1" points="442.32,522.71 443.29,529.07 426.57,526.81 426.66,520.27 		"/>
	</g>
	<g>
		<polygon class="st1" points="685.83,446.31 765.64,446.31 765.64,406.34 685.83,386.35 		"/>
		<polygon class="st1" points="764.82,406.61 816.92,406.61 810.72,446.31 764.82,446.31 		"/>
		<polygon class="st1" points="819.13,406.68 763.85,406.68 683.13,386.14 767.76,390.05 		"/>
		<polygon class="st1" points="729.03,392.96 763.16,400.41 763.16,380.01 729.12,373.91 		"/>
		<polygon class="st1" points="763.16,379.73 798.73,379.73 794.49,400.41 763.16,400.41 		"/>
		<polygon class="st1" points="804.46,381.24 765.28,381.24 724.71,373.91 769.72,372.44 		"/>
		<path class="st1" d="M808.86,415.49h-38.65c0,0,0.98,9.78,1.47,10.76s34.25,0,34.25,0l2.94-9.78"/>
		<path class="st1" d="M729.89,446.31c0.2,0,2.65-25.44,2.65-25.44l-14.68-2.45v27.89H729.89z"/>
		<polygon class="st1" points="751.62,384.67 752.6,391.03 735.87,388.77 735.97,382.22 		"/>
	</g>
	<g>
		<polygon class="st1" points="484.47,516.89 564.28,516.89 564.28,476.91 484.47,456.93 		"/>
		<polygon class="st1" points="563.46,477.19 615.56,477.19 609.36,516.89 563.46,516.89 		"/>
		<polygon class="st1" points="617.77,477.26 562.49,477.26 481.77,456.72 566.41,460.63 		"/>
		<polygon class="st1" points="527.68,463.54 561.8,470.99 561.8,450.59 527.76,444.49 		"/>
		<polygon class="st1" points="561.8,450.31 597.37,450.31 593.13,470.99 561.8,470.99 		"/>
		<polygon class="st1" points="603.1,451.82 563.92,451.82 523.35,444.49 568.36,443.02 		"/>
		<path class="st1" d="M607.5,486.07h-38.65c0,0,0.98,9.78,1.47,10.76s34.25,0,34.25,0l2.94-9.78"/>
		<path class="st1" d="M528.53,516.89c0.2,0,2.65-25.44,2.65-25.44L516.5,489v27.89H528.53z"/>
		<polygon class="st1" points="550.26,455.25 551.24,461.61 534.51,459.35 534.61,452.8 		"/>
	</g>
	<g>
		<polygon class="st1" points="586.63,466.46 657.63,466.46 657.63,434.61 586.63,421.94 		"/>
		<polygon class="st1" points="657.63,434.61 705.98,434.61 700.22,466.46 657.63,466.46 		"/>
		<rect x="665.69" y="444.59" class="st1" width="30.32" height="7.29"/>
		<polygon class="st1" points="716.34,435.38 664.53,439.98 576.65,421.94 639.59,420.79 		"/>
		<polygon class="st1" points="617.71,438.06 617.46,466.46 625.67,466.46 628.49,438.06 		"/>
		<polygon class="st1" points="649.18,444.2 637.67,442.67 636.52,452.26 649.18,451.88 		"/>
		<polygon class="st1" points="608.5,439.98 607.35,450.73 590.85,450.73 590.85,441.9 		"/>
	</g>
	<path class="st2" d="M1248.8,380.31c0,0-420.24-320.49-901.96,210.7C140.51,818.53,55.75,860.05,55.75,860.05
		s78.79-57.11-89.85,53.71c0,0,3.33,26.12,49,21.96s1261.48,0,1261.48,0L1248.8,380.31z"/>
	<path class="st2" d="M140.29,796.52c-236.04,183.33-599.85,139.2-567.95,139.2c141.61,0,625.04,0,625.04,0
		c-217.02-32.64-185.8-25.03-20.76-75.89S175.51,769.17,140.29,796.52z"/>
	<g>
		<g>
			<g>
				<polygon class="st3" points="1047.72,386.54 1032.15,386.54 1032.15,63.48 1036.82,63.48 				"/>
				<polygon class="st3" points="1004.12,65.82 1036.82,68.93 1036.82,63.48 1004.12,63.48 				"/>
				<path class="st3" d="M998.82,72.82h-4.97c-4.65,0-8.41-3.77-8.41-8.41v-0.93h21.8v0.93
					C1007.24,69.06,1003.47,72.82,998.82,72.82z"/>
			</g>
			<g>
				<polygon class="st4" points="708.31,455.04 675.62,459.2 675.62,476.84 659.53,476.84 659.53,491.37 630.47,491.37 
					630.47,500.71 603.48,500.71 603.48,511.09 564.04,511.09 564.04,525.62 543.28,525.62 542.87,546.34 757.08,545.83 
					907.59,450.89 763.32,450.89 				"/>
				<polygon class="st1" points="853.62,459.2 819.89,459.2 819.89,476.84 803.8,476.84 803.8,491.37 774.74,491.37 774.74,500.71 
					747.75,500.71 747.75,511.09 708.31,511.09 708.31,525.62 687.55,525.62 687.55,546.34 895.14,544.83 907.59,450.89 				"/>
			</g>
			<polygon class="st3" points="743.6,452.97 854.66,452.97 875.42,192.45 722.84,149.89 			"/>
			<polygon class="st1" points="875.39,197.64 937.69,197.64 908.48,452.97 853.59,452.97 			"/>
			<polygon class="st4" points="976.1,192.82 869.08,208.02 687.55,148.5 817.56,144.7 			"/>
			<g>
				<g>
					<polygon class="st4" points="1085.64,488.26 1122.3,506.94 1122.11,529.1 1136.45,529.23 1136.45,544.31 1154.46,544.31 
						1154.46,553.65 1171.19,553.65 1171.19,564.03 1195.63,564.03 1195.63,578.56 1208.49,578.56 1208.68,597.76 1120.37,599.32 
						1081.14,595.4 878.53,503.83 904.26,488.26 					"/>
					<polygon class="st1" points="1016.18,507.98 1037.08,512.13 1037.08,529.78 1047.05,529.15 1047.05,544.31 1065.06,544.31 
						1065.06,553.65 1081.78,553.65 1081.78,564.03 1106.22,564.03 1106.22,578.56 1119.09,578.56 1119.31,599.32 985.3,585.82 
						982.73,503.83 					"/>
				</g>
				<polygon class="st1" points="985.3,585.82 878.53,577.52 878.53,503.83 982.73,503.83 				"/>
				<rect x="1047.05" y="529.15" class="st2" width="89.4" height="14.64"/>
				<rect x="1081.79" y="553.64" class="st2" width="89.4" height="10.38"/>
				<rect x="1119.09" y="578.55" class="st2" width="89.59" height="20.76"/>
			</g>
			<polygon class="st3" points="891.69,497.6 1012.86,497.6 1012.86,372.7 891.69,359.55 			"/>
			<polygon class="st1" points="1011.04,375.12 1108.08,375.12 1096.53,497.6 1011.04,497.6 			"/>
			<polygon class="st4" points="1120.37,375.12 1011.04,389.65 874.38,359.55 1007.4,345.02 			"/>
			<path class="st1" d="M955.67,497.6c-1.11-4.15-2.94-69.54-2.94-69.54h-11.84l-10.93,69.54H955.67z"/>
			<polygon class="st5" points="927.32,422.33 906.77,417.68 904.71,446.74 927.32,445.58 			"/>
			<polygon class="st5" points="991.67,420.25 971.12,415.6 969.06,444.66 991.67,443.5 			"/>
			<polyline class="st1" points="831.83,215.28 832.36,215.42 859.85,222.55 853.62,256.8 829.75,256.8 			"/>
			<polyline class="st5" points="823.52,273.41 824.06,273.54 851.55,280.67 845.32,314.92 821.45,314.92 			"/>
			<polyline class="st5" points="818.33,335.68 818.87,335.82 846.36,342.95 840.13,377.2 816.26,377.2 			"/>
			<polyline class="st5" points="788.23,203.86 788.77,204 816.26,211.13 810.03,245.38 786.16,245.38 			"/>
			<polyline class="st1" points="786.16,267.18 786.69,267.32 814.18,274.44 807.95,308.7 784.08,308.7 			"/>
			<polyline class="st1" points="784.08,330.49 784.61,330.63 807.95,330.49 805.88,372.01 782,372.01 			"/>
			<polyline class="st1" points="780.97,411.45 781.5,411.59 804.84,411.45 802.76,452.97 778.89,452.97 			"/>
			<polyline class="st1" points="746.71,194.52 747.25,194.66 774.74,201.79 768.51,236.04 744.64,236.04 			"/>
			<polyline class="st5" points="746.71,264.06 747.25,264.2 774.74,271.33 768.51,305.58 744.64,305.58 			"/>
			<polyline class="st1" points="749.83,326.34 750.36,326.48 774.74,330.49 771.62,367.86 747.75,367.86 			"/>
		</g>
		<g>
			<polygon class="st3" points="531.36,625.26 700.7,625.26 700.7,540.45 531.36,498.05 			"/>
			<polygon class="st1" points="698.94,541.04 809.49,541.04 796.33,625.26 698.94,625.26 			"/>
			<polygon class="st4" points="814.18,541.19 696.89,541.19 525.63,497.6 705.2,505.9 			"/>
			<polygon class="st3" points="623.03,512.08 695.43,527.88 695.43,484.59 623.2,471.65 			"/>
			<polygon class="st1" points="695.43,484.01 770.89,484.01 761.9,527.88 695.43,527.88 			"/>
			<polygon class="st4" points="783.04,487.22 699.93,487.22 613.86,471.65 709.35,468.54 			"/>
			<path class="st4" d="M792.38,559.88h-82c0,0,2.08,20.76,3.11,22.83c1.04,2.08,72.66,0,72.66,0l6.23-20.76"/>
			<path class="st1" d="M624.85,625.26c0.43,0,5.62-53.97,5.62-53.97l-31.14-5.19v59.16H624.85z"/>
			<polygon class="st1" points="670.95,494.49 673.02,507.98 637.53,503.18 637.73,489.3 			"/>
		</g>
		<polyline class="st5" points="550.55,545.34 551.08,545.43 574.42,545.34 572.34,572.33 548.47,572.33 		"/>
		<polyline class="st5" points="654.34,558.84 654.87,558.93 678.21,558.84 676.14,585.82 652.26,585.82 		"/>
	</g>
	<g>
		<g>
			<g>
				<polygon class="st4" points="686.11,611.03 645.11,621.71 641.51,631.79 629.28,632.98 629.28,643.06 609.14,643.06 
					609.14,648.4 590.44,648.4 590.44,654.33 563.1,654.33 563.1,662.63 548.72,662.63 545.12,678.64 692.58,669.75 917.74,619.93 
					888.96,611.03 				"/>
				<polygon class="st1" points="763.8,622.3 740.42,624.67 740.42,634.75 729.27,634.75 729.27,643.06 709.13,643.06 709.13,648.4 
					690.43,648.4 690.43,654.33 663.09,654.33 663.09,662.63 648.7,662.63 647.26,674.49 798.33,666.78 801.2,619.93 				"/>
			</g>
			<polygon class="st1" points="798.33,666.78 914.86,662.04 914.86,619.93 801.2,619.93 			"/>
			<polygon class="st2" points="740.78,624.67 645.11,621.71 641.51,631.79 740.78,634.75 			"/>
			<polygon class="st2" points="560.94,653.14 663.09,654.33 663.09,662.63 560.94,660.85 			"/>
			<polygon class="st2" points="545.12,669.75 647.26,670.93 647.26,679.24 545.12,677.46 			"/>
			<polygon class="st2" points="629.28,632.98 710.57,643.06 708.41,648.4 629.28,643.06 			"/>
		</g>
		<polygon class="st1" points="838.52,541.84 922.39,541.84 912.4,622.15 838.52,622.15 		"/>
		<polygon class="st3" points="692.51,613.85 838.54,622.15 838.54,539.51 692.88,530.81 		"/>
		<polygon class="st4" points="933.31,541.19 839.89,547.42 681.09,530.81 813.94,521.47 		"/>
		<path class="st1" d="M775.11,618c0.43,0,5.62-53.97,5.62-53.97l-31.14-5.19V618H775.11z"/>
		<polyline class="st1" points="796.3,565.06 796.83,565.15 820.17,565.06 818.1,592.05 794.22,592.05 		"/>
		<polyline class="st1" points="710.15,557.8 710.68,557.89 734.02,557.8 731.95,584.79 708.07,584.79 		"/>
		<g>
			<polygon class="st3" points="915.12,661.59 1021.71,661.59 1021.71,608.2 915.12,581.51 			"/>
			<polygon class="st1" points="1020.6,608.57 1090.19,608.57 1081.91,661.59 1020.6,661.59 			"/>
			<polygon class="st4" points="1093.15,608.67 1019.32,608.67 911.51,581.23 1024.54,586.45 			"/>
			<polygon class="st3" points="972.82,590.35 1018.4,600.29 1018.4,573.04 972.93,564.89 			"/>
			<polygon class="st1" points="1018.4,572.67 1065.89,572.67 1060.24,600.29 1018.4,600.29 			"/>
			<polygon class="st4" points="1073.55,574.69 1021.23,574.69 967.05,564.89 1027.16,562.93 			"/>
			<path class="st4" d="M1079.43,620.43h-51.62c0,0,1.31,13.07,1.96,14.37c0.65,1.31,45.74,0,45.74,0l3.92-13.07"/>
			<path class="st1" d="M973.96,661.59c0.27,0,3.54-33.98,3.54-33.98l-19.6-3.27v37.24h16.06V661.59z"/>
			<polygon class="st1" points="1002.98,579.27 1004.29,587.76 981.95,584.74 982.07,576 			"/>
		</g>
	</g>
	<g>
		<g>
			<polygon class="st3" points="451.89,669.07 436.32,669.07 436.32,346.01 440.99,346.01 			"/>
			<polygon class="st3" points="408.29,348.35 440.99,351.46 440.99,346.01 408.29,346.01 			"/>
			<path class="st3" d="M402.99,355.35h-4.97c-4.65,0-8.41-3.77-8.41-8.41v-0.93h21.8v0.93
				C411.41,351.59,407.64,355.35,402.99,355.35z"/>
		</g>
		<g>
			<g>
				<polygon class="st4" points="317.99,742.76 258.83,761.45 253.64,779.09 236,781.17 236,798.81 206.93,798.81 206.93,808.15 
					179.95,808.15 179.95,818.53 140.51,818.53 140.51,833.06 119.75,833.06 120.26,855.38 261.94,853.82 652.21,758.33 
					610.69,742.76 				"/>
				<polygon class="st1" points="430.09,762.48 396.36,766.64 396.36,784.28 380.27,784.28 380.27,798.81 351.21,798.81 
					351.21,808.15 324.22,808.15 324.22,818.53 284.78,818.53 284.78,833.06 264.02,833.06 261.94,853.82 479.91,840.33 
					484.06,758.33 				"/>
			</g>
			<polygon class="st1" points="479.91,840.33 648.05,832.02 648.05,758.33 484.06,758.33 			"/>
			<polygon class="st2" points="396.88,766.64 258.83,761.45 253.64,779.09 396.88,784.28 			"/>
			<polygon class="st2" points="140.51,818.53 284.78,818.53 284.78,833.06 140.51,833.04 			"/>
			<polygon class="st2" points="236,781.17 353.28,798.81 350.17,808.15 236,798.81 			"/>
		</g>
		<g>
			<g>
				<polygon class="st4" points="1113.41,727.19 1169.15,745.88 1174.04,763.52 1190.66,765.6 1190.66,783.24 1218.04,783.24 
					1218.04,792.58 1243.46,792.58 1243.46,802.96 1280.62,802.96 1280.62,817.49 1300.18,817.49 1305.07,845.52 1104.61,829.95 
					798.56,742.76 837.67,727.19 				"/>
				<polygon class="st1" points="1007.81,746.91 1039.59,751.07 1039.59,768.71 1054.74,768.71 1054.74,783.24 1082.12,783.24 
					1082.12,792.58 1107.55,792.58 1107.55,802.96 1144.7,802.96 1144.7,817.49 1164.26,817.49 1166.22,838.25 960.87,824.76 
					956.96,742.76 				"/>
			</g>
			<polygon class="st1" points="960.87,824.76 802.47,816.46 802.47,742.76 956.96,742.76 			"/>
			<polygon class="st2" points="1039.1,751.07 1169.15,745.88 1174.04,763.52 1039.1,768.71 			"/>
			<polygon class="st2" points="1283.56,800.89 1144.7,802.96 1144.7,817.49 1283.56,814.38 			"/>
			<polygon class="st2" points="1305.07,829.95 1166.22,832.02 1166.22,846.56 1305.07,843.44 			"/>
			<polygon class="st2" points="1190.66,765.6 1080.17,783.24 1083.1,792.58 1190.66,783.24 			"/>
		</g>
		<g>
			<polygon class="st3" points="308.65,747.95 500.67,747.95 500.67,661.8 308.65,627.55 			"/>
			<polygon class="st1" points="500.67,661.8 631.45,661.8 615.88,747.95 500.67,747.95 			"/>
			<rect x="522.47" y="688.79" class="st5" width="82" height="19.72"/>
			<polygon class="st4" points="659.47,663.88 519.35,676.33 281.66,627.55 451.89,624.44 			"/>
			<polygon class="st1" points="392.72,671.15 392.05,747.95 414.25,747.95 421.88,671.15 			"/>
			<polygon class="st5" points="477.83,687.75 446.7,683.6 443.58,709.55 477.83,708.51 			"/>
			<polygon class="st5" points="367.81,676.33 364.7,705.4 320.07,705.4 320.07,681.52 			"/>
		</g>
		<g>
			<polygon class="st3" points="642.01,742.76 754.96,742.76 754.96,680.5 642.01,655.75 			"/>
			<polygon class="st1" points="754.96,680.5 831.89,680.5 822.73,742.76 754.96,742.76 			"/>
			<rect x="767.78" y="700.01" class="st5" width="48.23" height="14.25"/>
			<polygon class="st4" points="848.38,682 765.95,691.01 626.14,655.75 726.27,653.5 			"/>
			<polygon class="st1" points="691.47,687.26 691.07,742.76 704.13,742.76 708.61,687.26 			"/>
			<polygon class="st5" points="741.53,699.26 723.21,696.26 721.38,715.01 741.53,714.26 			"/>
			<polygon class="st5" points="676.81,691.01 674.98,712.01 648.73,712.01 648.73,694.76 			"/>
		</g>
		<polygon class="st3" points="835.92,736.54 1036.24,736.54 1036.24,672.18 835.92,656.61 		"/>
		<polygon class="st1" points="1036.24,671.15 1146.79,671.15 1133.63,736.54 1036.24,736.54 		"/>
		<polygon class="st4" points="1172.21,670.11 1032.09,682.56 815.16,658.69 966.7,635.86 		"/>
		<polygon class="st1" points="941.04,736.54 940.75,708.51 925.18,705.4 922.07,736.54 		"/>
		<g>
			<polygon class="st3" points="628.87,860.05 798.21,860.05 798.21,775.24 628.87,732.83 			"/>
			<polygon class="st1" points="796.45,775.82 907,775.82 893.84,860.05 796.45,860.05 			"/>
			<polygon class="st4" points="911.69,775.98 794.4,775.98 623.14,732.38 802.71,740.69 			"/>
			<polygon class="st3" points="720.54,746.87 792.94,762.66 792.94,719.38 720.71,706.43 			"/>
			<polygon class="st1" points="792.94,718.79 868.4,718.79 859.41,762.66 792.94,762.66 			"/>
			<polygon class="st4" points="880.55,722 797.44,722 711.37,706.43 806.86,703.32 			"/>
			<path class="st5" d="M889.89,794.66h-82c0,0,2.08,20.76,3.11,22.83c1.04,2.08,72.66,0,72.66,0l6.23-20.76"/>
			<path class="st1" d="M722.35,860.05c0.43,0,5.62-53.97,5.62-53.97l-31.14-5.19v59.16L722.35,860.05L722.35,860.05z"/>
			<polygon class="st1" points="768.46,729.27 770.53,742.76 735.04,737.96 735.24,724.08 			"/>
		</g>
		<polygon class="st5" points="998.88,690.87 967.74,686.71 964.62,712.66 998.88,711.62 		"/>
		<polygon class="st5" points="773.64,792.58 742.51,788.43 739.39,814.38 773.64,813.34 		"/>
		<polygon class="st5" points="684.38,779.09 653.24,774.94 650.13,800.89 684.38,799.85 		"/>
		<polygon class="st5" points="889.89,681.52 858.76,677.37 855.64,703.32 889.89,702.28 		"/>
	</g>
</g>
<g>
	<path class="st6" d="M422.43,517.88H293.42c-5.92,0-10.71-4.8-10.71-10.71v-33.08c0-5.92,4.8-10.71,10.71-10.71h129.01
		c5.92,0,10.71,4.8,10.71,10.71v33.08C433.15,513.08,428.35,517.88,422.43,517.88z"/>
	<path class="st7" d="M426.79,542.96v138.4c0,7.75-6.28,14.03-14.03,14.03H303.09c-7.75,0-14.03-6.28-14.03-14.03v-138.4
		c0-16.7,13.54-30.23,30.23-30.23h77.26C413.26,512.72,426.79,526.26,426.79,542.96z"/>
	<path class="st6" d="M858.17,368.39H720.04c-16.51,0-29.89-13.38-29.89-29.89v-15.43c0-16.51,13.38-29.89,29.89-29.89h138.13
		c16.51,0,29.89,13.38,29.89,29.89v15.43C888.06,355.01,874.68,368.39,858.17,368.39z"/>
	<path class="st8" d="M867.42,580.07l-172.18-4.11c-18.32-0.44-31.86-17.23-28.4-35.23L702.7,354.2
		c2.62-13.62,14.33-23.6,28.19-24.03l110.83-3.42c15.22-0.47,28.32,10.67,30.31,25.77l25.49,194.06
		C899.89,564.61,885.61,580.5,867.42,580.07z"/>
	<path class="st9" d="M298.94,708.26c0,0,5.47,6.07,9.22,12.36c3.42,5.74,4.71,5.41,4.83,6.44c0,0-4.91,2.89-8.18-2.83l1.71,11.43
		c2.68,5.32,5.43,9.6,4.05,10.15c0,0-4.19-0.28-8.52-11.65c1.65,4.85,2.93,11.11,2.28,11.43c-0.72,1.37-8.24-1.38-9.04-2.88
		c0,0-11.17-14.49-4.87-33.06C296.71,691.07,298.94,708.26,298.94,708.26z"/>
	<polygon class="st10" points="406.81,512.34 397.5,512.66 396.17,507.33 395.01,512.75 337.88,514.76 336.63,512.85 336.05,514.83 
		335.49,514.85 333.33,510.2 332.26,514.96 318.34,515.45 316.26,453.13 406.76,453.13 	"/>
	<ellipse class="st11" cx="362.14" cy="460.29" rx="44.68" ry="48.71"/>
	<ellipse class="st11" cx="326.12" cy="470.05" rx="13.43" ry="9.8"/>
	<ellipse class="st11" cx="397.58" cy="468.27" rx="13.43" ry="9.8"/>
	<path class="st10" d="M315.77,457.16c0,0,3.21-49.77,46.37-49.09c43.16,0.68,47.55,46.04,47.55,46.04l-35.65-18.28l-38.02,7.21
		L315.77,457.16z"/>
	
		<rect x="327.44" y="428.68" transform="matrix(0.9214 0.3885 -0.3885 0.9214 193.7226 -96.5036)" class="st12" width="16.11" height="4.19"/>
	<path class="st13" d="M340.57,453.87c0.48-1.24,1.4-2.14,2.43-2.81c1.03-0.69,2.21-1.1,3.42-1.31c2.42-0.34,5.04,0.2,6.83,2.1
		c-1.26,0.44-2.32,0.61-3.35,0.81l-2.95,0.5C344.97,453.45,343.12,453.74,340.57,453.87z"/>
	<path class="st13" d="M368.45,451c0.82-1.05,1.97-1.64,3.14-1.98c1.18-0.36,2.43-0.41,3.65-0.25c2.41,0.38,4.76,1.67,5.91,4.01
		c-1.33,0.05-2.4-0.1-3.44-0.2l-2.97-0.38C372.79,451.88,370.93,451.62,368.45,451z"/>
	<circle class="st14" cx="375.67" cy="462.11" r="2.25"/>
	<circle class="st14" cx="347.54" cy="462.67" r="2.25"/>
	<path class="st14" d="M360.36,467.06c-0.19,3.17-0.57,6.34-0.94,9.5c-0.11,0.79-0.42,1.56-0.56,2.36
		c-0.01,0.17-0.12,0.48-0.04,0.55c0.01,0.09,0.07,0.05,0.25,0.07c0.34,0.02,0.85-0.08,1.33-0.19c1.95-0.47,3.98-0.71,6.44,0.01
		c-0.86,0.77-1.9,1.15-2.98,1.41c-1.08,0.25-2.25,0.28-3.46,0.07c-0.6-0.1-1.21-0.23-1.87-0.54c-0.29-0.12-0.73-0.51-0.6-0.83
		c0.06-0.34,0.16-0.4,0.21-0.63c0.22-0.77,0.18-1.57,0.34-2.35L360.36,467.06z"/>
	<path class="st14" d="M353.18,492.45c0,0,6.79,6.26,18.16,0.65"/>
	<path class="st9" d="M340.91,580.77l-37.9,61.42l-4.07,66.07l-8.52,1.39c0,0-1.77-56.82-0.14-70.44
		c1.31-10.95,25.09-69.46,34.89-92.34c2.48-5.79,6.9-10.52,12.5-13.4l8.1-3.22L340.91,580.77z"/>
	<path class="st9" d="M413.07,707.08c0,0-5.62,5.93-9.51,12.13c-3.55,5.65-4.84,5.29-4.99,6.32c0,0,4.84,3.01,8.25-2.63l-1.98,11.38
		c-2.81,5.26-5.66,9.46-4.29,10.05c0,0,4.2-0.18,8.8-11.44c-1.77,4.81-3.2,11.03-2.55,11.37c0.68,1.38,8.27-1.18,9.1-2.66
		c0,0,11.51-14.21,5.67-32.93C415.71,689.95,413.07,707.08,413.07,707.08z"/>
	<path class="st9" d="M374.19,578.62l36.71,60.59l2.18,67.88l8.49,1.59c0,0,2.95-59.05,1.66-72.7
		c-1.04-10.98-23.23-67.75-32.48-90.87c-2.34-5.85-6.64-10.68-12.18-13.7l-8.02-3.42L374.19,578.62z"/>
	<path class="st15" d="M314.94,689.98c-3.85,32.62-1.63,71.27,3.03,112.34l10.59,87.38h12.86c1.7-35.29,4.65-74.49,0-90.03
		c3.15-19.25,7.03-51.87,10.67-74.15L314.94,689.98z"/>
	<path class="st15" d="M398.08,689.98c3.85,32.62,1.63,71.27-3.03,112.34l-10.59,87.38H371.6c-1.7-35.29-4.65-74.49,0-90.03
		c-3.15-19.25-6.11-51.87-9.75-74.15L398.08,689.98z"/>
	<ellipse class="st15" cx="357.46" cy="705.03" rx="41.61" ry="23.45"/>
	<path class="st16" d="M313.93,698.27c-1.55,6.29,48.13,28.61,86.12,11.43l-1.85-11.43H313.93z"/>
	<path class="st17" d="M374.38,529.63l-28.61,0.62c-20.54,44.45-23.94,50.52-18.67,81.54c5.2,14.92-17.46,56.37-17.46,84.64
		c30.97,15.15,65.33,19.87,96.29,3.02c-2.36-32.53-21.63-65.08-17.9-86.63C398.25,581.01,398.25,581.01,374.38,529.63z"/>
	<path class="st10" d="M302.05,899.11c0,0,1.13-8,27.71-9.41l1.35-4.79l9.24,1.35l1.13,12.84H302.05z"/>
	<path class="st10" d="M410.88,899.11c0,0-1.13-8-27.71-9.41l-1.35-4.79l-9.24,1.35l-1.13,12.84H410.88z"/>
	<path class="st17" d="M345.78,529.94c-2.69,3.02,13.2,124.38,13.2,124.38l15.4-123.61C365.68,522.98,356.02,523.84,345.78,529.94z"
		/>
	<path class="st9" d="M356.15,500.02h10.14c0.51,12.84,0.25,24.03,6.75,32.12c-8.75,16.26-17.51,16.26-26.26,0
		C353.53,527.01,356.29,515.75,356.15,500.02z"/>
	<path class="st18" d="M355.98,508.95l-1.11,7.65c5.26,0.19,7.44,0.73,11.99-1.45l-0.23-6.2H355.98z"/>
	<circle class="st19" cx="778.43" cy="274.25" r="1.35"/>
	<path class="st20" d="M744.03,902.57h-74.66l0,0c7.5-13.1,19.62-20.04,31.96-18.3l18.84,2.66l6.92-30.2h13.95L744.03,902.57z"/>
	<path class="st20" d="M812.87,902.57h73.27l0,0c-7.36-13.1-19.26-20.04-31.36-18.3l-18.49,2.66l-6.79-30.2h-13.69L812.87,902.57z"
		/>
	<path class="st21" d="M719.13,879.51c-15.65-63.65-9.53-78.67-12.43-126.72c-9.45-79.62-12.08-141.7-6.95-169.38l82.51,56.33
		l-31.12,109.55c-0.44,34.7-0.97,73.82-5.03,130.52L719.13,879.51z"/>
	<path class="st21" d="M836.94,884.9c15.65-63.65,9.53-78.67,12.43-126.72c9.45-79.62,12.08-141.7,6.95-169.38l-82.51,56.33
		l31.12,109.55c0.44,34.7,0.97,73.82,5.03,130.52L836.94,884.9z"/>
	<path class="st21" d="M769.17,676.59c0,0,10.65-34,23.76,0c6.21,16.12,42.58,1.09,57.68-29.19c16.75-33.59,8.29-83.76,8.29-83.76
		s-88.26,52.56-159.16,0l-0.05,53.84l47.63,23.58L769.17,676.59z"/>
	<path class="st22" d="M865.41,604.65c-72.19,21.72-109.04,16.99-174.04-3.29l16.92-108.67l-20.89-81.32
		c-3.14-36.11,25.32-67.16,61.56-67.16h60.63c38.46,0,67.58,34.76,60.84,72.63l-18.89,78.69L865.41,604.65z"/>
	<line class="st23" x1="782.26" y1="619.37" x2="779.66" y2="339.23"/>
	<path class="st9" d="M771.63,311.36l20.29-1.71c2.19,13.67,2.67,25.71,16.41,33.29c-16.06,18.9-33.58,20.38-52.57,4.43
		C768.82,340.72,773.34,328.19,771.63,311.36z"/>
	<path class="st24" d="M772.09,320.95l-1.54,8.39c10.54-0.68,14.96-0.47,23.88-3.58l-1.03-6.6L772.09,320.95z"/>
	<path class="st9" d="M815.84,266.98c3.1,36.78-0.89,50.94-33.19,53.66c-29.25,2.47-39.4-7.82-41.29-47.39
		c-1.23-25.73,12.76-47.88,33.33-49.62C795.24,221.91,813.67,241.31,815.84,266.98z"/>
	<circle class="st19" cx="777.68" cy="269.3" r="1.44"/>
	<circle class="st19" cx="751.1" cy="273.7" r="1.44"/>
	<path class="st13" d="M771.38,260.81c-0.25-0.1-0.07-0.5,0.07-0.63c0.15-0.17,0.32-0.3,0.49-0.42c0.34-0.24,0.7-0.41,1.07-0.58
		c0.73-0.29,1.49-0.5,2.26-0.59c1.53-0.22,3.08-0.06,4.57,0.31c2.93,0.81,5.78,2.78,6.81,5.79c-2.96-0.97-5.22-1.77-7.72-2.42
		c-1.22-0.36-2.47-0.64-3.75-0.96l-1.96-0.43c-0.34-0.09-0.67-0.13-1.01-0.19C771.91,260.69,771.43,260.49,771.38,260.81z"/>
	<path class="st19" d="M776.17,267.74c-1.76-0.08-3.59,0.84-5.55,2.3c-0.24-0.97,0.12-2,1.08-2.87c0.93-0.88,2.65-1.54,4.52-1.52
		c1.86,0.03,3.53,0.7,4.45,1.56c0.95,0.85,1.34,1.85,1.23,2.83c-1.12-0.67-2.04-1.26-2.99-1.68"/>
	<path class="st19" d="M749.15,272.15c-1.65-0.08-3.38,0.84-5.22,2.3c-0.22-0.97,0.11-2,1.02-2.87c0.87-0.88,2.49-1.54,4.25-1.52
		c1.75,0.03,3.32,0.7,4.19,1.56c0.9,0.85,1.26,1.85,1.16,2.83c-1.06-0.67-1.92-1.26-2.82-1.68"/>
	<path class="st10" d="M823.62,257.51c-4.37-51.28-46.41-49.48-46.41-49.48c-48.72,5.03-43.4,64.22-43.4,64.22s8.52-9.57,18.47-9.47
		l-3,4.63c0,0,14.38-4.02,25.52-12.46c0,0-1.13,1.03-6.72,8.26c5.99-2.41,11.04-5.54,14.59-9.86c0,0-1.81,2.99-2.85,5.97
		c10.64-1.28,17.21-9.62,20.53-17.99c0,0,5.81,23.45,15.48,25.66l0.85,15.61l5.79-16.22C823.48,263.54,823.88,260.5,823.62,257.51z"
		/>
	<path class="st25" d="M774.05,433.8l85.56-3.87c0,0,9.05,26.32-28.93,32.2C777.42,470.36,771.38,473.48,774.05,433.8z"/>
	<path class="st26" d="M849.81,557.77c-1.96,1.33-1.01,3.4-0.68,5.19c0.79,4.37-2.97,8.69-2.22,13.06c0.51,2.96,3.21,5.76,7.2,7.45
		c0.51,0.22,1.07,0.42,1.69,0.43c1.32,0.02,2.19-0.81,2.75-1.55c2.1-2.79,3.55-5.76,4.29-8.8c0.19-0.79,0.34-1.6,0.18-2.39
		c-0.2-1-0.86-1.93-1.29-2.9c-1.33-2.99,0.15-7.03-2.48-9.75C857.52,556.73,852.22,556.12,849.81,557.77z"/>
	<polygon class="st25" points="842.79,561.61 863.11,557.47 864.62,497.92 828.27,495.53 	"/>
	<path class="st26" d="M788.63,552.2c1.45,2.46,1.67,5.35,0.61,7.93c-0.68,1.65-1.85,3.18-2.31,4.87c-0.89,3.25-2.02,6.54-0.23,9.56
		c0.59,0.99,1.21,2.01,2.23,2.75s2.59,1.14,3.86,0.68c1.7-0.61,5.06-2.32,5.36-3.77c0.7-3.36,2.1-6.63,4.13-9.64
		c1.15-1.71,2.54-3.39,2.84-5.31c0.62-3.92-3.43-7.35-7.72-9.42C794.63,550.82,791.58,551.64,788.63,552.2z"/>
	<path class="st25" d="M805.82,551.43L785,555.81l-11.34-34.41c-3.58-10.87-3.81-22.56-0.67-33.56l3.09-10.83l25.3,8.09
		L805.82,551.43z"/>
	<path class="st9" d="M800.43,468.33c-7.92-0.12-15.72-3.74-20.93-9.71c-2.36-2.71-4.18-5.83-6.34-8.7
		c-0.39-0.53-0.94-1.1-1.59-0.98c-0.61,0.11-0.93,0.77-1.12,1.35c-1.84,5.6-0.15,12.2,4.17,16.22c-7.45-1.42-13.44-6.13-19.68-10.44
		c-2.27-1.57-5.57-2.98-7.54-1.04c-0.91,0.9-1.17,2.26-1.25,3.54c-0.49,7.62,3.73,14.99,9.61,19.86c5.88,4.87,13.25,7.57,20.63,9.52
		c3.82,1.01,7.71,1.86,11.66,1.99c0.97,0.03,1.97,0.01,2.85-0.37c2.42-1.06,2.94-4.21,3.11-6.85c3.23-2.69,6.38-4.41,9.96-6.6
		c-0.83-1.22-0.81-2.79-0.96-4.26C802.88,470.39,801.9,468.35,800.43,468.33z"/>
	<path class="st27" d="M835.82,349.6c34.13,12.9,58.28,40.4,74.29,117.8c1.31,6.33-1.28,21.78-5.73,26.46
		c-5.01,5.27-12.94,6.27-20.2,6.75c-31.87,2.09-64.01,0.1-95.38-5.93c-0.26-10.54,0.02-20.24-0.24-30.78
		c11.87-0.97,23.25-2.49,34.74-5.61c17.45-4.74,40.01-12.49,42.45-16.6C844.47,408.56,836.94,366.31,835.82,349.6z"/>
	<path class="st28" d="M867.06,431.65l-1.83-53.16c0,0,21.65,21.87,24.63,23.7c6.25,3.83,14.95-9.1,7.29-25.12
		c-7.66-16.02-36.04-49.22-51.57-56.19c0,0,3.02-2.92-3.24-12.8c-4.84-7.64-15.05,7.08-20.4,6.75c-6.85-0.42-15.32-3.52-20.89-4.22
		c-5.57-0.7-14.2-6.84-9.2,9.13l-42.4,19.37c0,0-8.11-1.28-17.86,0.11c-2.06,0.29-3.93,0.98-5.6,1.87c-6.4,3.41-6.15,8.14-1.16,13.4
		c8.96,9.42,16.97,16.53,25.56,17.06c12.62,0.77,19.94-4.55,19.94-4.55l-1.36,68.32L867.06,431.65z"/>
	<path class="st29" d="M758.97,266.96c-0.82,2.99-1.58,5.99-2.27,8.99c-0.67,3.01-1.24,6.06-1.45,9.08
		c-0.06,1.46-0.45,3.1,0.22,4.32c0.68,1.2,2.28,1.16,3.58,0.87c1.35-0.31,2.68-0.6,4.1-0.73c0.71-0.06,1.43-0.11,2.17-0.15
		c0.71-0.09,1.6,0.16,2.15-0.3c0.39,0.47-0.1,1.09-0.32,1.42c-0.28,0.4-0.62,0.69-0.95,1c-0.7,0.55-1.45,0.96-2.24,1.27
		c-1.58,0.61-3.35,0.74-5.1,0.24c-1.68-0.48-3.56-1.48-4.27-3.21c-0.55-1.67-0.66-3.25-0.54-4.84c0.37-3.14,1.15-6.16,1.99-9.15
		C756.88,272.8,757.86,269.86,758.97,266.96z"/>
	<path class="st30" d="M749.44,339.1c0,0-7.1,0.33-8.5,6.3"/>
	<path class="st30" d="M749.44,339.68c0,0-2.74,1.91-2.76,5.72"/>
	<polygon class="st30" points="869.32,382.59 861.5,349.6 865.23,378.49 	"/>
	<polygon class="st31" points="773.53,435.14 860.55,439.73 860,431.91 	"/>
	<circle class="st23" cx="771.41" cy="585.54" r="3"/>
	<circle class="st23" cx="771.41" cy="538.82" r="3"/>
	<path class="st32" d="M758.24,304.91c0,0,7.87,2.2,18.73-3.35"/>
	<circle class="st33" cx="815.53" cy="282.07" r="32.76"/>
	<path class="st13" d="M789.69,271.11c-0.18-0.07-0.05-0.36,0.05-0.45c0.11-0.12,0.23-0.21,0.35-0.3c0.24-0.18,0.51-0.3,0.77-0.42
		c0.53-0.21,1.08-0.36,1.63-0.42c1.1-0.16,2.22-0.04,3.29,0.22c2.11,0.58,4.17,2,4.91,4.17c-2.14-0.7-3.76-1.28-5.57-1.74
		c-0.88-0.26-1.78-0.46-2.71-0.69l-1.41-0.31c-0.24-0.06-0.48-0.1-0.72-0.14C790.07,271.02,789.72,270.88,789.69,271.11z"/>
	<path class="st33" d="M784.11,281.73l-1.33,0.34c-3.43,0.88-4.19,3.26-1.62,5.12l3.21,2.32"/>
	<path class="st19" d="M795.21,278.23c0,1.18-0.96-0.39-2.14-0.39c-1.18,0-2.14,1.57-2.14,0.39s0.96-2.14,2.14-2.14
		C794.25,276.09,795.21,277.05,795.21,278.23z"/>
	<path class="st34" d="M787.1,294.88c0,0,0.7,2.7,4.01,0"/>
	<path class="st10" d="M848.4,254.94c0,0-28.2-24.75-58.64,3.49l3.78,1.87c3.29,1.63,6.95,2.29,10.57,1.91l3.73-0.39
		c1.75-0.18,3.03,1.69,2.3,3.37l-0.53,1.22c-0.84,1.93,0.21,4.18,2.18,4.67l0,0l0.39,2.9c0.5,3.76,4.25,6.24,7.59,4.75
		c6.77-3.01,12.94,13.97-5.35,16.02l0.89,1.55c3.94,6.86,11.02,11.05,18.66,11.05h5.64c5.67,0,10.55-4.14,11.76-9.94
		C854.06,284.58,856.98,262.96,848.4,254.94z"/>
	<path class="st9" d="M802.47,332.48c4.6-5.91,5.05-14.71,1.09-21.06c-1.5-2.4-3.63-4.68-3.66-7.51c3.65-0.35,7.43,0.89,10.17,3.33
		c2.74,2.44,4.4,6.06,4.46,9.73c8.35-3.84,16.52-10.7,18.5-19.68c0.56-2.53,1.25-5.81,3.81-6.15c2.21-0.29,3.89,2.13,4.11,4.34
		c0.49,4.78-3,9.28-2.63,14.07c0.16,2.15,1.06,4.49-0.09,6.32c-0.47,0.74-1.22,1.27-1.71,1.99c-1.22,1.81-0.52,4.22-0.6,6.39
		c-0.1,2.96-1.74,5.7-3.93,7.7c-2.19,2-4.88,3.33-7.59,4.52c-3.94,1.72-7.99,3.16-12.12,4.32
		C809.3,337.73,805.45,335.54,802.47,332.48z"/>
	<path class="st10" d="M318.65,450.65l-0.63,6.51c0,0,10.43-7.16,16.95-6.93l-2.71,3.46c0,0,24.07-8.18,27.69-12.84
		c0,0,0.74,6.79,4,7.84l10.09-12.88c0,0,7.96,17.96,15.77,16.78l-4.48-6.71c0,0,13.21,10.55,15.95,10.55l-2.74-6.69l8.22,5.32
		l-0.85-5.57l-33.89-19.71l-36.01,10.45L318.65,450.65z"/>
	<path class="st27" d="M800.32,331.84l16.03,10.37c0,0-76.48,138.21-92.3,138.21c-14.77,0-42.26-34.41-46.09-57.42
		s2.47-55.36,41.35-71.2c0,0-3.98,34.54,5.5,62.63C735,390.6,800.32,331.84,800.32,331.84z"/>
	<path class="st35" d="M323.95,619.94l3.85-4.65l6.24-81.42l-5.16,2.98C322.84,559.79,318.72,592.23,323.95,619.94z"/>
	<path class="st35" d="M392.08,617.86l-3.85-4.65l-6.24-81.42l5.16,2.98C393.19,557.71,397.31,590.15,392.08,617.86z"/>
	<path class="st36" d="M687.17,509.87h8.35c22.65-48.69,47.96-106.15,29.65-164.27l-9.74-0.52
		C729.93,399.9,706.26,458.09,687.17,509.87z"/>
	<path class="st27" d="M691.86,453.54c0,0,13.09,20.04,22.64,23.46l10.32-62.58c0,0-10.9-33.56-7.47-57.22
		C717.35,357.2,679.95,444.17,691.86,453.54z"/>
	<path class="st27" d="M734.88,398.83c0,0-4.2,7.26-10.06,15.59s-11.18,41.55-11.18,41.55l17.09-5.44l19.78-53.15"/>
	<g>
		<path class="st37" d="M586.33,582.89L586.33,582.89c54.93-2.13,94.72-53.19,83.36-106.97l-17.08-80.85
			c-2.34-11.09-12.19-18.99-23.53-18.86l-97.79,1.12c-11.63,0.13-21.45,8.66-23.22,20.15l-12.84,83.25
			C486.73,535.85,530.6,585.05,586.33,582.89z"/>
		<path class="st13" d="M564.72,386.4h20.58c25.24,0,45.98-33.31,41.38-61.4l-3.88-23.69c-3.93-24.03-22.46-41.47-44.06-41.47h-6.99
			c-21.71,0-40.3,17.62-44.11,41.81l-3.85,24.43C519.45,353.67,539.95,386.4,564.72,386.4z"/>
		<path class="st38" d="M649.74,558.87c0,0-27.93-38.34-20.64-81.8c7.29-43.46-105.23-5.77-105.23-5.77s16.15,41.29-18.6,82.31
			S649.74,558.87,649.74,558.87z"/>
		<g class="st39">
			<polygon class="st29" points="498.43,444.04 515.89,481.03 523.51,475.42 			"/>
		</g>
		<g class="st39">
			<polygon class="st29" points="653.83,439.76 636.36,476.75 628.74,471.14 			"/>
		</g>
		<path class="st21" d="M610.48,902.44h57.24l0,0c-5.75-7.58-15.04-11.6-24.5-10.59l-14.44,1.54l-5.31-17.47h-10.7L610.48,902.44z"
			/>
		<path class="st38" d="M565.36,381.72c13.64,1.41-71.31,166.45-45.56,243.33c21.6,64.5,131.46,19.18,131.46,19.18"/>
		<path class="st38" d="M583.06,381.72c-11.17-0.26,70.11,164.31,72.11,255.15c0.29,13.1-15.39-11.27-26.43-7.94
			c-79.96,24.11-110.19,48.1-108.94,31.18"/>
		<path class="st33" d="M561.85,354.5h19.75c-2.89,13.58,12.31,30.06,23.72,39.31c0,0-20.75,28.42-30.33,28.42
			c-9.34,0-32.65-28.04-32.65-28.04C569.43,370.23,557.99,368.87,561.85,354.5z"/>
		<path class="st40" d="M629.87,883.89c4.92-53.18,9.23-98.59,5.27-124.96c23.31-52.13,28.34-141.75,23.26-169.18l-81.03,45.92
			l27.59,123.1c-9.82,48.71-0.28,68.9,3.74,125.12H629.87z"/>
		<path class="st21" d="M545.87,902.44h-57.24l0,0c5.75-7.58,15.04-11.6,24.5-10.59l14.44,1.54l5.31-17.47h10.7L545.87,902.44z"/>
		<path class="st40" d="M526.49,883.89c-4.92-53.18-9.23-98.59-5.27-124.96c-23.31-52.13-28.34-141.75-23.26-169.18l81.03,45.92
			l-27.59,123.1c9.82,48.71,0.28,68.9-3.74,125.12H526.49z"/>
		<path class="st40" d="M589.57,675.57c0,0-10.56-33.7-23.56,0c-6.16,15.98-42.21,1.08-57.18-28.94
			c-16.61-33.3-10.4-75.36-10.4-75.36s85.12,44.43,155.4-7.68l4.62,53.37l-47.22,23.38L589.57,675.57z"/>
		<path class="st38" d="M599.24,386.01l-2.26,3.27c-24.29,17.87-28.64,20.52-48.13,0.41l-1.21-2.48l-34.72,23.29
			c0,0,46.35,41.05,51.55,40.17c5.2-0.87,57.76-51.33,57.76-51.33L599.24,386.01z"/>
		<path class="st38" d="M623.45,524c0,0,46.84,48.03,40.91,83.54c0,0-35.07,12.23-85.38,12.84c-50.31,0.61,0-132.73,0-132.73
			L623.45,524z"/>
		<path class="st38" d="M523.51,529.84c0,0-40.2,42.2-34.28,77.7c0,0,35.07,12.23,85.38,12.84c50.31,0.61,0-132.73,0-132.73
			L523.51,529.84z"/>
		<g>
			<path class="st38" d="M616.64,432.73c0,0,44.53,78.65-31.7,47.42"/>
			<path class="st41" d="M612.48,432.73c2.09,3.76,4.15,7.52,6.01,11.41c1.93,3.83,3.75,7.74,5.31,11.75
				c1.53,4.02,2.99,8.09,3.82,12.28c0.89,4.12,1.13,8.54-0.35,11.98c-1.44,3.45-4.95,5.12-8.53,5.67
				c-3.62,0.62-7.44,0.34-11.22-0.18c-1.9-0.24-3.79-0.54-5.67-1c-1.89-0.38-3.77-0.82-5.64-1.36c-3.79-0.84-7.49-2.13-11.28-3.13
				c7.16,3.43,14.55,6.29,22.28,7.93c3.85,0.88,7.84,1.23,11.89,0.74c1.02-0.13,2.03-0.26,3.03-0.67c1.01-0.31,2.01-0.67,2.96-1.32
				c1.97-1.02,3.61-3.01,4.66-5.23c1.92-4.71,1.42-9.77,0.42-14.16c-1.06-4.45-2.6-8.65-4.46-12.63
				C622.03,446.86,617.58,439.47,612.48,432.73z"/>
		</g>
		<g>
			<path class="st38" d="M540.01,430.72c0,0-47.34,79.13,24.46,47.42"/>
			<path class="st41" d="M540.01,430.72c-4.53,6.74-8.49,14.12-11.76,22.09c-1.65,3.97-3.02,8.17-3.96,12.63
				c-0.89,4.39-1.33,9.45,0.37,14.16c0.94,2.22,2.4,4.21,4.14,5.23c0.84,0.65,1.73,1.01,2.63,1.32c0.89,0.41,1.79,0.54,2.69,0.67
				c3.6,0.49,7.14,0.14,10.56-0.74c6.86-1.64,13.43-4.5,19.78-7.93c-3.36,1-6.65,2.29-10.01,3.13c-1.66,0.55-3.33,0.98-5.01,1.36
				c-1.67,0.45-3.35,0.76-5.04,1c-3.35,0.51-6.74,0.8-9.96,0.18c-3.18-0.55-6.29-2.22-7.58-5.67c-1.31-3.43-1.09-7.85-0.31-11.97
				c0.74-4.19,2.03-8.25,3.4-12.28c1.39-4.01,3-7.92,4.72-11.75C536.33,438.25,538.16,434.49,540.01,430.72z"/>
		</g>
		<path class="st16" d="M496.29,609.35c86.67,25.91,163.06-2.95,162.97,0c0.14-2.3-94.7,33.76-163.77,6.16L496.29,609.35z"/>
		<g class="st42">
			<path class="st29" d="M598.44,387.16l-2.88-2.36c0,0-22.08,24.71-36.58,13.44C558.98,398.25,569.65,417.37,598.44,387.16z"/>
		</g>
		<path class="st43" d="M557.05,362.75c0,0,16.06,17.38,30.42,1.11c14.36-16.27-27.66-6.21-27.66-6.21L557.05,362.75z"/>
		<path class="st33" d="M538.59,323.49c0,23.65,19.05,45.91,34.17,45.65c15.63-0.27,34.17-22,34.17-45.65s-15.3-42.83-34.17-42.83
			S538.59,299.84,538.59,323.49z"/>
		<path class="st33" d="M605.54,334.1h1.54c3.88,0,7.02-3.14,7.02-7.02v-4.34c0-3.88-3.14-7.02-7.02-7.02h-1.54
			c-3.88,0-7.02,3.14-7.02,7.02v4.34C598.52,330.95,601.67,334.1,605.54,334.1z"/>
		<path class="st44" d="M576,355.55c-1.34,0.5-2.32,0.52-3.37,0.52c-1.06-0.04-1.95-0.06-3.2-0.82c-0.06,0.76,0.4,1.48,1.02,1.95
			c0.62,0.5,1.4,0.69,2.15,0.73C574.06,357.95,575.76,357.09,576,355.55z"/>
		<path class="st44" d="M577.24,315.21c0.27,6.08,0.8,12.14,1.32,18.21c0.16,1.52,0.58,2.99,0.78,4.52
			c0.01,0.32,0.17,0.93,0.05,1.04c-0.02,0.17-0.1,0.09-0.35,0.13c-0.47,0.03-1.19-0.15-1.86-0.37c-2.72-0.89-5.55-1.35-8.99,0.01
			c1.21,1.48,2.65,2.21,4.16,2.7c1.51,0.48,3.14,0.54,4.82,0.13c0.84-0.2,1.69-0.45,2.6-1.03c0.41-0.23,1.02-0.98,0.84-1.59
			c-0.08-0.64-0.22-0.77-0.3-1.2c-0.31-1.47-0.25-3.01-0.48-4.51L577.24,315.21z"/>
		<path class="st44" d="M560.84,310.03c1.87,0.06,3.74,1.18,5.71,2.9c0.33-1.01-0.34-1.44-1.3-2.44c-0.91-1.01-2.3-2.55-4.29-2.67
			c-1.98-0.12-3.81,0.45-4.85,1.29c-1.08,0.83-1.58,1.86-1.54,2.9c1.25-0.62,2.27-1.18,3.31-1.54"/>
		<path class="st13" d="M622.19,316.98c-2.5,6.49-14.09,1.06-23.67-4.04c-13.55-7.21-23.43-7-36.86-28.38
			c-20.62-32.8,46.49-8.86,46.49-8.86s15.79,35.33,13.88,40.49C622.01,316.23,622.21,316.93,622.19,316.98z"/>
		<path class="st13" d="M567.21,301.02c0.28-0.06,0.16-0.52,0.03-0.68c-0.13-0.21-0.29-0.37-0.45-0.52
			c-0.32-0.31-0.68-0.55-1.03-0.78c-0.73-0.42-1.49-0.76-2.28-0.98c-1.58-0.48-3.23-0.56-4.87-0.41c-3.22,0.38-6.54,1.99-8.11,5
			c3.28-0.54,5.79-1.02,8.53-1.3c1.35-0.19,2.71-0.27,4.11-0.41l2.13-0.14c0.37-0.04,0.72-0.03,1.09-0.04
			C566.68,300.81,567.22,300.67,567.21,301.02z"/>
		<path class="st44" d="M584.02,351.15c0,0-9.3,4.76-22.35-0.3"/>
		<circle class="st44" cx="560.45" cy="311.99" r="2.09"/>
		<circle class="st44" cx="590.56" cy="314.09" r="2.09"/>
		<path class="st44" d="M590.52,312.15c1.87,0.06,3.74,1.18,5.71,2.9c0.33-1.01-0.34-1.44-1.3-2.44c-0.91-1.01-2.3-2.55-4.29-2.67
			c-1.98-0.12-3.81,0.45-4.85,1.29c-1.08,0.83-1.58,1.86-1.54,2.9c1.25-0.62,2.27-1.18,3.31-1.54"/>
		<path class="st33" d="M541.47,334.1h1.54c3.88,0,7.02-3.14,7.02-7.02v-4.34c0-3.88-3.14-7.02-7.02-7.02h-1.54
			c-3.88,0-7.02,3.14-7.02,7.02v4.34C534.45,330.95,537.59,334.1,541.47,334.1z"/>
		<g>
			<path class="st33" d="M529.04,418.37c0,0-20.59,0.46-25.01,4.88c-4.42,4.42-11.15,18.82-14.16,47.53
				c-3.01,28.71-2.76,35.92-2.76,35.92l25.8,6.57l6.84-51.84L529.04,418.37z"/>
		</g>
		<g>
			<path class="st33" d="M638.33,421.75c3.76,1,15.96,4.06,19.22,9.28c3.27,5.22,10.02,46.5,9.04,65.78
				c-0.98,19.28-4.56,30.03-15.34,45.69c-10.78,15.66-50-20.95-56.04-24.96c-6.04-4.02-23.84-17.47-23.84-17.47l1.47-8.03
				c0,0,46.54,14.06,59.61,16.87l-2.28-41.45L638.33,421.75z"/>
		</g>
		<g>
			<path class="st45" d="M449.48,495.58c0,0-3.56-20.2-4.75-22.97c-1.19-2.77-6.54,18.81-6.54,18.81L449.48,495.58z"/>
		</g>
		<g>
			<path class="st33" d="M494.23,507.27l-39.63-5.97c0,0-2.11-9.71-6.13-11.32c-4.02-1.61-19.17-3.14-19.17-3.14l14.86,19.28
				l40.83,27.07L494.23,507.27z"/>
		</g>
		<g>
			<g>
				<path class="st46" d="M460.06,483.68c0,0-19.54-48.55-20.37-50.2c-0.82-1.65-1.85-3.7-4.94-3.7s-20.57-1.65-22.84-0.82
					c-2.26,0.82-1.23,3.7,1.65,10.08c2.88,6.38,18.31,45.47,19.54,47.94c1.23,2.47,3.09,3.5,5.35,3.91
					c2.26,0.41,19.13-1.65,20.37-2.06C460.06,488.41,461.7,488.62,460.06,483.68z"/>
			</g>
		</g>
		<g>
			<path class="st33" d="M439.47,490.88c-1.33-0.66-1.11-2.66-0.44-3.54c0.66-0.89,8.85-10.4,9.07-12.39
				c0.22-1.99,1.55-7.74,0.66-10.4c-0.89-2.66-17.92,6.64-20.58,7.3c0,0,2.88-25.67,1.33-26.11c-1.55-0.44-6.2,24.78-6.64,26.99
				c-0.44,2.21,6.64,15.05,9.51,18.37C435.27,494.42,439.47,490.88,439.47,490.88z"/>
		</g>
		<g>
			<path class="st45" d="M433.24,479.84l13.23-11.64c0.92-0.81,1.87-1.64,2.59-2.7l-0.61-0.42c-0.67,0.98-1.58,1.78-2.47,2.56
				l-13.23,11.64L433.24,479.84z"/>
		</g>
		<g>
			<path class="st45" d="M436.85,484.32c4.38-4.02,8.47-8.43,12.17-13.08l-0.58-0.46c-3.67,4.63-7.74,9-12.09,13L436.85,484.32z"/>
		</g>
		<g>
			<g>
				<path class="st47" d="M443.85,456.21c-3.02-7.22-6.04-14.45-9.07-21.67c-0.55-1.31,1.59-1.89,2.14-0.59
					c3.02,7.22,6.04,14.45,9.07,21.67C446.54,456.94,444.39,457.51,443.85,456.21z"/>
			</g>
		</g>
		<g>
			<g>
				<path class="st47" d="M447.19,461.04c-1.43,0-1.43-2.22,0-2.22C448.62,458.82,448.62,461.04,447.19,461.04L447.19,461.04z"/>
			</g>
		</g>
		<path class="st38" d="M623.45,476.75l38.49-40.1c0,0-31.09-41.29-62.7-50.64c0.91,8.75-9.92,28-15.74,31.99
			C585.19,447.65,623.45,476.75,623.45,476.75z"/>
		<path class="st6" d="M638.35,509.74l-9.61-1.71c-1.24-47.61-2.16-82.03-8.64-118.67h7.69
			C634.73,428.77,637.52,464.14,638.35,509.74z"/>
		<polygon class="st33" points="638.69,461.42 632.59,514.72 641.28,516.92 		"/>
		<polygon class="st33" points="638.69,461.42 641.86,460.89 641.28,471.96 637.46,475.93 		"/>
		<path class="st38" d="M523.93,480.16l-30.35-43.51c0,0,19.52-33.36,54.06-49.44c-10.2,11.35,13.14,19.07,15.88,27.51
			C571.73,439.93,523.93,480.16,523.93,480.16z"/>
		<path class="st6" d="M516.44,504.99l7.68,2.28c1.24-47.61,3.13-81.27,9.61-117.91l-10.32,4.68
			C516.48,433.45,517.27,459.39,516.44,504.99z"/>
		<path class="st33" d="M512.92,513.26c0,0-3.71,35.32-30.37,18.31c-26.66-17.01,14.74-26.44,14.74-26.44L512.92,513.26z"/>
		<g>
			<path class="st33" d="M573.73,492.26c0,0-3.43-14.88-4.93-18.37c-1.5-3.5-6-6.49-10.49-8.49c-4.5-2-6.49-3-6.49-3
				s-1.5-3.25-3.75-4c-2.25-0.75-22.98-3-22.98-3s1,2.25,2.75,3.5c1.75,1.25,11.49,2.5,16.74,5c5.25,2.5,4.75,19.98,9.74,25.98
				c5,6,17.61,10.42,17.61,10.42L573.73,492.26z"/>
		</g>
		<g>
			<path class="st45" d="M559.21,487.49c0.43,0,0.84-0.22,1.06-0.4l0.15-0.12l-0.02-0.19c-0.22-2.86-0.12-6.08,0.45-6.53
				c0.53-0.42,3.01-1.74,6.82-3.63l-0.33-0.66c-2.77,1.37-6.22,3.12-6.96,3.71c-1.09,0.87-0.84,5.55-0.74,6.95
				c-0.18,0.1-0.48,0.22-0.7,0.04c-1.95-1.66-5.17-7.35-6.44-10.85c-1.65-4.55-1.65-12.72-0.87-14.07l-0.64-0.37
				c-0.96,1.68-0.87,10.06,0.82,14.69c1.31,3.6,4.57,9.37,6.66,11.16C558.71,487.42,558.96,487.49,559.21,487.49z"/>
		</g>
		<g>
			<path class="st33" d="M555.55,491.17c0,0-7.61-9.94-9.31-12.06c-1.69-2.12-6.56-8.67-7.4-10.79c-0.85-2.12,2.54-0.21,4.02,0.85
				c1.48,1.06,7.61,6.35,7.61,6.35L555.55,491.17z"/>
		</g>
		<g>
			<path class="st33" d="M569.08,475.52c0,0-7.4,3.6-8.46,4.44c-1.06,0.85-0.59,6.85-0.59,6.85s-0.76,0.62-1.32,0.13
				c-2.02-1.73-5.28-7.49-6.55-11c-1.69-4.65-1.69-12.9-0.85-14.38c0.85-1.48,11.21,4.23,12.9,5.92
				C565.91,469.17,568.45,470.86,569.08,475.52z"/>
		</g>
		<g>
			<path class="st45" d="M557.41,486.27l0.69-0.25l-1.6-4.4c-0.39-1.08-0.69-2.05-0.41-2.93c0.19-0.59,0.65-1.11,1.06-1.57
				l7.26-8.13l-0.55-0.49l-7.26,8.13c-0.46,0.51-0.98,1.09-1.21,1.83c-0.39,1.2,0.08,2.48,0.42,3.41L557.41,486.27z"/>
		</g>
		<g>
			<path class="st45" d="M553.66,480.06l0.73-0.12c-0.07-0.42-0.15-0.84-0.23-1.27c-0.2-1.05-0.41-2.12-0.39-3.18
				c0.04-1.74,0.71-3.62,1.95-5.41c1.12-1.63,2.58-3.06,4-4.44l-0.52-0.53c-1.44,1.4-2.92,2.86-4.09,4.55
				c-1.32,1.92-2.04,3.93-2.08,5.82c-0.02,1.14,0.19,2.26,0.4,3.34C553.51,479.23,553.59,479.65,553.66,480.06z"/>
		</g>
	</g>
</g>
</svg>
