<?xml version="1.0" encoding="utf-8"?>
<!-- Generator: Adobe Illustrator 25.0.0, SVG Export Plug-In . SVG Version: 6.00 Build 0)  -->
<svg version="1.1" id="Layer_1" xmlns="http://www.w3.org/2000/svg" xmlns:xlink="http://www.w3.org/1999/xlink" x="0px" y="0px"
	 viewBox="0 0 814.24 218.47" style="enable-background:new 0 0 814.24 218.47;" xml:space="preserve">
<style type="text/css">
	.st0{fill:#2B1E54;}
</style>
<g>
	<g>
		<g>
			<path class="st0" d="M2756.73,87.02v87.14h-20.38V162c-5.42,9.35-15.52,14.4-28.42,14.4c-12.53,0-21.32-4.49-26.18-11.78
				c-4.3-6.55-5.61-13.84-5.61-25.81v-51.8h20.38v45.07c0,14.96,4.3,26.37,18.89,26.37c14.21,0,20.94-11.41,20.94-26.37V87.01
				L2756.73,87.02L2756.73,87.02z"/>
			<path class="st0" d="M2841.36,149.85c0,18.14-15.71,26.56-34.78,26.56c-18.7,0-35.53-11.03-35.53-31.6h19.82
				c0,11.41,7.11,15.52,16.83,15.52c8.04,0,14.21-2.62,14.21-10.1c0-8.23-8.79-8.79-27.12-15.9c-12.16-4.68-20.76-9.16-20.76-24.31
				c0-16.46,14.96-25.25,32.73-25.25c18.51,0,33.29,12.53,33.29,29.55h-19.82c0-8.23-4.11-13.46-14.03-13.46
				c-6.92,0-12.53,3.37-12.53,9.54c0,7.48,8.04,8.41,23.94,14.59C2829.76,129.66,2841.36,133.96,2841.36,149.85z"/>
			<path class="st0" d="M2906.44,174.16c-3.18,0.56-9.16,1.12-15.15,1.12c-9.91,0-28.24-1.31-28.24-30.67v-40.58h-14.77V87.01h14.77
				V60.64h20.38v26.37h20.01v17.02h-20.01v35.9c0,15.15,4.68,17.02,12.72,17.02c3.18,0,8.23-0.37,10.29-0.75V174.16z"/>
			<path class="st0" d="M2928.88,40.09c8.42,0,15.15,6.73,15.15,15.15c0,8.23-6.73,14.96-15.15,14.96
				c-8.23,0-14.96-6.73-14.96-14.96C2913.92,46.82,2920.65,40.09,2928.88,40.09z M2918.78,87.02h20.38v87.14h-20.38V87.02z"/>
			<path class="st0" d="M3019.58,118.81c-1.12-9.54-6.73-15.89-20.57-15.89c-15.71,0-23.37,12.9-23.37,27.67
				c0,14.96,7.11,27.68,24.68,27.68c11.97,0,16.83-5.24,19.45-14.02h20.38c-2.8,18.14-16.08,32.16-41.33,32.16
				c-28.43,0-43.57-22.07-43.57-45.82c0-23.56,15.15-45.81,43.38-45.81c28.42,0,40.02,17.2,41.33,34.03L3019.58,118.81
				L3019.58,118.81z"/>
			<path class="st0" d="M3062.59,40.09c8.42,0,15.15,6.73,15.15,15.15c0,8.23-6.73,14.96-15.15,14.96
				c-8.23,0-14.96-6.73-14.96-14.96C3047.63,46.82,3054.36,40.09,3062.59,40.09z M3052.49,87.02h20.38v87.14h-20.38V87.02z"/>
			<path class="st0" d="M3176.85,87.02v87.14h-20.38v-11.78c-5.42,8.79-16.83,14.03-26.93,14.03c-26.55,0-44.69-21.13-44.69-45.82
				c0-24.68,18.14-45.81,44.69-45.81c10.1,0,21.5,5.24,26.93,14.03V87.03h20.38V87.02z M3156.46,130.59
				c0-14.96-10.1-27.67-25.8-27.67c-15.33,0-25.43,12.72-25.43,27.67c0,14.96,10.1,27.68,25.43,27.68
				C3146.37,158.27,3156.46,145.55,3156.46,130.59z"/>
		</g>
		<path class="st0" d="M2606.85,144.71l-0.37,0.58c-4.51,7.02-11.88,10.58-21.91,10.58c-16.46,0-26.75-11.44-28.32-31.43h56.99
			v-0.76c0-24.53-13.71-39.76-35.78-39.76c-12.55,0-22.21,4.34-29.54,13.29c-3.05,3.8-5.45,7.98-7.21,12.59
			c-1.09-37.42-25.59-58.81-67.63-58.81h-54.85v7.7l0.7,0.05c6.39,0.49,10.89,1.97,13.01,4.25c2.09,2.41,3.11,7.19,3.11,14.59v69.7
			c0,7.29-1.02,12-3.11,14.42c-2.11,2.43-6.49,3.92-13.01,4.42l-0.7,0.05v7.7h55.54c33.04,0,55.13-13.5,63.38-37.79
			c0.75,10.92,4.42,20.16,10.96,27.47c7.17,8.22,17.05,12.4,29.35,12.4c9.75,0,17.79-2.75,23.91-8.16
			c5.91-5.21,9.89-11.64,11.85-19.1l0.15-0.59L2606.85,144.71z M2573.83,93.4c9.57,0,14.51,7.37,14.67,21.9h-32.43
			C2556.93,101.17,2563.22,93.4,2573.83,93.4z M2458.93,60.98h11.9c29.36,0,43.63,16.82,43.63,51.43
			c0,33.65-14.13,51.43-40.86,51.43h-5.72c-6.03,0-8.95-2.99-8.95-9.13L2458.93,60.98L2458.93,60.98z"/>
		<g>
			<path class="st0" d="M2643.23,68.85c8.42,0,15.15-6.73,15.15-14.96c0-8.41-6.73-15.15-15.15-15.15
				c-8.23,0-14.96,6.73-14.96,15.15C2628.27,62.12,2635,68.85,2643.23,68.85z"/>
			<path class="st0" d="M2620.2,93.8v6.07c2.43-0.35,4.51-0.52,6.24-0.52c5.72,0,8.15,2.43,8.15,8.67v51.71h0.05v32.18
				c0,6.54-2.24,8.79-6.55,8.79c-1.68,0-3.18-0.19-7.11-1.12v16.83c2.8,1.12,9.16,2.06,15.71,2.06c8.98,0,18.33-5.61,18.33-25.25
				v-33.49h0.2V85.66h-6.76L2620.2,93.8z"/>
		</g>
	</g>
</g>
<g>
	<g>
		<g>
			<path class="st0" d="M371.65,87.02v87.14h-20.38V162c-5.42,9.35-15.52,14.4-28.42,14.4c-12.53,0-21.32-4.49-26.18-11.78
				c-4.3-6.55-5.61-13.84-5.61-25.81v-51.8h20.38v45.07c0,14.96,4.3,26.37,18.89,26.37c14.21,0,20.94-11.41,20.94-26.37V87.01
				L371.65,87.02L371.65,87.02z"/>
			<path class="st0" d="M456.28,149.85c0,18.14-15.71,26.56-34.78,26.56c-18.7,0-35.53-11.03-35.53-31.6h19.82
				c0,11.41,7.11,15.52,16.83,15.52c8.04,0,14.21-2.62,14.21-10.1c0-8.23-8.79-8.79-27.12-15.9c-12.16-4.68-20.76-9.16-20.76-24.31
				c0-16.46,14.96-25.25,32.73-25.25c18.51,0,33.29,12.53,33.29,29.55h-19.82c0-8.23-4.11-13.46-14.03-13.46
				c-6.92,0-12.53,3.37-12.53,9.54c0,7.48,8.04,8.41,23.94,14.59C444.68,129.66,456.28,133.96,456.28,149.85z"/>
			<path class="st0" d="M521.36,174.16c-3.18,0.56-9.16,1.12-15.15,1.12c-9.91,0-28.24-1.31-28.24-30.67v-40.58H463.2V87.01h14.77
				V60.64h20.38v26.37h20.01v17.02h-20.01v35.9c0,15.15,4.68,17.02,12.72,17.02c3.18,0,8.23-0.37,10.29-0.75V174.16z"/>
			<path class="st0" d="M543.8,40.09c8.42,0,15.15,6.73,15.15,15.15c0,8.23-6.73,14.96-15.15,14.96c-8.23,0-14.96-6.73-14.96-14.96
				C528.84,46.82,535.57,40.09,543.8,40.09z M533.7,87.02h20.38v87.14H533.7V87.02z"/>
			<path class="st0" d="M634.49,118.81c-1.12-9.54-6.73-15.89-20.57-15.89c-15.71,0-23.37,12.9-23.37,27.67
				c0,14.96,7.11,27.68,24.68,27.68c11.97,0,16.83-5.24,19.45-14.02h20.38c-2.81,18.14-16.08,32.16-41.33,32.16
				c-28.43,0-43.57-22.07-43.57-45.82c0-23.56,15.15-45.81,43.38-45.81c28.42,0,40.02,17.2,41.33,34.03L634.49,118.81L634.49,118.81
				z"/>
			<path class="st0" d="M677.51,40.09c8.42,0,15.15,6.73,15.15,15.15c0,8.23-6.73,14.96-15.15,14.96c-8.23,0-14.96-6.73-14.96-14.96
				C662.55,46.82,669.28,40.09,677.51,40.09z M667.41,87.02h20.38v87.14h-20.38V87.02z"/>
			<path class="st0" d="M791.76,87.02v87.14h-20.38v-11.78c-5.42,8.79-16.83,14.03-26.93,14.03c-26.55,0-44.69-21.13-44.69-45.82
				c0-24.68,18.14-45.81,44.69-45.81c10.1,0,21.5,5.24,26.93,14.03V87.03h20.38V87.02z M771.38,130.59
				c0-14.96-10.1-27.67-25.8-27.67c-15.33,0-25.43,12.72-25.43,27.67c0,14.96,10.1,27.68,25.43,27.68
				C761.28,158.27,771.38,145.55,771.38,130.59z"/>
		</g>
		<path class="st0" d="M221.77,144.71l-0.37,0.58c-4.51,7.02-11.88,10.58-21.91,10.58c-16.46,0-26.75-11.44-28.32-31.43h56.99v-0.76
			c0-24.53-13.71-39.76-35.78-39.76c-12.55,0-22.21,4.34-29.54,13.29c-3.05,3.8-5.45,7.98-7.21,12.59
			C154.54,72.38,130.04,50.99,88,50.99H33.15v7.7l0.7,0.05c6.39,0.49,10.89,1.97,13.01,4.25c2.09,2.41,3.11,7.19,3.11,14.59v69.7
			c0,7.29-1.02,12-3.11,14.42c-2.11,2.43-6.49,3.92-13.01,4.42l-0.7,0.05v7.7h55.54c33.04,0,55.13-13.5,63.38-37.79
			c0.75,10.92,4.42,20.16,10.96,27.47c7.17,8.22,17.05,12.4,29.35,12.4c9.75,0,17.79-2.75,23.91-8.16
			c5.91-5.21,9.89-11.64,11.85-19.1l0.15-0.59L221.77,144.71z M188.74,93.4c9.57,0,14.51,7.37,14.67,21.9h-32.43
			C171.85,101.17,178.14,93.4,188.74,93.4z M73.85,60.98h11.9c29.36,0,43.63,16.82,43.63,51.43c0,33.65-14.13,51.43-40.86,51.43
			H82.8c-6.03,0-8.95-2.99-8.95-9.13L73.85,60.98L73.85,60.98z"/>
		<g>
			<path class="st0" d="M258.15,68.85c8.42,0,15.15-6.73,15.15-14.96c0-8.41-6.73-15.15-15.15-15.15c-8.23,0-14.96,6.73-14.96,15.15
				C243.19,62.12,249.92,68.85,258.15,68.85z"/>
			<path class="st0" d="M235.12,93.8v6.07c2.43-0.35,4.51-0.52,6.24-0.52c5.72,0,8.15,2.43,8.15,8.67v51.71h0.05v32.18
				c0,6.54-2.24,8.79-6.55,8.79c-1.68,0-3.18-0.19-7.11-1.12v16.83c2.81,1.12,9.16,2.06,15.71,2.06c8.98,0,18.33-5.61,18.33-25.25
				v-33.49h0.2V85.66h-6.76L235.12,93.8z"/>
		</g>
	</g>
</g>
</svg>
