<?xml version="1.0" encoding="utf-8"?>
<!-- Generator: Adobe Illustrator 25.0.0, SVG Export Plug-In . SVG Version: 6.00 Build 0)  -->
<svg version="1.1" xmlns="http://www.w3.org/2000/svg" xmlns:xlink="http://www.w3.org/1999/xlink" x="0px" y="0px"
	 viewBox="0 0 500.53 235.83" style="enable-background:new 0 0 500.53 235.83;" xml:space="preserve">
<style type="text/css">
	.st0{fill:#00CFD2;}
	.st1{fill:#F5F5F5;}
	.st2{fill:none;stroke:#1B8990;stroke-width:4;stroke-miterlimit:10;}
	.st3{fill:#F7F7F7;}
	.st4{fill:none;stroke:#00CFD2;stroke-width:2;stroke-miterlimit:10;}
	.st5{fill:#003956;}
	.st6{fill:#FEFEFE;}
	.st7{fill:#008186;}
	.st8{fill:#FF7602;}
	.st9{fill:#00465B;}
	.st10{fill:#FF7802;}
	.st11{fill:none;stroke:#FF7802;stroke-miterlimit:10;}
	.st12{fill:#FFFFFF;}
	.st13{fill:none;stroke:#FF7802;stroke-width:3;stroke-miterlimit:10;}
	.st14{fill:none;}
	.st15{opacity:0.3;}
	.st16{fill:#686868;}
	.st17{fill:#939393;}
	.st18{fill:#838383;}
	.st19{fill:#A5A5A5;}
	.st20{fill:#E8E8E8;}
	.st21{fill:#3772BB;}
	.st22{clip-path:url(#SVGID_53_);}
	.st23{fill:#60CB86;}
	.st24{fill:none;stroke:#534741;stroke-miterlimit:10;}
	.st25{opacity:0.2;fill:#1B233C;enable-background:new    ;}
	.st26{clip-path:url(#SVGID_55_);}
	.st27{fill:#C1936A;}
	.st28{fill:#2D2100;}
	.st29{opacity:0.16;enable-background:new    ;}
	.st30{fill:#FFD297;}
	.st31{clip-path:url(#SVGID_57_);}
	.st32{clip-path:url(#SVGID_59_);}
	.st33{font-family:'Roboto-Bold';}
	.st34{font-size:36.2441px;}
	.st35{font-family:'Roboto-Black';}
	.st36{font-size:121.786px;}
	.st37{fill:none;stroke:#FF7602;stroke-miterlimit:10;}
	.st38{opacity:0.2;}
	.st39{fill:#676767;}
	.st40{opacity:0.2;fill:none;stroke:#676767;stroke-width:3.0697;stroke-miterlimit:10;}
	.st41{opacity:0.2;fill:#A3A3A3;}
	.st42{fill:#707070;}
	.st43{fill:#616161;}
	.st44{fill:#7F7F7F;}
	.st45{opacity:0.2;fill:none;stroke:#A3A3A3;stroke-width:25;stroke-miterlimit:10;}
	.st46{fill-rule:evenodd;clip-rule:evenodd;fill:#797979;}
	.st47{fill-rule:evenodd;clip-rule:evenodd;fill:#FFFFFF;}
	.st48{fill-rule:evenodd;clip-rule:evenodd;fill:#6C6C6C;}
	.st49{fill-rule:evenodd;clip-rule:evenodd;fill:#9F9F9F;}
	.st50{fill-rule:evenodd;clip-rule:evenodd;fill:#4B4B4B;}
	.st51{fill-rule:evenodd;clip-rule:evenodd;fill:#848484;}
	.st52{fill-rule:evenodd;clip-rule:evenodd;fill:#EAEAEA;}
	.st53{fill-rule:evenodd;clip-rule:evenodd;fill:#CBCBCB;}
	.st54{opacity:0.2;fill:#707070;}
	.st55{opacity:0.2;fill:#FFFFFF;}
	.st56{fill:#D0D0D0;}
	.st57{fill:#BFBFBF;}
	.st58{opacity:0.05;}
	.st59{fill:#9D9D9D;}
	.st60{fill:#858585;}
	.st61{fill:#8D8D8D;}
	.st62{fill:#008891;}
	.st63{fill:none;stroke:#FFFFFF;stroke-miterlimit:10;}
	.st64{fill:#F6F4F2;}
	.st65{clip-path:url(#SVGID_61_);}
	.st66{clip-path:url(#SVGID_63_);}
	.st67{fill:#00455C;}
	.st68{fill:none;stroke:#F7F7F7;stroke-width:2;stroke-miterlimit:10;}
	.st69{fill:#E2E2E2;}
	.st70{fill:#00D0D2;}
	.st71{fill:#008086;}
	.st72{fill:#00A0AC;}
	.st73{fill:#FFF3FF;}
	.st74{clip-path:url(#SVGID_65_);}
	.st75{clip-path:url(#SVGID_67_);}
	.st76{fill:#00BABA;}
	.st77{clip-path:url(#SVGID_69_);}
	.st78{clip-path:url(#SVGID_71_);}
	.st79{fill:none;stroke:#00CFD2;stroke-width:5;stroke-linecap:round;stroke-miterlimit:10;}
	.st80{clip-path:url(#SVGID_73_);}
	.st81{opacity:0.4;fill:#FFFFFF;}
	.st82{opacity:0.4;}
	.st83{opacity:0.21;fill:url(#SVGID_78_);}
	.st84{opacity:0.11;fill:#4869A9;}
	.st85{opacity:0.22;fill:#4869A9;}
	.st86{opacity:0.7;fill:#4869A9;}
	.st87{opacity:0.4;fill:#4869A9;}
	.st88{fill:#663000;}
	.st89{fill:#FFC1B0;}
	.st90{fill:#E56403;}
	.st91{fill:#570C01;}
	.st92{fill:#EB3604;}
	.st93{fill:#DFEFFF;}
	.st94{fill:#68778D;}
	.st95{fill:#FC5524;}
	.st96{fill:#140B08;}
	.st97{fill:#133B45;}
	.st98{fill:#CEF3F6;}
	.st99{fill:none;stroke:#00CFD2;stroke-miterlimit:10;}
	.st100{fill:#EAEEF0;}
	.st101{fill:#66B6C7;}
	.st102{fill:#7FE4F5;}
	.st103{fill:#A3E6F8;}
	.st104{fill:#E5F8FF;}
	.st105{fill:none;stroke:#E5F8FF;stroke-width:3.7929;stroke-linecap:round;stroke-miterlimit:10;}
	.st106{clip-path:url(#SVGID_90_);}
	.st107{clip-path:url(#SVGID_92_);}
	.st108{clip-path:url(#SVGID_94_);}
	.st109{opacity:0.21;fill:url(#SVGID_99_);}
	.st110{clip-path:url(#SVGID_107_);}
	.st111{clip-path:url(#SVGID_109_);}
	.st112{clip-path:url(#SVGID_111_);}
	.st113{opacity:0.4;fill:#E2E2E2;}
	.st114{opacity:0.4;fill:#008086;}
	.st115{opacity:0.4;fill:#00D0D2;}
	.st116{opacity:0.22;fill:#AAAAAA;}
	.st117{opacity:0.7;fill:#AAAAAA;}
	.st118{opacity:0.4;fill:#AAAAAA;}
	.st119{opacity:0.43;fill:#212121;}
	.st120{fill:none;stroke:#00465B;stroke-width:4;stroke-miterlimit:10;}
	.st121{clip-path:url(#SVGID_115_);}
	.st122{clip-path:url(#SVGID_117_);}
	.st123{fill:none;stroke:#FF7602;stroke-width:2;stroke-miterlimit:10;}
	.st124{clip-path:url(#SVGID_119_);}
	.st125{clip-path:url(#SVGID_123_);}
	.st126{clip-path:url(#SVGID_123_);fill:#FFFFFF;}
	.st127{clip-path:url(#SVGID_123_);fill:none;stroke:#FF7802;stroke-width:3;stroke-miterlimit:10;}
	.st128{clip-path:url(#SVGID_129_);}
	.st129{clip-path:url(#SVGID_129_);fill:#FFFFFF;}
	.st130{clip-path:url(#SVGID_129_);fill:none;stroke:#FF7802;stroke-width:3;stroke-miterlimit:10;}
	.st131{clip-path:url(#SVGID_135_);}
	.st132{clip-path:url(#SVGID_135_);fill:#FFFFFF;}
	.st133{clip-path:url(#SVGID_135_);fill:none;stroke:#FF7802;stroke-width:3;stroke-miterlimit:10;}
	.st134{clip-path:url(#SVGID_141_);}
	.st135{clip-path:url(#SVGID_141_);fill:#FFFFFF;}
	.st136{clip-path:url(#SVGID_141_);fill:none;stroke:#FF7802;stroke-width:3;stroke-miterlimit:10;}
	.st137{fill:none;stroke:#22CFD1;stroke-miterlimit:10;}
	.st138{clip-path:url(#SVGID_147_);}
	.st139{clip-path:url(#SVGID_147_);fill:#FFFFFF;}
	.st140{clip-path:url(#SVGID_147_);fill:none;stroke:#FF7802;stroke-width:3;stroke-miterlimit:10;}
	.st141{clip-path:url(#SVGID_153_);}
	.st142{clip-path:url(#SVGID_153_);fill:#FFFFFF;}
	.st143{clip-path:url(#SVGID_153_);fill:none;stroke:#FF7802;stroke-width:3;stroke-miterlimit:10;}
	.st144{fill:#FFFFFF;stroke:#00CFD2;stroke-miterlimit:10;}
	.st145{opacity:0.6;}
	.st146{opacity:0.11;fill:#8C8C8C;}
	.st147{opacity:0.4;fill:#8C8C8C;}
	.st148{fill:#06475A;}
	.st149{opacity:0.11;fill:#FFFFFF;}
	.st150{fill:url(#SVGID_158_);}
	.st151{fill:#265789;}
	.st152{clip-path:url(#SVGID_164_);}
	.st153{clip-path:url(#SVGID_166_);}
	.st154{clip-path:url(#SVGID_168_);}
	.st155{opacity:0.21;fill:url(#SVGID_173_);}
	.st156{fill:#CCCCCC;}
	.st157{fill:#D48131;}
	.st158{fill:#366AAB;}
	.st159{fill:#97BBF7;}
	.st160{fill:#C3855D;}
	.st161{fill:#1F508C;}
	.st162{fill:#84574B;}
	.st163{opacity:0.57;}
	.st164{fill:#7D2B00;}
	.st165{fill:#1D3D48;}
	.st166{fill:#303030;}
	.st167{fill:#0D84A5;}
	.st168{fill:#D9C273;}
	.st169{fill:#734230;}
	.st170{fill:#06345B;}
	.st171{fill:#015A74;}
	.st172{opacity:0.53;}
	.st173{fill:#783478;}
	.st174{fill:#829F37;}
	.st175{fill:#CA7C58;}
	.st176{fill:#2F849E;}
	.st177{fill:#975493;}
	.st178{fill:#70880B;}
	.st179{fill:#FB5F6E;}
	.st180{opacity:0.4;fill:#65352D;}
	.st181{fill:#714339;}
	.st182{fill:#371304;}
	.st183{opacity:0.7;fill:#AC7163;}
	.st184{opacity:0.32;fill:#65352D;}
	.st185{fill:#D022B1;}
	.st186{fill:#052C4D;}
	.st187{fill:#FCB040;}
	.st188{fill:none;stroke:#D3821D;stroke-miterlimit:10;}
	.st189{fill:#B45F3D;}
	.st190{fill:#148499;}
	.st191{fill:#023D6F;}
	.st192{fill:#E69A36;}
	.st193{fill:#017281;}
	.st194{fill:#4176A8;}
	.st195{fill:#FD780E;}
	.st196{fill:#7D357C;}
	.st197{fill:none;stroke:#7D357C;stroke-miterlimit:10;}
	.st198{fill:#D8510E;}
	.st199{fill:#A292A0;}
	.st200{fill:#604F61;}
	.st201{fill:#3F363F;}
	.st202{opacity:0.43;fill:#5A88D1;}
	.st203{fill:#5A88D1;}
	.st204{fill:#84E8FA;}
	.st205{fill:#33D7F0;}
	.st206{fill:#D28163;}
	.st207{fill:none;stroke:#000000;stroke-linecap:round;stroke-miterlimit:10;}
	.st208{clip-path:url(#SVGID_181_);}
	.st209{fill:none;stroke:#00CFD2;stroke-width:0.25;stroke-miterlimit:10;}
	.st210{clip-path:url(#SVGID_183_);}
	.st211{clip-path:url(#SVGID_185_);}
	.st212{fill:none;stroke:#F7F7F7;stroke-width:0.25;stroke-miterlimit:10;}
	.st213{clip-path:url(#SVGID_187_);}
	.st214{clip-path:url(#SVGID_189_);}
	.st215{clip-path:url(#SVGID_191_);}
	.st216{clip-path:url(#SVGID_193_);}
	.st217{clip-path:url(#SVGID_195_);}
	.st218{fill:#EBE8E4;}
	.st219{fill:#FFFFFF;stroke:#DDDDDD;stroke-miterlimit:10;}
	.st220{clip-path:url(#SVGID_197_);}
	.st221{clip-path:url(#SVGID_199_);}
	.st222{clip-path:url(#SVGID_201_);}
	.st223{fill:none;stroke:#DDDDDD;stroke-miterlimit:10;}
	.st224{clip-path:url(#SVGID_205_);}
	.st225{clip-path:url(#SVGID_207_);}
	.st226{clip-path:url(#SVGID_209_);}
	.st227{clip-path:url(#SVGID_213_);}
	.st228{clip-path:url(#SVGID_215_);}
	.st229{clip-path:url(#SVGID_217_);}
	.st230{fill:none;stroke:#D8D8D8;stroke-miterlimit:10;}
</style>
<g id="BACKGROUND">
</g>
<g id="OBJECTS">
</g>
<g id="DESIGNED_BY_FREEPIK">
	<g>
		<g>
			<path class="st8" d="M178.52,234.72H42.72C19.13,234.72,0,215.59,0,191.99V56.19C0,32.6,19.13,13.47,42.72,13.47h135.8
				c23.59,0,42.72,19.13,42.72,42.72v135.8C221.25,215.59,202.12,234.72,178.52,234.72z"/>
			<g>
				<g>
					<path class="st12" d="M115.86,218.76c-25.48-0.28-48.76-10.52-65.56-28.82c-16.43-17.92-25.33-41.99-25.05-67.78
						C25.54,96.62,35.03,73.17,52,56.1c16.99-17.09,40.06-26.35,64.96-26.08c9.77,0.11,19.24,1.41,28.15,3.87
						c7.16,1.98,13.98,4.7,20.26,8.1c4.2,2.27,8.13,5.11,11.37,7.73c4.93,3.99,5.66,11.25,1.6,16.13l0,0
						c-3.35,4.04-9.31,4.66-13.43,1.41c-3.1-2.44-6.85-5.13-10.55-7.07c-7.94-4.16-20.87-9.15-37.38-9.34
						c-19.02-0.21-36.57,6.88-49.45,19.96c-12.97,13.18-20.23,31.5-20.45,51.57c-0.23,20.43,6.65,39.4,19.36,53.4
						c12.75,14.05,30.38,21.91,49.65,22.12c34.11,0.38,51.43-17.51,51.63-17.73l3.15-2.9c4.27-4.72,10.29-4.65,13.22-1.32v-0.01
						c4.83,5.49,4.17,13.87-1.44,18.55c-3.39,2.82-7.42,5.83-11.71,8.31c-6.8,3.93-18.14,9.74-25.69,11.94
						C135.8,217.53,125.92,218.87,115.86,218.76z"/>
				</g>
			</g>
			<g>
				<g>
					<circle id="SVGID_45_" class="st21" cx="116.86" cy="125.16" r="57.15"/>
				</g>
				<g>
					<defs>
						<circle id="SVGID_56_" cx="116.86" cy="125.16" r="57.15"/>
					</defs>
					<clipPath id="SVGID_47_">
						<use xlink:href="#SVGID_56_"  style="overflow:visible;"/>
					</clipPath>
					<g style="clip-path:url(#SVGID_47_);">
						<path class="st12" d="M92.71,179.56c0.45,0.15,20.54,5.89,20.54,5.89l19.33-1.21l8.16-3.93l-8.76-3.47l-11.02,1.36l-16.46-0.6
							l-4.68-4.53l-8.16,6.04L92.71,179.56z"/>
						<g>
							<path class="st23" d="M81.35,117.97l10.94-1.55l25.87,18.15l-20.7,23.32c0,0-3.24,13.75-2.85,13.75
								c0.1,0-2.68,1.61-2.68,1.61c-3.42-9.32-9.29-33.92-9.29-33.92l-2.96-1.67c0,0-2.57-9.39-2.7-9.39s2.83-6.56,2.83-6.56
								l-3.22-2.19l-3.6-8.5l-5.02-3.86l-1.16-12.74l9.91-15.19c0,0,31.15-12.23,31.53-11.97l0.37,7.83l-9.01,0.39
								c0,0-4.63,7.85-4.12,7.85c0.52,0,6.95-4.76,6.95-4.76s5.79,1.29,5.54,1.29c-0.26,0-5.4,5.92-5.4,5.92l0.13,2.7
								c0,0-6.82,0.64-7.08,0.77c-0.26,0.13-2.57,3.6-2.96,3.6s-5.28,1.8-5.28,1.8l-1.16,6.82l-8.62-5.02l-5.92,6.56l3.86,3.99
								l-0.64,3.6l3.99,6.95L81.35,117.97z"/>
							<polygon class="st23" points="113.51,70.97 124.58,73.93 114.28,78.95 111.71,77.4 							"/>
							<path class="st23" d="M144.53,74.32c0,0-9.78,2.32-9.27,2.7c0.52,0.39,7.85,6.43,7.85,6.43l-1.55,7.59l-6.31,0.64l5.02,3.73
								l9.91-2.7l-1.67,3.99c1.67,0.52,2.57,1.16,2.57,1.16l6.05-3.73c0,0,1.16,2.7,0.9,2.57c-0.26-0.13,3.86,2.57,3.48,2.57
								c-0.39,0-2.96,2.44-2.96,2.44l-7.21-2.7l-9.01-0.39l-7.72,11.2l1.41,12.35l16.22,2.19l1.67,11.07l-4.25,24.07l9.39,0.13
								l1.67-8.5l4.89-4.12l7.21-12.74l1.55-18.53l-9.91-28.06L144.53,74.32z"/>
							<path class="st23" d="M134.75,80.49c0,0,6.05,6.18,5.66,6.18s-5.15,2.19-5.15,2.19l1.55-3.09L134.75,80.49z"/>
							<path class="st23" d="M132.3,83.84l-1.03,2.32l2.7,1.03c0,0,1.16-1.41,0.77-1.41C134.36,85.77,132.3,83.84,132.3,83.84z"/>
						</g>
					</g>
				</g>
				<g>
					<circle id="SVGID_44_" class="st24" cx="116.86" cy="125.16" r="57.15"/>
				</g>
			</g>
			<path class="st25" d="M116.93,171.47c-17.87,0-34.41-5.71-47.89-15.4c10.11,15.82,27.82,26.3,47.98,26.3
				c20.26,0,38.05-10.59,48.13-26.55C151.61,165.67,134.95,171.47,116.93,171.47z"/>
			<g>
				<g>
					<defs>
						<circle id="SVGID_58_" cx="116.64" cy="124.94" r="57.15"/>
					</defs>
					<clipPath id="SVGID_49_">
						<use xlink:href="#SVGID_58_"  style="overflow:visible;"/>
					</clipPath>
					<g style="clip-path:url(#SVGID_49_);">
						<g>
							<path class="st27" d="M177.81,101.44l-45.15,8.66c0,0-4.43,4.07-3.59,10.3c0.84,6.23,6.47,7.66,6.47,7.66
								s35.36-1.55,42.06-1.43L177.81,101.44z"/>
							<path class="st28" d="M135.47,128.68l-0.09-0.02c-0.06-0.01-6.04-1.62-6.92-8.18c-0.87-6.47,3.6-10.66,3.78-10.83l0.13-0.12
								l46.06-8.83l-0.22,26.55l-0.62-0.01c-6.6-0.12-41.67,1.41-42.03,1.43L135.47,128.68z M132.95,110.66
								c-0.67,0.69-3.99,4.39-3.28,9.65c0.72,5.36,5.27,6.93,5.93,7.13c2.03-0.09,33.65-1.46,41.38-1.43l0.2-23.83L132.95,110.66z"
								/>
						</g>
						<polygon class="st29" points="177.53,126.59 177.29,118.45 117.81,123.87 119.25,128.06 						"/>
						<g>
							<path class="st30" d="M55.68,104.83l0.12,25.23c19.64,3.95,50.31,6.09,50.31,6.09c3.68,2.19,8.1,3.5,12.4,4.49
								c5.17,1.19,5.93-1.73,6-1.68c1.58,0.96,2.64,0.6,3.71-1.08c0.61-0.95,0.51-0.98,0.6-0.96c4.92,1.12,4.48-3,4.55-2.99
								c9.1,1.08,7.45-5.96,7.42-5.99c-0.13-0.12-3.83,0.12-5.29,0.12c-0.08,0.09,0.11-0.07,0.16-0.12
								c-1.93-0.47-3.68-1.72-4.74-3.55c-1.74-2.98-2.15-5.38-1.32-8.71c0.42-1.68,2.57-5.46,3.05-5.58
								c0.05-0.01,1.06-0.17,1.07-0.22c0.2-1.51-0.09-3.04-2.27-3.73c-4.73-1.5-12.01,3.4-15.57,5.87c-2.33,1.62-7.42,5.75-8.38,7.9
								C107.51,119.92,72.45,111.9,55.68,104.83z"/>
							<path class="st28" d="M120.76,141.53c-0.73,0-1.53-0.1-2.39-0.3c-3.7-0.86-8.45-2.14-12.45-4.49
								c-2.32-0.17-31.48-2.31-50.24-6.09l-0.49-0.1l-0.13-26.66l0.86,0.36c15.49,6.53,47.09,13.98,51.27,14.95
								c1.45-2.43,6.24-6.24,8.35-7.7c5.09-3.53,11.53-7.4,16.1-5.95c2.08,0.66,2.99,2.14,2.69,4.39c-0.07,0.49-0.38,0.54-1.42,0.72
								c-0.01,0-0.01,0-0.02,0c-0.53,0.52-2.31,3.65-2.69,5.15c-0.78,3.11-0.44,5.35,1.25,8.25c0.95,1.63,2.54,2.82,4.36,3.26
								l0.38,0.09c0.53-0.01,1.16-0.04,1.79-0.07c2.96-0.12,2.98-0.1,3.23,0.11c0.2,0.18,0.32,0.7,0.34,1.55
								c0.01,0.66-0.06,1.64-0.48,2.59c-0.72,1.59-2.53,3.35-7.12,2.98c-0.13,1.08-0.56,1.9-1.26,2.44
								c-0.85,0.65-2.04,0.84-3.56,0.57c-0.08,0.15-0.2,0.35-0.37,0.61c-1.14,1.78-2.43,2.28-4.01,1.56
								C123.92,140.93,122.56,141.53,120.76,141.53z M56.41,129.56c19.39,3.84,49.44,5.96,49.74,5.98l0.14,0.01l0.12,0.08
								c3.88,2.31,8.57,3.58,12.22,4.42c1.87,0.43,4.3,0.56,5.26-1.27c0.06-0.12,0.17-0.33,0.44-0.4l0.26-0.07l0.23,0.14
								c1.26,0.76,1.96,0.55,2.88-0.88c0.31-0.48,0.42-0.7,0.48-0.81c0.22-0.43,0.54-0.46,0.77-0.41c1.35,0.31,2.34,0.22,2.97-0.26
								c0.77-0.59,0.81-1.67,0.82-2.03c0.01-0.17,0.01-0.39,0.23-0.57l0.2-0.17l0.27,0.03c2.87,0.34,4.88-0.12,5.96-1.36
								c1-1.15,0.96-2.71,0.88-3.44c-0.54,0-1.5,0.04-2.25,0.08c-0.86,0.03-1.75,0.07-2.35,0.08c-0.14,0.05-0.25,0.03-0.31,0.01
								l-0.35-0.07l-0.08-0.25c-1.9-0.61-3.53-1.93-4.55-3.67c-1.85-3.17-2.24-5.75-1.38-9.17c0.3-1.2,1.27-3,1.56-3.52
								c1.3-2.35,1.73-2.45,1.93-2.51c0.01,0,0.09-0.02,0.19-0.03c0.18-0.03,0.34-0.06,0.46-0.08c0.08-1.41-0.5-2.22-1.88-2.66
								c-4.59-1.46-12.18,3.81-15.03,5.79c-2.33,1.62-7.28,5.65-8.17,7.65l-0.21,0.46l-0.49-0.11c-0.35-0.08-34.14-7.85-51.08-14.76
								L56.41,129.56z"/>
						</g>
						<g>
							<path class="st27" d="M119.37,109.86c0,0-8.62-4.31-20.48,0.84c0,0-11.62,11.14-7.07,13.77c5.81,3.36,9.34-5.75,9.34-5.75
								l6.35,1.2C107.51,119.92,110.99,114.77,119.37,109.86z"/>
							<path class="st28" d="M94.37,125.83c-0.94,0-1.9-0.28-2.85-0.83c-0.77-0.45-1.24-1.14-1.34-2.02
								c-0.5-4.17,7.39-11.86,8.29-12.73l0.08-0.08l0.1-0.04c11.98-5.2,20.63-1.01,20.99-0.82l1.01,0.5l-0.97,0.57
								c-8.14,4.77-11.62,9.82-11.66,9.87l-0.23,0.33l-6.26-1.18c-0.6,1.33-2.5,5.07-5.52,6.13
								C95.48,125.73,94.92,125.83,94.37,125.83z M99.24,111.22c-2.38,2.3-8.2,8.64-7.84,11.62c0.06,0.5,0.29,0.84,0.74,1.1
								c1.21,0.7,2.35,0.85,3.48,0.45c3.09-1.08,4.97-5.84,4.98-5.89l0.19-0.48l6.46,1.22c0.88-1.17,4.17-5.21,10.75-9.28
								c-0.96-0.34-2.53-0.78-4.55-1.02C110.23,108.57,105.16,108.66,99.24,111.22z"/>
						</g>
						<polygon class="st29" points="92.9,135.6 114.58,135.96 56.02,123.48 56.15,130.06 						"/>
						<g>
							<path class="st27" d="M107.39,142.07c0.17,0.21,1.56,3.35,7.3-2.28c0,0,1.5-2.05-0.96-3.47
								C111.46,135.01,105.84,140.16,107.39,142.07z"/>
							<path class="st28" d="M109.18,143.75c-0.12,0-0.23-0.01-0.34-0.02c-0.81-0.1-1.46-0.52-1.93-1.26l-0.02-0.03
								c-0.76-0.96-0.42-2.42,0.95-4.01c1.48-1.73,4.38-3.69,6.2-2.63c0.93,0.54,1.49,1.23,1.66,2.05c0.26,1.23-0.48,2.27-0.52,2.31
								l-0.07,0.08C112.74,142.57,110.75,143.75,109.18,143.75z M107.87,141.68c0.02,0.02,0.05,0.07,0.09,0.13
								c0.12,0.19,0.39,0.62,1.03,0.7c0.69,0.08,2.27-0.22,5.24-3.11c0.09-0.14,0.41-0.71,0.28-1.31c-0.1-0.47-0.46-0.88-1.07-1.24
								c-0.92-0.53-3.14,0.59-4.65,2.37C107.89,140.27,107.52,141.26,107.87,141.68L107.87,141.68z M106.91,142.45L106.91,142.45
								C106.92,142.46,106.91,142.46,106.91,142.45z"/>
						</g>
						<g>
							<path class="st27" d="M104.4,141.95c2.17,2.17,7.26-2.3,12.33-8.55c0,0,1.35-2.47-1.35-3.34c-2.48-0.8-4.73,1.96-7.63,4.82
								C105.08,137.52,102.62,140.17,104.4,141.95z"/>
							<path class="st28" d="M105.78,143.12c-0.72,0-1.33-0.25-1.82-0.73l0,0c-0.52-0.52-0.79-1.14-0.78-1.84
								c0.01-1.86,1.96-3.95,4.14-6.1c0.37-0.36,0.72-0.72,1.07-1.08c2.5-2.53,4.65-4.71,7.18-3.89c0.98,0.32,1.63,0.86,1.93,1.62
								c0.49,1.24-0.21,2.54-0.24,2.6l-0.06,0.09c-3.38,4.16-8.08,9.16-11.25,9.32C105.89,143.12,105.84,143.12,105.78,143.12z
								 M104.83,141.52c0.28,0.28,0.62,0.39,1.06,0.37c2.09-0.11,5.85-3.32,10.33-8.82c0.08-0.18,0.4-0.91,0.15-1.52
								c-0.16-0.4-0.55-0.7-1.17-0.9c-1.81-0.58-3.62,1.26-5.93,3.59c-0.35,0.36-0.71,0.72-1.08,1.09
								c-1.91,1.88-3.77,3.84-3.78,5.23C104.41,140.92,104.54,141.23,104.83,141.52L104.83,141.52z"/>
						</g>
						<g>
							<path class="st27" d="M98.65,141.35c2.17,2.17,6.78-1.46,11.85-7.71c0,0,1.35-2.47-1.35-3.34c-2.48-0.8-4.73,1.96-7.63,4.82
								C98.86,137.76,96.87,139.57,98.65,141.35z"/>
							<path class="st28" d="M100.2,142.59c-0.78,0-1.45-0.27-1.99-0.81c-0.57-0.57-0.86-1.2-0.86-1.88
								c0.01-1.54,1.51-3.03,3.42-4.91l0.31-0.31c0.37-0.36,0.72-0.72,1.07-1.08c2.5-2.53,4.65-4.71,7.18-3.89
								c0.98,0.32,1.63,0.86,1.93,1.62c0.49,1.24-0.21,2.54-0.24,2.6l-0.06,0.09c-3.1,3.82-7.45,8.4-10.59,8.56
								C100.32,142.59,100.27,142.59,100.2,142.59z M108.28,130.77c-1.59,0-3.23,1.66-5.24,3.7c-0.35,0.36-0.71,0.72-1.08,1.09
								l-0.32,0.31c-1.64,1.62-3.05,3.01-3.06,4.04c0,0.22,0.05,0.56,0.5,1.01c0.33,0.33,0.73,0.48,1.24,0.45
								c1.21-0.06,4.08-1.19,9.66-8.06c0.08-0.18,0.4-0.91,0.15-1.52c-0.16-0.4-0.55-0.7-1.17-0.9
								C108.74,130.81,108.51,130.77,108.28,130.77z"/>
						</g>
						<g>
							<path class="st27" d="M90.75,135.24c0,0,0.36,3.35,2.87,4.43c2.51,1.08,5.99-0.36,7.78-2.64c1.79-2.28,0.6-4.91-1.68-4.67
								c-2.28,0.24-6.83,3.23-6.83,3.23L90.75,135.24z"/>
							<path class="st28" d="M95.48,140.65c-0.72,0-1.44-0.13-2.1-0.41c-2.81-1.21-3.22-4.78-3.24-4.93l-0.09-0.8l2.72,0.45
								c0.93-0.6,4.76-2.97,6.9-3.2c1.21-0.13,2.27,0.41,2.84,1.43c0.69,1.26,0.46,2.88-0.61,4.23
								C100.47,139.21,97.91,140.65,95.48,140.65z M91.53,136c0.26,0.96,0.9,2.5,2.33,3.12c2.29,0.98,5.5-0.48,7.06-2.45
								c0.91-1.15,0.86-2.24,0.5-2.88c-0.32-0.58-0.92-0.88-1.63-0.8c-1.74,0.18-5.32,2.33-6.55,3.13l-0.2,0.13L91.53,136z"/>
						</g>
					</g>
				</g>
			</g>
			<g>
				<g>
					<path id="SVGID_43_" class="st28" d="M116.86,182.92c-15.43,0-29.93-6.01-40.84-16.92c-10.91-10.91-16.92-25.41-16.92-40.84
						s6.01-29.93,16.92-40.84C86.92,73.4,101.43,67.4,116.86,67.4s29.93,6.01,40.84,16.92c10.91,10.91,16.92,25.41,16.92,40.84
						s-6.01,29.93-16.92,40.84S132.28,182.92,116.86,182.92z M116.86,68.62c-15.1,0-29.3,5.88-39.98,16.56s-16.56,24.88-16.56,39.98
						s5.88,29.3,16.56,39.98c10.68,10.68,24.88,16.56,39.98,16.56c15.1,0,29.3-5.88,39.98-16.56
						c10.68-10.68,16.56-24.88,16.56-39.98s-5.88-29.3-16.56-39.98C146.15,74.5,131.96,68.62,116.86,68.62z"/>
				</g>
			</g>
		</g>
		<text transform="matrix(1 0 0 1 253.815 147.7245)" class="st9 st33 st34">Información de</text>
		<text transform="matrix(1 0 0 1 253.815 186.868)" class="st9 st33 st34">Protección</text>
		<text transform="matrix(1 0 0 1 253.815 226.0117)" class="st9 st33 st34">Internacional</text>
		<text transform="matrix(1 0 0 1 248.8432 104.1841)" class="st9 st35 st36">IPI</text>
	</g>
</g>
</svg>
