<?xml version="1.0" encoding="utf-8"?>
<!-- Generator: Adobe Illustrator 25.0.0, SVG Export Plug-In . SVG Version: 6.00 Build 0)  -->
<svg version="1.1" xmlns="http://www.w3.org/2000/svg" xmlns:xlink="http://www.w3.org/1999/xlink" x="0px" y="0px"
	 viewBox="0 0 333.82 82.02" style="enable-background:new 0 0 333.82 82.02;" xml:space="preserve">
<style type="text/css">
	.st0{fill:#F7F7F7;}
	.st1{fill:#00CFD2;}
	.st2{fill:#F5F5F5;}
	.st3{fill:none;stroke:#1B8990;stroke-width:4;stroke-miterlimit:10;}
	.st4{fill:none;stroke:#00CFD2;stroke-width:2;stroke-miterlimit:10;}
	.st5{fill:#003956;}
	.st6{fill:#FEFEFE;}
	.st7{fill:#008186;}
	.st8{fill:#FF7602;}
	.st9{fill:#00465B;}
	.st10{fill:none;stroke:#FF7802;stroke-miterlimit:10;}
	.st11{fill:#FF7802;}
	.st12{fill:#FFFFFF;}
	.st13{fill:none;}
	.st14{opacity:0.3;}
	.st15{fill:#686868;}
	.st16{fill:#939393;}
	.st17{fill:#838383;}
	.st18{fill:#A5A5A5;}
	.st19{fill:#E8E8E8;}
	.st20{fill:#3772BB;}
	.st21{clip-path:url(#SVGID_50_);}
	.st22{fill:#60CB86;}
	.st23{fill:none;stroke:#534741;stroke-miterlimit:10;}
	.st24{opacity:0.2;fill:#1B233C;enable-background:new    ;}
	.st25{clip-path:url(#SVGID_52_);}
	.st26{fill:#C1936A;}
	.st27{fill:#2D2100;}
	.st28{opacity:0.16;enable-background:new    ;}
	.st29{fill:#FFD297;}
	.st30{fill:none;stroke:#FF7602;stroke-miterlimit:10;}
	.st31{opacity:0.2;}
	.st32{fill:#676767;}
	.st33{opacity:0.2;fill:none;stroke:#676767;stroke-width:3.0697;stroke-miterlimit:10;}
	.st34{opacity:0.2;fill:#A3A3A3;}
	.st35{fill:#707070;}
	.st36{fill:#616161;}
	.st37{fill:#7F7F7F;}
	.st38{opacity:0.2;fill:none;stroke:#A3A3A3;stroke-width:25;stroke-miterlimit:10;}
	.st39{fill-rule:evenodd;clip-rule:evenodd;fill:#797979;}
	.st40{fill-rule:evenodd;clip-rule:evenodd;fill:#FFFFFF;}
	.st41{fill-rule:evenodd;clip-rule:evenodd;fill:#6C6C6C;}
	.st42{fill-rule:evenodd;clip-rule:evenodd;fill:#9F9F9F;}
	.st43{fill-rule:evenodd;clip-rule:evenodd;fill:#4B4B4B;}
	.st44{fill-rule:evenodd;clip-rule:evenodd;fill:#848484;}
	.st45{fill-rule:evenodd;clip-rule:evenodd;fill:#EAEAEA;}
	.st46{fill-rule:evenodd;clip-rule:evenodd;fill:#CBCBCB;}
	.st47{opacity:0.2;fill:#707070;}
	.st48{opacity:0.2;fill:#FFFFFF;}
	.st49{fill:#D0D0D0;}
	.st50{fill:#BFBFBF;}
	.st51{opacity:0.05;}
	.st52{fill:#9D9D9D;}
	.st53{fill:#858585;}
	.st54{fill:#8D8D8D;}
	.st55{fill:#008891;}
	.st56{fill:none;stroke:#FFFFFF;stroke-miterlimit:10;}
	.st57{fill:none;stroke:#FF7802;stroke-width:3;stroke-miterlimit:10;}
	.st58{fill:#F6F4F2;}
	.st59{clip-path:url(#SVGID_54_);}
	.st60{clip-path:url(#SVGID_56_);}
	.st61{fill:#00455C;}
	.st62{fill:none;stroke:#F7F7F7;stroke-width:2;stroke-miterlimit:10;}
	.st63{fill:#E2E2E2;}
	.st64{fill:#00D0D2;}
	.st65{fill:#008086;}
	.st66{fill:#00A0AC;}
	.st67{fill:#FFF3FF;}
	.st68{clip-path:url(#SVGID_58_);}
	.st69{clip-path:url(#SVGID_60_);}
	.st70{fill:#00BABA;}
	.st71{clip-path:url(#SVGID_62_);}
	.st72{clip-path:url(#SVGID_64_);}
	.st73{fill:none;stroke:#00CFD2;stroke-width:5;stroke-linecap:round;stroke-miterlimit:10;}
	.st74{clip-path:url(#SVGID_66_);}
	.st75{opacity:0.4;fill:#FFFFFF;}
	.st76{opacity:0.4;}
	.st77{opacity:0.21;fill:url(#SVGID_71_);}
	.st78{opacity:0.11;fill:#4869A9;}
	.st79{opacity:0.22;fill:#4869A9;}
	.st80{opacity:0.7;fill:#4869A9;}
	.st81{opacity:0.4;fill:#4869A9;}
	.st82{fill:#663000;}
	.st83{fill:#FFC1B0;}
	.st84{fill:#E56403;}
	.st85{fill:#570C01;}
	.st86{fill:#EB3604;}
	.st87{fill:#DFEFFF;}
	.st88{fill:#68778D;}
	.st89{fill:#FC5524;}
	.st90{fill:#140B08;}
	.st91{fill:#133B45;}
	.st92{fill:#CEF3F6;}
	.st93{fill:none;stroke:#00CFD2;stroke-miterlimit:10;}
	.st94{fill:#EAEEF0;}
	.st95{fill:#66B6C7;}
	.st96{fill:#7FE4F5;}
	.st97{fill:#A3E6F8;}
	.st98{fill:#E5F8FF;}
	.st99{fill:none;stroke:#E5F8FF;stroke-width:3.7929;stroke-linecap:round;stroke-miterlimit:10;}
	.st100{clip-path:url(#SVGID_83_);}
	.st101{clip-path:url(#SVGID_85_);}
	.st102{clip-path:url(#SVGID_87_);}
	.st103{opacity:0.21;fill:url(#SVGID_92_);}
	.st104{clip-path:url(#SVGID_100_);}
	.st105{clip-path:url(#SVGID_102_);}
	.st106{clip-path:url(#SVGID_104_);}
	.st107{opacity:0.4;fill:#E2E2E2;}
	.st108{opacity:0.4;fill:#008086;}
	.st109{opacity:0.4;fill:#00D0D2;}
	.st110{opacity:0.22;fill:#AAAAAA;}
	.st111{opacity:0.7;fill:#AAAAAA;}
	.st112{opacity:0.4;fill:#AAAAAA;}
	.st113{opacity:0.43;fill:#212121;}
	.st114{fill:none;stroke:#00465B;stroke-width:4;stroke-miterlimit:10;}
	.st115{clip-path:url(#SVGID_108_);}
	.st116{clip-path:url(#SVGID_110_);}
	.st117{fill:none;stroke:#FF7602;stroke-width:2;stroke-miterlimit:10;}
	.st118{clip-path:url(#SVGID_112_);}
	.st119{clip-path:url(#SVGID_116_);}
	.st120{clip-path:url(#SVGID_116_);fill:#FFFFFF;}
	.st121{clip-path:url(#SVGID_116_);fill:none;stroke:#FF7802;stroke-width:3;stroke-miterlimit:10;}
	.st122{clip-path:url(#SVGID_122_);}
	.st123{clip-path:url(#SVGID_122_);fill:#FFFFFF;}
	.st124{clip-path:url(#SVGID_122_);fill:none;stroke:#FF7802;stroke-width:3;stroke-miterlimit:10;}
	.st125{clip-path:url(#SVGID_128_);}
	.st126{clip-path:url(#SVGID_128_);fill:#FFFFFF;}
	.st127{clip-path:url(#SVGID_128_);fill:none;stroke:#FF7802;stroke-width:3;stroke-miterlimit:10;}
	.st128{clip-path:url(#SVGID_134_);}
	.st129{clip-path:url(#SVGID_134_);fill:#FFFFFF;}
	.st130{clip-path:url(#SVGID_134_);fill:none;stroke:#FF7802;stroke-width:3;stroke-miterlimit:10;}
	.st131{fill:none;stroke:#22CFD1;stroke-miterlimit:10;}
	.st132{clip-path:url(#SVGID_140_);}
	.st133{clip-path:url(#SVGID_140_);fill:#FFFFFF;}
	.st134{clip-path:url(#SVGID_140_);fill:none;stroke:#FF7802;stroke-width:3;stroke-miterlimit:10;}
	.st135{clip-path:url(#SVGID_146_);}
	.st136{clip-path:url(#SVGID_146_);fill:#FFFFFF;}
	.st137{clip-path:url(#SVGID_146_);fill:none;stroke:#FF7802;stroke-width:3;stroke-miterlimit:10;}
	.st138{fill:#FFFFFF;stroke:#00CFD2;stroke-miterlimit:10;}
	.st139{opacity:0.6;}
	.st140{opacity:0.11;fill:#8C8C8C;}
	.st141{opacity:0.4;fill:#8C8C8C;}
	.st142{fill:#06475A;}
	.st143{opacity:0.11;fill:#FFFFFF;}
	.st144{fill:url(#SVGID_151_);}
	.st145{fill:#265789;}
	.st146{clip-path:url(#SVGID_157_);}
	.st147{clip-path:url(#SVGID_159_);}
	.st148{clip-path:url(#SVGID_161_);}
	.st149{opacity:0.21;fill:url(#SVGID_166_);}
	.st150{fill:#CCCCCC;}
	.st151{fill:#D48131;}
	.st152{fill:#366AAB;}
	.st153{fill:#97BBF7;}
	.st154{fill:#C3855D;}
	.st155{fill:#1F508C;}
	.st156{fill:#84574B;}
	.st157{opacity:0.57;}
	.st158{fill:#7D2B00;}
	.st159{fill:#1D3D48;}
	.st160{fill:#303030;}
	.st161{fill:#0D84A5;}
	.st162{fill:#D9C273;}
	.st163{fill:#734230;}
	.st164{fill:#06345B;}
	.st165{fill:#015A74;}
	.st166{opacity:0.53;}
	.st167{fill:#783478;}
	.st168{fill:#829F37;}
	.st169{fill:#CA7C58;}
	.st170{fill:#2F849E;}
	.st171{fill:#975493;}
	.st172{fill:#70880B;}
	.st173{fill:#FB5F6E;}
	.st174{opacity:0.4;fill:#65352D;}
	.st175{fill:#714339;}
	.st176{fill:#371304;}
	.st177{opacity:0.7;fill:#AC7163;}
	.st178{opacity:0.32;fill:#65352D;}
	.st179{fill:#D022B1;}
	.st180{fill:#052C4D;}
	.st181{fill:#FCB040;}
	.st182{fill:none;stroke:#D3821D;stroke-miterlimit:10;}
	.st183{fill:#B45F3D;}
	.st184{fill:#148499;}
	.st185{fill:#023D6F;}
	.st186{fill:#E69A36;}
	.st187{fill:#017281;}
	.st188{fill:#4176A8;}
	.st189{fill:#FD780E;}
	.st190{fill:#7D357C;}
	.st191{fill:none;stroke:#7D357C;stroke-miterlimit:10;}
	.st192{fill:#D8510E;}
	.st193{fill:#A292A0;}
	.st194{fill:#604F61;}
	.st195{fill:#3F363F;}
	.st196{opacity:0.43;fill:#5A88D1;}
	.st197{fill:#5A88D1;}
	.st198{fill:#84E8FA;}
	.st199{fill:#33D7F0;}
	.st200{fill:#D28163;}
	.st201{fill:none;stroke:#000000;stroke-linecap:round;stroke-miterlimit:10;}
	.st202{clip-path:url(#SVGID_174_);}
	.st203{fill:none;stroke:#00CFD2;stroke-width:0.25;stroke-miterlimit:10;}
	.st204{clip-path:url(#SVGID_176_);}
	.st205{clip-path:url(#SVGID_178_);}
	.st206{fill:none;stroke:#F7F7F7;stroke-width:0.25;stroke-miterlimit:10;}
	.st207{clip-path:url(#SVGID_180_);}
	.st208{clip-path:url(#SVGID_182_);}
	.st209{clip-path:url(#SVGID_184_);}
	.st210{clip-path:url(#SVGID_186_);}
	.st211{clip-path:url(#SVGID_188_);}
	.st212{fill:#EBE8E4;}
	.st213{fill:#FFFFFF;stroke:#DDDDDD;stroke-miterlimit:10;}
	.st214{clip-path:url(#SVGID_190_);}
	.st215{clip-path:url(#SVGID_192_);}
	.st216{clip-path:url(#SVGID_194_);}
	.st217{fill:none;stroke:#DDDDDD;stroke-miterlimit:10;}
	.st218{clip-path:url(#SVGID_198_);}
	.st219{clip-path:url(#SVGID_200_);}
	.st220{clip-path:url(#SVGID_202_);}
	.st221{clip-path:url(#SVGID_206_);}
	.st222{clip-path:url(#SVGID_208_);}
	.st223{clip-path:url(#SVGID_210_);}
	.st224{fill:none;stroke:#D8D8D8;stroke-miterlimit:10;}
	.st225{fill:none;stroke:#494949;stroke-miterlimit:10;stroke-dasharray:5.0189,5.0189;}
	.st226{opacity:0.54;enable-background:new    ;}
	.st227{fill:url(#SVGID_223_);}
	.st228{fill:url(#SVGID_224_);}
	.st229{fill:url(#SVGID_225_);}
	.st230{fill:url(#SVGID_226_);}
	.st231{opacity:0.2;enable-background:new    ;}
	.st232{opacity:0.12;enable-background:new    ;}
	.st233{opacity:0.25;fill:#FFFFFF;enable-background:new    ;}
	.st234{fill:#793578;}
	.st235{fill:#C4855C;}
	.st236{fill:#062C4D;}
	.st237{fill:#CC7C57;}
	.st238{fill:#150E0D;}
	.st239{fill:#B03B8F;}
	.st240{fill:#5F2B0D;}
	.st241{fill:#9A5596;}
	.st242{fill:#84584C;}
	.st243{fill:#7C2C14;}
	.st244{fill:#1F3D48;}
	.st245{fill:#0187A7;}
	.st246{fill:#7E397E;}
	.st247{fill:#065A73;}
	.st248{fill:#2F86A0;}
	.st249{fill:#E35D6F;}
	.st250{opacity:0.4;fill:#65352E;}
	.st251{fill:#010001;}
	.st252{fill:#D6D6D6;}
	.st253{fill:none;stroke:#003D6F;stroke-miterlimit:10;}
	.st254{fill:#B75F3D;}
	.st255{fill:#1C6F9C;}
	.st256{fill:#003D6F;}
	.st257{fill:#C4BFBF;}
	.st258{fill:#ABDAEE;}
	.st259{fill:#37A7C1;}
	.st260{fill:#014D6F;}
	.st261{fill:#744230;}
	.st262{fill:#5F3629;}
	.st263{fill:#7D2D14;}
	.st264{fill:none;stroke:#7C2C14;stroke-miterlimit:10;}
	.st265{fill:#975594;}
	.st266{fill:#4176A9;}
	.st267{enable-background:new    ;}
	.st268{clip-path:url(#SVGID_232_);}
	.st269{fill:url(#SVGID_235_);}
	.st270{fill:url(#SVGID_236_);}
	.st271{fill:url(#SVGID_237_);}
	.st272{fill:url(#SVGID_238_);}
</style>
<g id="BACKGROUND">
</g>
<g id="OBJECTS">
</g>
<g id="DESIGNED_BY_FREEPIK">
	<g>
		<g id="DESIGNED_BY_FREEPIK_4_">
			<g>
				<path class="st13" d="M-42.92-169.4h446.32V6.62H-42.92V-169.4z"/>
			</g>
			<g class="st267">
				<path class="st226" d="M5.8,43.22c-0.14-4.19,0.59-8.27,2.47-12.06c2.45-4.95,6.28-8.42,11.65-10.03c2.97-0.88,5.95-0.97,8.97,0
					c2.23,0.71,4.4,1.5,6.61,2.26c1.21,0.41,2.38,0.33,3.59-0.12c2.83-1.07,5.64-2.23,8.63-2.8c2.52-0.48,5.04-0.24,7.54,0.35
					c3.23,0.76,6.04,2.26,8.4,4.56c0.67,0.66,1.21,1.47,1.78,2.23c0.19,0.24,0.26,0.4-0.16,0.67c-3.85,2.49-6.73,5.8-7.52,10.41
					c-0.86,5.13-0.02,9.94,3.49,14.07c1.6,1.88,3.56,3.24,5.68,4.42c0.52,0.29,0.64,0.45,0.43,1.09c-1.54,4.76-3.99,9.03-7.02,12.98
					c-1.33,1.74-2.71,3.42-4.52,4.68c-1.86,1.29-3.88,1.9-6.26,1.67c-2.59-0.24-4.83-1.4-7.21-2.17c-3.38-1.09-6.61-0.78-9.85,0.45
					c-2.09,0.79-4.16,1.69-6.45,1.86c-2.35,0.17-4.28-0.78-6.07-2.16c-2.31-1.76-3.93-4.16-5.64-6.44
					c-1.33-1.78-2.47-3.68-3.45-5.66c-2.09-4.16-3.57-8.54-4.45-13.1C5.94,48.04,5.7,45.65,5.8,43.22z"/>
				<path class="st226" d="M216.9,25.55c2.69-0.17,5.23,0.33,7.61,1.5c0.36,0.17,0.66,0.28,0.38,0.88
					c-0.43,0.91-0.69,1.93-0.98,2.92c-0.16,0.53-0.52,0.48-0.85,0.33c-1.5-0.71-3.07-1.19-4.68-1.4c-2.57-0.33-5.21-0.21-7.21,1.67
					c-2.16,2.05-2.42,5.83,0.66,8.06c2.12,1.54,4.59,2.31,6.92,3.38c3.18,1.47,6.14,3.21,7.25,6.85c1.33,4.4,0.47,8.28-3.07,11.32
					c-1.92,1.66-4.3,2.43-6.83,2.74c-1.12,0.14-2.23,0.19-3.35,0.16c-3-0.07-5.87-0.74-8.54-2.09c-0.31-0.16-0.59-0.28-0.36-0.81
					c0.43-1.05,0.72-2.17,1-3.3c0.1-0.4,0.12-0.43,0.5-0.22c1.81,0.91,3.69,1.64,5.73,2c2.93,0.52,5.75,0.31,8.23-1.47
					c1.14-0.81,1.78-2.05,1.98-3.49c0.6-4.21-2.11-6.21-5.18-7.58c-2.54-1.14-5.14-2.07-7.51-3.64c-3.73-2.47-4.97-7.16-3.56-11.06
					c1.29-3.52,4.04-5.37,7.47-6.4C213.95,25.5,215.45,25.47,216.9,25.55z"/>
				<path class="st226" d="M240.77,28.76c0,2.35,0.02,4.64-0.02,6.92c-0.02,0.59,0.12,0.79,0.76,0.78c1.85-0.05,3.71,0,5.56-0.03
					c0.52,0,0.72,0.1,0.69,0.66c-0.09,1.09,0.1,2.17-0.1,3.26c-1.04,0.02-2.07,0.03-3.09,0.05c-1.04,0.02-2.07,0.03-3.11-0.02
					c-0.5-0.02-0.69,0.09-0.69,0.66c0.02,4.68,0,9.35,0.03,14.03c0,0.85,0.14,1.73,0.4,2.52c0.48,1.52,1.88,2.35,3.78,2.11
					c0.62-0.09,1.24-0.05,1.88-0.07c0.45-0.02,0.48,0.38,0.52,0.64c0.12,0.91-0.12,1.86,0.12,2.78c0.05,0.21-0.14,0.29-0.35,0.35
					c-2.95,0.76-5.85,1.07-8.56-0.74c-1.69-1.14-2.35-2.85-2.5-4.75c-0.47-5.52-0.1-11.08-0.19-16.62c-0.02-0.76-0.22-0.95-0.93-0.9
					c-0.88,0.05-1.76-0.02-2.64,0.03c-0.52,0.03-0.62-0.17-0.6-0.64c0.03-0.91,0.03-1.83,0-2.73c-0.03-0.52,0.17-0.62,0.64-0.6
					c0.97,0.03,1.95-0.02,2.92,0.02c0.52,0.02,0.62-0.17,0.6-0.64c-0.02-1.69,0.02-3.38-0.02-5.07c-0.02-0.5,0.14-0.69,0.6-0.81
					C237.89,29.57,239.3,29.18,240.77,28.76z"/>
				<path class="st226" d="M287.5,41.6c0.6-1.59,1.48-2.83,2.66-3.87c1.55-1.38,3.4-1.86,5.4-1.83c0.57,0.02,0.98,0.24,0.91,1.02
					c-0.1,1.05-0.05,2.14-0.02,3.19c0.02,0.53-0.14,0.71-0.67,0.67c-1.52-0.09-3,0-4.33,0.91c-1.74,1.19-2.67,2.88-3.12,4.87
					c-0.24,1.14-0.4,2.3-0.4,3.47c0,4.18-0.02,8.35,0.02,12.53c0,0.64-0.12,0.88-0.81,0.83c-1.07-0.07-2.14-0.05-3.21,0
					c-0.71,0.03-0.93-0.14-0.93-0.9c0.03-7.21,0.02-14.44,0.03-21.66c0-1.12-0.28-2.21-0.22-3.35c0.03-0.66,0.1-0.98,0.86-0.88
					c0.62,0.07,1.26,0.02,1.88,0.02c1.78,0,1.79,0,1.81,1.81c0.02,0.97,0,1.95,0.02,2.92C287.4,41.41,287.42,41.43,287.5,41.6z"/>
				<path class="st226" d="M51.85,4.18c0,3.61-1.29,6.77-3.45,9.6c-1.43,1.88-3.12,3.5-5.21,4.64c-1.97,1.07-4.09,1.42-6.32,1.24
					c-0.5-0.03-0.47-0.4-0.48-0.76c-0.21-3.9,1.14-7.28,3.47-10.34c2.42-3.18,5.68-5.04,9.41-6.18c0.41-0.12,0.83-0.21,1.26-0.26
					c1.31-0.17,1.35-0.12,1.35,1.19C51.85,3.63,51.85,3.91,51.85,4.18z"/>
				<path class="st226" d="M189.62,46.19c-0.45-2.5-1.35-4.81-3.11-6.68c-2.67-2.85-5.99-4.02-9.89-3.43
					c-2.36,0.36-4.45,1.21-6.11,2.99c-0.52,0.55-1.04,1.1-1.64,1.78c-0.02-1.42,0.02-2.66-0.17-3.88c-0.07-0.45-0.22-0.48-0.59-0.48
					c-0.95,0.02-1.9,0.07-2.83-0.02c-0.78-0.07-0.98,0.16-0.97,0.95c0.03,7.97,0.02,15.95,0.02,23.92c0,4.09,0.02,8.16-0.02,12.25
					c0,0.6,0.14,0.81,0.76,0.78c1.16-0.05,2.33-0.07,3.49,0c0.69,0.03,0.88-0.14,0.88-0.86c-0.03-4.11-0.02-8.23-0.02-12.34
					c0-0.29,0-0.59,0-0.88c0.85,1.19,1.97,1.97,3.18,2.55c2.23,1.09,4.57,1.35,7.06,0.98c4.4-0.62,8.15-4.19,9.39-8.27
					C190,52.46,190.19,49.35,189.62,46.19z M183.59,55.62c-1.21,2.55-3.19,3.92-6.04,4.23c-4.31,0.47-8.13-3-8.11-7.28
					c0-0.76,0-1.5,0-2.26c-0.03-1.93-0.07-3.87,0.74-5.71c1.31-2.97,5.04-4.97,8.08-4.44c3.37,0.59,5.78,4,6.32,6.9
					C185.11,50.04,184.89,52.87,183.59,55.62z"/>
				<path class="st226" d="M157.24,47.14c-0.45-3.4-1.64-6.39-4.31-8.66c-2.85-2.42-6.13-3.02-9.72-2.26
					c-2.83,0.6-5.07,2.12-6.66,4.52c-0.35-1.24-0.29-2.49-0.26-3.73c0.02-0.48-0.17-0.57-0.6-0.55c-1.14,0.02-2.26,0.02-3.4,0
					c-0.67-0.02-0.79,0.4-0.66,0.88c0.05,0.21,0.12,0.41,0.12,0.62c0.03,3.19,0.09,6.37,0.14,9.56c0.07,4.81,0.21,9.63-0.12,14.46
					c-0.26,3.93,0.28,7.87,0.16,11.82c-0.02,0.52,0.22,0.53,0.62,0.53c1.23-0.02,2.45-0.03,3.68,0c0.5,0.02,0.64-0.12,0.62-0.62
					c-0.03-1.64-0.02-3.26-0.02-4.9c0-2.85,0-5.68,0-8.53c0.43,0.29,0.57,0.69,1.02,0.9c0.38,0.17,0.62,0.62,0.98,0.86
					c3.88,2.55,7.96,2.55,11.99,0.55c2.81-1.4,4.63-3.85,5.64-6.83C157.41,52.96,157.62,50.09,157.24,47.14z M152.17,51.78
					c-0.26,1.81-0.69,3.52-1.74,5c-1.16,1.64-2.73,2.69-4.73,3.04c-3.87,0.66-7.71-1.69-8.56-5.51c-0.31-1.35-0.4-2.76-0.26-4.04
					c-0.07-2.14,0-4.12,0.93-5.97c1.45-2.85,4.56-4.64,7.7-4.25c2.21,0.28,3.93,1.48,5.11,3.35
					C152.2,45.99,152.58,48.8,152.17,51.78z"/>
				<path class="st226" d="M125.64,62.74c-0.55-1.47-1.02-2.97-1.54-4.45c-1.81-5.16-3.54-10.34-5.3-15.51
					c-1.83-5.35-3.66-10.68-5.45-16.03c-0.17-0.5-0.4-0.66-0.91-0.66c-1.5,0.03-3.02,0.05-4.52,0c-0.74-0.03-0.98,0.28-1.21,0.93
					c-1.76,5.3-3.59,10.58-5.37,15.88c-2.24,6.61-4.56,13.19-6.73,19.83c-0.26,0.78,0.03,0.69,0.53,0.69c1.26,0,2.52-0.02,3.78,0
					c0.5,0.02,0.72-0.12,0.9-0.66c1.14-3.47,2.35-6.92,3.49-10.41c0.16-0.5,0.35-0.64,0.81-0.64c3.93,0.02,7.87,0.02,11.79,0
					c0.5,0,0.69,0.19,0.83,0.62c0.97,2.9,1.97,5.78,2.95,8.66c0.26,0.78,0.33,1.78,0.86,2.23c0.62,0.53,1.69,0.09,2.4,0.17
					c0.85,0,1.54,0,2.23,0C125.64,63.42,125.88,63.42,125.64,62.74z M105.14,47.76c-0.62,0-0.52-0.19-0.35-0.67
					c1.31-3.9,2.61-7.8,3.85-11.72c0.43-1.36,0.78-2.76,1.19-4.23c1.85,5.57,3.68,11.08,5.51,16.6
					C111.92,47.76,108.52,47.76,105.14,47.76z"/>
				<path class="st226" d="M276.63,45.45c-1.12-4.35-3.73-7.39-8.04-8.84c-2.62-0.88-5.35-0.97-7.99-0.29
					c-2.88,0.72-5.33,2.23-7.11,4.71c-1.95,2.73-2.83,5.78-2.69,9.11c0.03,1.02-0.02,2.04,0.17,3.05c0.55,2.81,1.57,5.45,3.73,7.35
					c4.12,3.64,8.94,4.3,14.05,2.52c5.45-1.92,7.77-6.26,8.44-11.65C277.41,49.42,277.13,47.42,276.63,45.45z M271.94,49.42
					c-0.02,3.71-0.91,6.59-3.31,8.85c-2.33,2.21-6.37,2.38-8.87,0.45c-2.26-1.74-3.31-4.09-3.73-6.85
					c-0.43-2.86,0.07-5.52,1.35-8.08c2.26-4.49,8.49-5.21,11.61-1.93C270.54,43.48,272.09,46.78,271.94,49.42z"/>
				<path class="st226" d="M324.82,45.42c-0.41-2.4-1.35-4.56-2.99-6.33c-2.59-2.78-5.9-3.45-9.58-3.04
					c-2.99,0.35-5.45,1.55-7.4,3.83c-2.3,2.66-3.37,5.82-3.62,9.27c-0.14,1.64,0.02,3.28,0.38,4.88c0.45,2.02,1.16,3.97,2.52,5.57
					c2.55,3,5.95,4.16,9.77,4.35c1.4,0.07,2.81,0.02,4.19-0.19c1.66-0.24,3.3-0.53,4.85-1.21c0.45-0.19,0.64-0.48,0.53-0.93
					c-0.17-0.83-0.38-1.66-0.62-2.47c-0.09-0.29-0.21-0.57-0.72-0.38c-2.86,1.07-5.8,1.54-8.85,1.05c-2.14-0.35-3.95-1.26-5.26-3
					c-1.07-1.42-1.55-3.02-1.78-4.8c-0.14-1.07,0.19-1.05,0.97-1.05c2.8,0.02,5.59,0,8.4,0c2.9,0,5.78-0.02,8.68,0.02
					c0.57,0,0.76-0.12,0.72-0.71C324.94,48.66,325.09,47.04,324.82,45.42z M315.53,47.19c-2.86,0-5.71-0.02-8.58,0.02
					c-0.52,0-0.79-0.1-0.66-0.66c0.64-2.66,1.76-4.97,4.38-6.26c3-1.48,6.82-0.41,8.47,2.66c0.55,1.04,0.97,2.11,0.91,3.3
					c-0.02,0.33,0.16,0.59,0.19,0.97C318.67,47.19,317.1,47.19,315.53,47.19z"/>
			</g>
		</g>
	</g>
</g>
</svg>
